<mxfile host="app.diagrams.net" modified="2023-05-30T03:08:07.882Z" agent="Mozilla/5.0 (Windows NT 10.0; Win64; x64) AppleWebKit/537.36 (KHTML, like Gecko) Chrome/113.0.0.0 Safari/537.36 Edg/113.0.1774.57" etag="0l4_rtTL_b78_YZpyHAq" version="21.3.5" type="device">
  <diagram name="Trang-1" id="tOTE119o6y39baAkqeYi">
    <mxGraphModel dx="794" dy="478" grid="1" gridSize="10" guides="1" tooltips="1" connect="1" arrows="1" fold="1" page="1" pageScale="1" pageWidth="1200" pageHeight="1920" math="0" shadow="0">
      <root>
        <mxCell id="0" />
        <mxCell id="1" parent="0" />
        <mxCell id="IFqryok0byd0GUK2o1Lt-2" value="" style="shape=image;verticalLabelPosition=bottom;labelBackgroundColor=default;verticalAlign=top;aspect=fixed;imageAspect=0;image=https://cdn-icons-png.flaticon.com/512/5044/5044729.png;" parent="1" vertex="1">
          <mxGeometry x="272" y="205" width="70" height="70" as="geometry" />
        </mxCell>
        <mxCell id="IFqryok0byd0GUK2o1Lt-4" value="" style="shape=image;verticalLabelPosition=bottom;labelBackgroundColor=default;verticalAlign=top;aspect=fixed;imageAspect=0;image=https://cdn-icons-png.flaticon.com/512/689/689360.png;" parent="1" vertex="1">
          <mxGeometry x="710" y="397" width="78" height="78" as="geometry" />
        </mxCell>
        <mxCell id="IFqryok0byd0GUK2o1Lt-5" value="" style="shape=image;verticalLabelPosition=bottom;labelBackgroundColor=default;verticalAlign=top;aspect=fixed;imageAspect=0;image=https://cdn-icons-png.flaticon.com/512/2355/2355692.png;" parent="1" vertex="1">
          <mxGeometry x="670" y="397" width="62" height="62" as="geometry" />
        </mxCell>
        <mxCell id="IFqryok0byd0GUK2o1Lt-10" value="" style="endArrow=classic;html=1;rounded=0;" parent="1" edge="1">
          <mxGeometry width="50" height="50" relative="1" as="geometry">
            <mxPoint x="120" y="400" as="sourcePoint" />
            <mxPoint x="265" y="240" as="targetPoint" />
            <Array as="points">
              <mxPoint x="120" y="240" />
            </Array>
          </mxGeometry>
        </mxCell>
        <mxCell id="K0Yor81gI7pNhZ5WIHlw-41" value="&lt;font style=&quot;font-size: 13px;&quot; face=&quot;Tahoma&quot;&gt;1) Request&amp;nbsp;&lt;/font&gt;&lt;font face=&quot;Tahoma&quot;&gt;access to an EMR&lt;/font&gt;" style="edgeLabel;html=1;align=center;verticalAlign=middle;resizable=0;points=[];rotation=-90;fontSize=13;labelBackgroundColor=none;" parent="IFqryok0byd0GUK2o1Lt-10" connectable="0" vertex="1">
          <mxGeometry x="0.1662" relative="1" as="geometry">
            <mxPoint x="-34" y="89" as="offset" />
          </mxGeometry>
        </mxCell>
        <mxCell id="IFqryok0byd0GUK2o1Lt-11" value="" style="endArrow=classic;html=1;rounded=0;" parent="1" edge="1">
          <mxGeometry width="50" height="50" relative="1" as="geometry">
            <mxPoint x="360" y="240" as="sourcePoint" />
            <mxPoint x="470" y="240" as="targetPoint" />
          </mxGeometry>
        </mxCell>
        <mxCell id="K0Yor81gI7pNhZ5WIHlw-43" value="&lt;font style=&quot;font-size: 13px;&quot; face=&quot;Tahoma&quot;&gt;2a) Send to HPU&lt;/font&gt;" style="edgeLabel;html=1;align=center;verticalAlign=middle;resizable=0;points=[];fontSize=13;labelBackgroundColor=none;" parent="IFqryok0byd0GUK2o1Lt-11" connectable="0" vertex="1">
          <mxGeometry x="-0.8434" y="-1" relative="1" as="geometry">
            <mxPoint x="45" y="19" as="offset" />
          </mxGeometry>
        </mxCell>
        <mxCell id="IFqryok0byd0GUK2o1Lt-29" value="LPU&#39;s DApp" style="text;html=1;strokeColor=none;fillColor=none;align=center;verticalAlign=middle;whiteSpace=wrap;rounded=0;fontFamily=Tahoma;fontStyle=1" parent="1" vertex="1">
          <mxGeometry x="270.5" y="277" width="73" height="30" as="geometry" />
        </mxCell>
        <mxCell id="IFqryok0byd0GUK2o1Lt-31" value="Low permission user" style="text;html=1;strokeColor=none;fillColor=none;align=center;verticalAlign=middle;whiteSpace=wrap;rounded=0;fontFamily=Tahoma;fontStyle=1" parent="1" vertex="1">
          <mxGeometry x="74.38" y="475" width="100.25" height="52" as="geometry" />
        </mxCell>
        <mxCell id="IFqryok0byd0GUK2o1Lt-34" value="Requested record" style="text;html=1;strokeColor=none;fillColor=none;align=center;verticalAlign=middle;whiteSpace=wrap;rounded=0;fontFamily=Tahoma;fontStyle=1" parent="1" vertex="1">
          <mxGeometry x="670" y="475" width="130" height="30" as="geometry" />
        </mxCell>
        <mxCell id="K0Yor81gI7pNhZ5WIHlw-1" value="" style="sketch=0;outlineConnect=0;fontColor=#232F3E;gradientColor=none;fillColor=#232F3D;strokeColor=none;dashed=0;verticalLabelPosition=bottom;verticalAlign=top;align=center;html=1;fontSize=12;fontStyle=0;aspect=fixed;pointerEvents=1;shape=mxgraph.aws4.user;" parent="1" vertex="1">
          <mxGeometry x="99.5" y="421" width="50" height="50" as="geometry" />
        </mxCell>
        <mxCell id="K0Yor81gI7pNhZ5WIHlw-2" value="" style="shape=image;verticalLabelPosition=bottom;labelBackgroundColor=default;verticalAlign=top;aspect=fixed;imageAspect=0;image=https://cdn-icons-png.flaticon.com/512/5044/5044729.png;" parent="1" vertex="1">
          <mxGeometry x="487" y="207" width="70" height="70" as="geometry" />
        </mxCell>
        <mxCell id="K0Yor81gI7pNhZ5WIHlw-21" value="&lt;font face=&quot;Tahoma&quot;&gt;Get data&lt;/font&gt;" style="html=1;shadow=0;dashed=0;align=center;verticalAlign=middle;shape=mxgraph.arrows2.twoWayArrow;dy=0.53;dx=21.67;fillColor=#d5e8d4;strokeColor=none;" parent="1" vertex="1">
          <mxGeometry x="574" y="434.72" width="89" height="24.28" as="geometry" />
        </mxCell>
        <mxCell id="K0Yor81gI7pNhZ5WIHlw-22" value="" style="group" parent="1" connectable="0" vertex="1">
          <mxGeometry x="375" y="111" width="100.04" height="55" as="geometry" />
        </mxCell>
        <mxCell id="K0Yor81gI7pNhZ5WIHlw-13" value="" style="verticalLabelPosition=bottom;verticalAlign=top;html=1;shape=mxgraph.basic.donut;dx=10;strokeColor=none;fillColor=#10739E;fontSize=10;align=center;fillOpacity=20;rotation=-180;" parent="K0Yor81gI7pNhZ5WIHlw-22" vertex="1">
          <mxGeometry y="8.768115942028984" width="43.842231075697214" height="43.84057971014493" as="geometry" />
        </mxCell>
        <mxCell id="K0Yor81gI7pNhZ5WIHlw-14" value="" style="verticalLabelPosition=middle;verticalAlign=middle;html=1;shape=mxgraph.basic.partConcEllipse;startAngle=0;endAngle=0.65;arcWidth=0.2;strokeColor=none;fillColor=#10739E;fontSize=22;fontColor=#10739E;align=center;fontStyle=1;whiteSpace=wrap;rotation=-180;" parent="K0Yor81gI7pNhZ5WIHlw-13" vertex="1">
          <mxGeometry width="43.842231075697214" height="43.84057971014493" as="geometry" />
        </mxCell>
        <mxCell id="K0Yor81gI7pNhZ5WIHlw-18" value="VTK" style="text;html=1;strokeColor=none;fillColor=none;align=center;verticalAlign=middle;whiteSpace=wrap;rounded=0;fontFamily=Tahoma;fontStyle=1" parent="K0Yor81gI7pNhZ5WIHlw-22" vertex="1">
          <mxGeometry x="47.82788844621515" y="31.08695652173913" width="52.212111553784865" height="23.913043478260867" as="geometry" />
        </mxCell>
        <mxCell id="K0Yor81gI7pNhZ5WIHlw-20" value="" style="shape=image;verticalLabelPosition=bottom;labelBackgroundColor=default;verticalAlign=top;aspect=fixed;imageAspect=0;image=data:image/png,iVBORw0KGgoAAAANSUhEUgAAAgAAAAIAEAYAAACk6Ai5AAAAIGNIUk0AAHomAACAhAAA+gAAAIDoAAB1MAAA6mAAADqYAAAXcJy6UTwAAAAGYktHRAAAAAAAAPlDu38AAAAJcEhZcwAAAGAAAABgAPBrQs8AAAAHdElNRQfnBAUOMgzrk+I4AAB9f0lEQVR42u3deYDNZf//8fd1ZrMTEVFRqGTfspdlFmaxZIlKVJqtiESL7JWRWxHDRLYWYcKsZkMKSXZFSZSsUdkZM/O5fn9k3H371Z1l5lyfc87z8df3e983XuPjLK/3dX2ujwgAAAAAAAAAAAAAAAAAAAAAAAAAAAAAAAAAAAAAAAAAAAAAAAAAAAAAAAAAAAAAAAAAAAAAAAAAAAAAAAAAAAAAAAAAAAAAAAAAAAAAAAAAAAAAAAAAAAAAAAAAAAAAAAAAAAAAAAAAAAAAAAAAAAAAAAAAAAAAAAAAAAAAAAAAAAAAAAAAAAAAAAAAAAAAAAAAAAAAAAAAAAAAAAAAAAAAAAAAAAAAAAAAAAAAAAAAAAAAAAAAAAAAAAAAAAAAXB1lOgAAAAAA1xW2NqHFezElS6of/T7Ovj801MqRiqph27bqbfW09K9fX6bLu2rlHXfIWvlQH7npJlkvt8o8b2/TuWGGHi9z5FxOjjot76vxJ0/KFtVVvH78USbLAd1w2zaJFhFZtUqaXyjp2yElJbFV5/VPDj9zxnRud8EAAAAAAMBV67I7a960JjVrWr/mbXF8PmyYBMlmdb5PH2knI2VR0aKm88FNlJYOcvz8eQmXwXrYwoVWL9XP0SYmJvlQQMOIjd9/bzqeq2IAAAAAAOAf9ejxReXJzYoWzQ4+E1500rhxuqH+RjYMHKhGyBNS3MfHdD54hvydA3KL1FJT3n77dAXfkX4HRo5co9qq/uriRdP5XAUDAAAAAAD/n7BmaQemd69eXT5Qqxzdly2TIVJJfq9d23QuQEREaslr0njDBq/ndTnHlm7dlpUPWhYefuSI6Vh25zAdAAAAAIB9hD2WdfOMsQ0ayJfqK0endeso/rClXfKKbGrWLPeQ4zNr/MaNocdWfBTbrm5d07Hsjh0AAAAAAKSzzlg0vXv9+vpW/bVjQlaWNJFWklmunOlcwFU5Ld+qwYcP58V5l9ZLmjZNubt9v8jQQ4dMx7IbdgAAAAAAHoziD7dQSu7Rb916q+NsbiWpnpCQf3aF6Vh2wwAAAAAA8EAhm9K6xsU1bGit11UdB1eupPjDHagxIvJpo0YXS58ZVCTuxRdN57EbBgAAAACAB8lf8XeEqtpW+4wMFSMn5fGyZU3nAgqSCtb3qvbPP9/1eFrXuLhKlUznsQsGAAAAAIAHYMUfHmWu+Mq44sXzYh0pVvCrr5qOYxcMAAAAAAA3xoo/PFpd/YnU79s3bG1Ci/diSpY0Hcc0BgAAAACAG2LFH5ArOwHU0iI1c1/q1Ml0HNMYAAAAAABuJL/4q2z1ojU3M5MVf0BEN5De+sF27UznMM3bdAAAAAAAN+7Pj/Oz2mdkSBM5KRbFHxARkW/kNR1Tt66IiDQxHcYcdgAAAAAALoyt/sBViJFBsvPOO03HMI0dAAAAAIALYsUfuAZDpKrcUbq0/Md0ELPYAQAAAAC4kD8Xf8eErCxW/IGr8L2ckD1+fqZjmMYAAAAAAHABFH8AN4oBAAAAAGBjFH8ABYUBAAAAAGBDFH8ABY0BAAAAAGAjFH8AhYUBAAAAAGADFH8AhY0BAAAAAGAQxR+AszAAAAAAAAyg+ANwNgYAAAAAgBNR/AGYwgAAAAAAcAKKPwDTGAAAAAAAhYjiD8AuGAAAAAAAhYDiD8BuGAAAAAAABYjiD8CuGAAAAAAABYDiD8DuGAAAAAAAN4DiD8BVMAAAAAAArgPFH4Cr8TYdAAAAAHAlFH8nOSDT1NiTJ3VFq03egoCApLSOL0T7f/WV6Vhcf7gydgAAAAAAV4Hi5yQUf6DQMAAAAAAA/geKn5NQ/IFCxwAAAAAA+BsUPyeh+ANOwwAAAAAA+BOKn5NQ/AGnYwAAAAAACMXPaSj+gDEMAAAAAODRKH5OQvEHjGMAAAAAAI9E8XMSij9gGwwAAAAA4FEofk5C8QdshwEAAAAAPALFz0ko/oBtMQAAAACAW6P4OQnFH7A9BgAAAABwSxQ/J6H4Ay6DAQAAAADcCsXPSSj+gMthAAAAAAC3QPFzEoo/4LIYAAAAAMClUfychOIPuDwGAAAAAHBJFD8nofgDbsPbdAAAAABX17F66p6pQaVKeb/mXcW3VnCwnLe89eh27dQZR1dVrV49aaiXSV7VqrqUPKZHlCmjRsgTUtzHx3RuV6c76z/+jybSSjJNp3E/eriUkfm//ab9tLca7e+f3LjjC9H+W7aYzhWyKa1rXFzDhtZ6XdWam5mpmkgZySxb1nQuwBUo0wEAAABcTZfdWfOmNalZ03o2r63XoOHDpZJUkX0PPyynJEvKFytmOh9wI/5U/Cc4+vv7JzcOWhYebp/ir7LVi9bczEwVIyflcYo/rk1iYmBgZKTy2B7MDgAAAIB/0aPHF5UnNytaNDv4THjRSePGWQl5WhoNGiTF5FuZ5+0tp+RbKW86JXBjKP6A+2MAAAAA8A9CKmdsmdm0Ro3sN07v0M8tXSpDpJLsrF1bRER2mk4HFAyKP+A5OAQQAADgL8Iey7p5xtgGDRyLdG3Zs26dDJFK8vvl4g+4CYo/4HkYAAAAAFyWv+Iv4XmH1eT0dJkoq/Ub5dncD7dC8Qc8FwMAAADg8fLv8Xes0Tv0kKVLKf5wRxR/z5Z//U3ngFkMAAAAgMfLP9yPrf5wRxR/z/bX6286D8xiAAAAADxW/uP85Ki+TRoNGmQ6D1CQKP6eza7XH2bxFAAAAOCxrGfz2noNGj78yuP8ADdg1+JH8XcOu15/2AMfdAAAwON0rJ66Z2pQqVJSSarIvocfllPyrXDHP1zdAZmmxp48KeOsNnkLgoKS0zoui/Q3X/w664xF07vXr69v1V9b7TMypImcFIviX+Bsev1hLwwAAACAx/F+zbuKb63gYPlQZ+nyxYqZzgPciD+t+Hqr0f7+yY07vhBtg+KXv+JvrddVrbmZmaqJlJFMin9Bs+v1hz1xBgAAAPA85y1vPbpdO9MxgBth163ebPV3Drtef9gbOwAAAIDHUWccXVW1evVE9EA93nQa4BrZdKs3W/2dxKbXH66BAQAAAPA8e/Uh/XC1aqZjANfCrlu92ervHHa9/nAtDAAAAIDnSVaHJLVUKamtRWqbDgP8C5uu+LLi7yQ2vf5wTZwBAAAAPE9t/YEM8/U1HQP4ny4XP13RapO3ICAgKa3jC9H+X31lOtafi79jQlaWNJFWklmunOlcbsem1x+ujQEAAAAAYCc2LX4Ufyex6fWHe2AAAAAAANiBTYsfxd9JbHr94V4YAAAAAAAm2bT4UfydxKbXH+6JAQAAAABggk2LH8XfSWx6/eHeGAAAAAAAzmTT4kfxdxKbXn94BgYAAAAAgDPYtPhR/J3EptcfnoUBAAAAAFCYbFr8KP5OYtPrD8/EAAAAAAAoDDYtfhR/J7Hp9Ydn8zYdAAAAAHAneriUkfm//ab9tLca7e+f3LjjC9H+W7aYzhWyKa1rXFzDhtZ6XdWam5mpmkgZySxb1nQud2P36y9jRSzLdBqYwgAAAAAAKAiXV3xlnNUmb0FQUHJax2WRNih+f17xt9pnZEgTOSkWxb/Auc71F8k0nQqmMAAAAAAAbkRRWSjTjh2TOl5f6MiOHZPeD0yK9t+61XQsVvydw+4r/lx//BlnAAAAAADXQc+SDer1bdvyznp9r6NbtEh8v8OJyJH2Kf4qW71ozc3MVDFyUh6n+BW0PxX/CY7+/v7JjYOWhYfbp/hz/fF32AEAAAAAXI2v1aMy8dIldUI6qJ5vvXWqgs9HfgdGj16T0nZUf3Xxoul4FD/noPjDlbEDAAAAAPg7/eWSvHrunOxQQ2XprFmObrnrHC/WqpVwOmBhRMyLL65RbRXF33NQ/OEO2AEAAAAAz3J5JV/265ny6smTUk6OS/T+/fqoOqi/27pVIqyy6tfVq4t86DfYejA1dcmPbUOj48+elUlS006Hp1H8nIPiD3fCAAAAAMDDJCYGBkZGKmU6hw08JE+IyInL/5+3iNz+f/77IaYD/h1O9XcS1znVn+t/NWrIzVIzO9t0DNMYAAAAAAAugFPdnYNT/d3UZPlRfjp1ynQM0xgAAAAAADbGiq+TsOLv3obLFKmzb59MMB3ELA4BBAAAAGzozyu+joMrV0oTaSWZ5cqZzuVu8lf8rdnaW41u3z4preML0f5ffWU6F9e/YOnxqo2+Zds20zlMYwAAAAAA2AiHuzkHh/t5mMuHe5qOYRq3AAAAAAA2wFZvJ2Grv2cpLR3k+PnzRU76BVivpaaKTQ/3dBZ2AAAAAAAGsdXbOdjq76ECJEt9+sEHS+Lbquj4s2dNxzGNAQAAAABgAFu9nYOt/h7qa/WoTLx0ybE9r5rqNXGi6Th2wQAAAAAAcCKKn3NQ/D2bOiEdVM+33lo+qVPN8PAffjCdxy44AwAAAABwAu7xdhLu8fdsqTJFpuzc6du15PbzZcaMkSWmA9kLAwAAAACgEP35Hm9rbmamaiJlJJPiV9D+tOLvrUb7+yc37vhCtA2KP9ffSYrKQpl27FheoNcpPbBLlyVLmh8aEnXhgulYdsMAAAAAACgEbPV2Drb6e7b86+9ooTpa9wYFpagO86Kj9u0zncuuGAAAAAAABYit3k7CVn/P9pfrn5DW8YVo/23bTMeyOw4BBAAAAArAn4ufY0JWFo9zKySXi5+uaLXJWxAQYJfH+XH9ncSm199VMAAAAAAAbgDFz0lsWvy4/k5i0+vvahgAAAAAANeB4uckNi1+XH8nsen1d1WcAQAAgBvoWD11z9SgUqW8X/Ou4lsrOFjOW956dLt26oyjq6pWr5401Mskr2pVXUoe0yPKlFEj5Akp7uNjOjfgijjV3Tk41d+z2fX6uzplOgAAALh2XXZnzZvWpGZN69m8tl6Dhg+XSlJF9j38sJySLClfrJjpfLC3xMTAwMhIxffAa8Sp7s7Bqf6eza7X312wAwAAABfQo8cXlSc3K1o0O/hMeNFJ48ZZCXlaGg0aJMXkW5nn7S2n5Fspbzol4J4ofs5h1+LH9XcOu15/d8MAAAAAGwupnLFlZtMaNbLfOL1DP7d0qQyRSrKzdm0REdlpOh3g3ih+zmHX4sf1dw67Xn93xSGAAADYUNhjWTfPGNuggWORri171q2TIVJJfr9c/AEUqvzXH8WvcNm1+FH8ncOu19/dMQAAAMBG8lf8JTzvsJqcni4TZbV+ozyb+wEnCGuWdmB69+rV5VJeiCxasYLiVzjsWvwo/s5h1+vvKbgFAAAAG3hAr9ZzdZEijnWXvr34xJIlMlFWS3+KP+AM+a8/WXfp24tPxMfLROktz9xyi+lcbufy49xknNUmb0FQUHJax2WRNjjV/c+P87PaZ2RIEzkpFsW/wNn0+nsaBgAAANhA6fk54y6uGz9elsr90rRePdN5AE9SpmGO10WfceP0bbJC3uH1V9Ds+jg3HufnHHa9/p6KWwAAADAo/3F+clTfJo0GDTKdB/AkVx6nOV/3kAm8/gqaXbd6s9XfOex6/T0dOwAAADDIejavrdeg4cOvPM4PgNPkbcjt47XyhRfUMlVJPvTxMZ3HXdi1+FH8ncOu1x9/4IsGAAAGdKyeumdqUKlSUkmqyL6HH5ZT8q1wxz/gFGFrE1q8F1OypMQpr0tv9+kjIsLrrwDY9B5v7vF3Eptef/xfDAAAADDA+zXvKr61goPlQ52lyxcrZjoP4En0oaJZOcdCQtQpnSU1eP3dKLve4809/s5h1+uPv8cZAAAAmHDe8taj27UzHQPwROqS/ly2Pfig6Ryuzq5bvdnq7xx2vf743xgAAABggDrj6Kqqcdo4YEQ16W+l1qplOobL+u9W78+scUFBdil++Vv9HaGqttU+I4PiX0hsev1xdbgFAAAAE/bqQ/rhatVMxwA80jEZpMbdcouIiFQxHcZ12HWrN1v9ncOu1x/XhgEAAAAmJKtDklqqlNTWIrVNhwE8jENqSdytt4qIyDjTYVyATQ9343A/J7Hp9cf14RYAAABMqK0/kGG+vqZjwMPUkJulZna26Rim6QBJlblam85he5eLn65otclbEBCQlNbxhWj/r74yHevPxd8xIStLmkgrySxXznQut2PT648bww4AAAAATzFZfpSfTp0yHcM0lSZVZcORIyIiUqVGDdN57MauW73Z6u8cdr3+KBjsAAAAAPAUw2WK1Nm3z3QM03Qd9br4Hz1qOoft2PRwNw73cxKbXn8ULHYAAAAAeAgt4i0btm83ncO4ObqR7Ny1S0REvFu3Nh3HNLuu+LLi7xx2vf4oHOwAAAAA8BDqGzVcO1auNJ3DNFVOHZfETz81ncM0uz7HPb/4q2z1ojU3M5MV/8Jh1+uPwsUOAAAAAHfXXy7Jq+fO+X3oE6IfXLHCdBzTLgSIFH8/Kalodbl0rva5czJXfGVc8eKmczmNTU9151R/J7Hp9YdzsAMAAADA3Q1WL0uDjz5aEt9WRcefPWs6jmmZ9QJ29q147lz+34vpPM6Sv+JrzdbeanT79nY51f3PW/0dB1eu5FT/wmHX6w/nYgAAAADgrr5Wj8rES5fy7nOU0l0nTDAdx26sHJmvTr35Zv7fk+k8hcWuW73Z6u8cdr3+MIMBAAAAgJvS7+lPZerkySkpHdZFRXH6/18lHwpoGLHx+++lt3VUmr/9tuk8Bc2uxY/i7xx2vf4wiwEAAACAu3lbDZWlX3yROyDPJ2f66NGm49hdziLrh5zfRo7Us2SDen3bNtN5bphNH+fG4/ycxKbXH/bAAAAAAMBd7JHi0vDnn3M35dxtle7WbcXeTjUHpmVnm45ld/l/T15v5vVWI7p3l6KyUKYdO2Y617Wy6z3e3OPvHHa9/rAXBgAAAACu7nLxVyMc5x1bg4NTewbHR8cfPWo6lqtZPqlTzfDwH36wfpFtqldgoMsMAvqpodLq6FFHC/WjVaV9e7us+LLV3znY6o9rwQAAAADAVeVv9R+b+7b1ZtOmCY/6B4RH7NxpOparS14duC1i5PbtjtvyXnYMbNlShsntsnH7dtO5/ir/lgV9SMT7oRYtElRAr+h487cwUPydg+KP68EAAAAAwFXkn1bvI7G6xxtv5ATkfpLj1bYtK/6FI39HwKmWvvcUmdOsmdTRHeTziRONPTXg8p+rPlXz1I8xMacr+I70O9C8edKzATsH7Nm/3/TfF8XfOSj+uBHKdAAAADxRWFh6+owZWpvOAZvrL5fk1XPn5Kz4qroffpj3sddYq3tMDKf6mxXWLO3A9O7Vq8tRR7Dj1LBh0lpvk9aPPCKnJEvKFytWYH9Qaekgx8+f15XFX256/31rp1e29po40W7Xn+LvHBR/FAQGAAAAGMAAwMPlryDv1zPl1ZMnpZwcl+j9+/VRdVB/t3WrRFhl1a+rVxc56TfYei01dUl8WxUdf/as6dj4ez26r9bTu5cocbFM9luOVzp1kptVsqxt106eUJulTq1aqq94yZkKFfRK3UukcuX8X6faq0Uihw7pBZInJX/5Re6UZ/Wd33yjukprSVq16sJ4GVriodTUzHoBO/tWPHfO9M/5VxR/56D4oyAxAAAAwABPHwAkJgYGRkYqvocALij/cX76Vv21Y0JWFqf6F5LLj/PTFa02eQsCAjjVHwWBMwAAAAAA/CuKv5NQ/FGIGAAAAAAA+EcUfyeh+MMJGAAAAAAA+P9Q/J2E4g8nYgAAAAAA4AqKv5NQ/GEAAwAAAAAAFH9nofjDIAYAAAAAgAej+DsJxR82wAAAAAAA8EAUfyeh+MNGGAAAAAAAHoTi7yQUf9gQAwAAAADAA1D8nYTiDxtjAAAAAAC4MYq/k1D84QIYAAAAAABuiOLvJBR/uBAGAAAAAIAbofg7CcUfLogBAAAAAOAGKP5OQvGHC2MAAAAAALgwir+TUPzhBhgAAAAAAC6I4u8kFH+4EQYAAAAAgAuh+DsJxR9uiAEAAAAA4AIo/k5C8YcbYwAAAAAA2BjF30ko/vAADAAAAAAAG6L4OwnFHx6EAQAAAABgIxR/J6H4wwMxAAAAAABsgOLvJBR/eDAGAAAAAIBBFH8nofgDDAAAAAAAEyj+TkLxB65gAAAAAAA4EcXfSSj+wP+HAQAAAE4Ueix9zMzb/P1N5wDgfCGb0rrGxTVsaK3XVR0HV66k+BcOPVzKyPzffrNma281un17ij/wX96mAwAA4Anyi7+6SzL09oQEaSfNZJHpVACc4c8r/lb7jAxpIifFKlvWdC63c3nFX8ZZbfIWBAUlp3VcFum/ZYvpWICdMAAAAKAQhT2fvnnmujZtZL0c1p2XLfuj+BctajoXgMLHVn8nYas/cNW4BQAAgEJwpfi3ksO6c2qqzBVfGVe8uOlcAAofxd9JKP7ANWMAAABAAaL4A56L4u8kFH/gunELAAAABaBzVtrCGTe3bm01l9n6t5QU1Vu6UPwBz0DxdxKKP3DDGAAAAHADQt/JqDPDv107PV/3lNZJSWqqlJWDxYqZzgWg8P35VH9rbmamaiJlJJPD/Qpa/qn+2k97q9H+/smNO74QzeF+wHVhAAAAwHX474q//kwGJiRIpmRR/K/CKhkrvS5cEBGRSNNhgOvDqf5Owqn+QIFjAAAAwDUIW5t+6/SP27bVcdJT9iQns+J/bfQP8qEMPnlSbpGqprMA14oVf+dgxR8oPAwAAAC4CldW/BvIZ1I8MVGdkiwpT/G/ZqdUPem/d6+IiMw3HQa4Oqz4Owkr/kChYwAAAMD/ELIpMyNuZqtW1r3WMqtyaqrqLV3kYIkSpnO5KvWL3K6iNm8WkZ2mswD/hsP9nITD/QCn4TGAAAD8jc56hZ6hH3zQ8bOVbY1IS6P4FwydrMvryJUrTecA/pc/b/V3HFy5kuJfOPK3+luztbca3b49xR8ofOwAAADgT66s+J+3oqzkpCQ1l8f5FYj71SNS9vffc+fmrs+Zm5kpIjVNRwL+iq3+TsJWf8AYBgAAAMh/i7+611pmVV6xghX/AnbeOiYJs2at2NvJa2BadrbpOMCfsdXfSdjqDxjHAAAA4NHCnk/fPHNdmzbys3XY6pyaKmNZ8S9Q2WqoLD1zJrde7t1W6bfeMh0H+DNO9XcOTvUH7IMzAAAAHin/VH89Vmbr31JSZK74UvwLnj6vGyk1dmxqz+D46PijR03nAUT+W/xVtnrRmpuZqWLkpDxO8S9ofyr+Exz9/f2TGwctCw+n+AMmsQMAAOBRwiplTJ2xt2VL/aa8LpEpKcpPT2KrfyF4VGZJxJo1RZac6lm23Ftvicg8yTAdCp6Oe/ydhHv8AdtSpgMAAOAM+cVf6sosiVyxQvz0JOlWsqTpXO5Gf6yGytIffpAzXkW9/9OyZdIt7TcOqHvsmOlc8Gzc4+8k3OMP2B63AAAA3Fr+4X56r94tu9PSKP6FpJFkSuaBA/KeiPdP/v4Uf9gBj/NzDh7nB7gOL9MBAAAoDJ2HpPeLvalFC/WxzJNTK1ao5TJQKlP8C9weKS4Nf/7ZUTWvjaNEu3aJrwa9+vT8fftMx4Jny1/xV41F5OnMTLVfKkhJin+By9/qv8US653AwORhHadG9ty82XQsAP+MWwAAAG4lv/jrb9Rm1ZgV/0KTX/xD8io4trVtu3xSp5rh4T/8YDoWPBtb/Z2Erf6Ay2IAAABwCxR/J6H4w4Yo/k5C8QdcHgMAAIBLo/g7CcUfNkTxdxKKP+A2OAMAAOCSrhT/e2Sc+nrFCtknDcRRqpTpXO5Gj1V95PWDB70u5g1y1KT4wx4o/k5C8QfcDjsAAAAuJaR32l0zk5o3d7RVn+qGaWmSLLskkeJf0PKLv4qwtlr3t22buCHo9uj4vXtN54Jno/g7CcUfcFsMAAAALoHi7xwUf9gRxd9JKP6A22MAAACwNYq/c1D8YUcUfyeh+AMegwEAAMCWKP7OQfGHHVH8nYTiD3gcBgAAAFvp0iU9PTa2USOriXpElcvMlC/1h/LbTTeZzuV2+qmh0uroUa9X1V2Wb7t2y77xXx599+7dpmPBs1H8nYTiD3gsBgAAAFug+DsJxR82RPF3Eoo/4PEYAAAAjKL4OwnFHzZE8XcSij+AyxgAAACMoPg7SVFZKNOOHfP62nHSWtq2LcUfdkDxdxKKP4C/8DYdAADgWUI2pXWNi2vY0EpXj1hlKP6F5nLxV4fyXlZN2rVb9k1gTYo/TKP4OwnFH8A/cJgOAADwDPnFX2WrF625FP9C85fin7C2U82Iebt2mY4Fz0bxdxKKP4B/wS0AAIBC9dfir2LkpDxetqzpXG6H4g8bovg7CcUfwFViAAAAKBQUfyeh+MOGKP5OQvEHcI24BQAAUKDCHsu6ecbYBg0o/oWM4g8bovg7CcUfwHViBwAAoEDkF38dkZciqVlZFP9CQvGHDVH8nYTiD+AGMQAAANwQir+TUPxhQxR/J6H4AyggPAYQgDE9enxReXKzokUvHfl9dbF7qlWT7t5nZVfVqnqzXqRDKlaUcBmnh5Urp2vIG44a5curR6SffqNcOQlUITK/XDlprn/VSeXK6Tzpos6WK6e85ITs8PO78gesUavk+J9Oma+l50q0r6/MFV8ZV7x4/n+sZ6mhUs+y1Gw5Ij+fOnXlP39Qp8hbWist/5HXT56U12Wn/HDqlPST++Sp06e1lobidfq0PKjGSvHff3cEySW58MsvUkl/JusOH7bmqsX6pePH9Ri10fHOkSPez6qI3H4//5wdeqmFVe6nn1bs7VRzYFp2tunrcL26dElPj41t1Mi6x3pEyl3e6l+eU/0LXD81VFodPWrdrqMdjrZtkxt3qhke/u23pmPBs115nOd6XdWam5mpmkgZyWTwV9D0cCkj83/7TftpbzXa3z+5cccXov23bDGdC4DrYgcAgBv2gF6tR2lv71IDst8qv+vuu9Xdjrlez9WpI49b76ov69SR9ipZJ995pwTL51K0alVpqn6XIlWryjw9SdZWrGg6v7PlDxzkiByWXocPq7PaT3//449SVUqqx/fulSYqWl7bvVslyCxVdvdutTj3E7Vk1656b35Z4/DT+/ePUWPUGGVZpvJfKf5N1COqHI/zKzSXi7/Xq+ouy7ddu2Xf+C+Pvnv3btOx4Nk43NM5/lT8Jzj6+/snNw5aFh5O8Qdw4xgAAPhHHaun7pka5Ofnc847zWda48YySrap3fffL1t0Ux1St64EqBfl1jp15Au9Uj647z75Xk7Inj+twKNgrZKx0uvCBSkij0nlHTv0ZzJC1dm0SUap6frLTZscndVNjrjNm30Tfj95U9ldu5Ys6dmzZ8+8vIL64/O/+DvSHZ9bZbKyKP6FhOIPG6L4OwfFH0BhYwAAeLA/Cn6pUr6/ON7zDm3a1DqlJqioVq1UEVVXzrVsKSt1L3msVSuZKE0koEgR03lxlfrLJXn13DlZKmtl4LZtKkEdUOfWrhWxbrduz8ryDSz9wcX3161bsqT5oSEbLlz4t9+Oe3ydJEnOit8vv+gn9U9597drlzQ7aMgz933zjelY8Gy8/p2Ee/wBOAkDAMCNPT1g01dxM318jr17vLEV3rKllPbqo14MCtI95Wsd3bGj/KInSUrduqZzwslqyM1SMztbqsjncn7dOpmoHHJverp1j56jPkpPT14dsDX81R07Qo+lLZzRvk4d2eu4S51fvZoVv0LC4X6wIVb8nYMVfwDOxgAAcAOdFqd0n969YkWfBJ9JjpSQEF1WpurDHTtKHT1Yne/QQZJllySWKmU6J1yDniV3y4YjR9QyeUIaW5akynDxrlzZdC63Q/GHDVH8nYPiD8AUBgCAC+nRI+3A7MFly2Z/qMJybwoJkaWSqSv06CE/SrI8HhQk6+VWmefN0z0AO7u81T9vvhotC9u3T+kbsDMy8+uvTceCZ2Orv5Ow1R+AYQwAABvq0T0zI25m6dIXH9DP64vdu6sQ/YB81LOnLJJGek27dhR9wAVxjz9siBV/52DFH4BdMAAAbODKY9UeEnHEP/20lJBLescjj/z1efUAXNAwaateOn48b59qpJu0a8eKP+yAFX8nYcUfgM0wAACc6MrK/kuWzrN69VIX5Hb1VVSUTJQD0rRePdP5ABSgy8Vf/ej4VE1o3z7hUf+A8IidO03Hgmej+DsJxR+ATbGFGChEIZvSZ8bF3XOPo7uabsUPGZL9nLXRSn/sMTVGmqg/Hqt3QJqaTgmgQOXf499dNdJN2rdP6eu/MyKCFX+Ylb/V31qvq1pzMzNVEykjmWz1L2h/2urvrUb7+yc37vhCtD9b/QHYBzsAgAIUsikzI25mq1aOMdZIPWrgQDkuS7V/t25SQXZKSy8v0/kAFCJW/GFDrPg7CSv+AFwEAwDgOozSo/Qo7XBsDWuZcUvsQw/JAb1QrRo2TO6Q3tKhcWPT+QA4EcUfNsThfs7B4X4AXA23AADXoHOptOGx0zt02PqJ4yZ1a0yMKL1IRjZs+EfxN50OgFNR/GFDf17xt9pnZEgTOSkWxb/AXV7xl3FWm7wFQUHJaR2XRbLVH4ALYAcA8D/kF3493vG1Y+Trr0uWHqjHN2liOhcAgyj+sCG2+jsJW/0BuDh2AAB/ElYpY+qMvS1byjqZJZFvvqmf0+3E0by5ZOl2erzpdACMqirD5esTJ3QNa5jVsEOHxFaBfaIo/jCMw/2cg8P9ALgLBgDwaMHfrZw3I6lyZe9783aLvPGGHqd/lK6PPirPySSJUuyQASByv3pEyv7+u+Mr/aG+Lyho+S0dA6Om79hhOhY8G1v9nYSt/gDcDAUHHiVkU1LDuLhixdSHvlvz8p59VsZLhLptxAjVW7rIwRIlTOcDYCN/Lv6/+vsvXx4YGBW1ebPpWPBsbPV3Erb6A3BT7ACAR+g8JL1fnKNXL8tbJVnjJ01SP+g09XKVKtJbRA6aTgfAVi5v9beydBV1S4cOiasDAyNHbt9uOhY8G1v9nYOt/gDcHQMAuKVuQal7Zj1bpUpuP6+bcu+bMUN/JFssHRKiRureprMBsDddQ+WpeRkZeam5n1xq/e23IlLTdCZ4Lh7n5xw8zg+Ap+AWALgJrbVWKnRzRsaMGQMGqM1SS3V+801Jll2SWKqU6XQAXJCX3CWP790rd8optfXJJxP/E9goouVnn5mOBc/AVn8nYas/AA/DAAAuLWRT+sy4uHvucVyUsXmPz5olE2WumtuqlelcANzIL1JH1uXl6QSZpdZMnlzkmVLvnq88atSSJc0PDdlw4YLpeHAvrPg7Byv+ADwVAwC4pLBL6fVnju3bV1JknJ4aGytzxVfGFS9uOhcA96c/VkNl6Q8/OIrm7ZCMp55KUB1VpPr0U9O54NpY8XcSVvwBeDgGAHAJocdWNp2145ZbVOe8inl93ntPKuhoHR0cbDoXAM+lZ6mhUs+yHEHyjbSZPPmWxmW/dEx7+eV3ZzVuEh6Rk2M6H1wDK/7OwYo/APyBAQBsLWRTxtjpJwMC1G26r2PQvHlqgHwnzSpVMp0LAP4/P8lCydq0Ka+K1/e6fa9eKSkd1kVF7dtnOhbsiRV/J2HFHwD+D4fpAMCf9ei+eNHiRb6+YUfS98ZunDrVsU2fdLROS6P4A7C9O6S3dGjc2KuF9Z0qt2lTyKb0mbEDunQxHQv28ufH+TkOrlxJ8S8c+Sv+1mztrUa3b0/xB4A/sAMAthC2NrPsO8tvvVU3stb49F6yRPWSw3pyixamcwHADeshopa8+65fwqmTZcOffXZJfM9ePXtdumQ6FpyLFX8nYcUfAP4ndgDAqM5ZaQtn3Ny6tfyiK3vftXkzxR+A21kions8/XR2mzILfotau7azXqFn6KpVTceCc7Di7xys+APA1WEHAIwI3ZyeHhv79NPiI3PU+WnT1Ah5Qor7+JjOBQCF7itZK/6//qoOW2Plru7deYqAe2LF30lY8QeAa8IAAE6Rf2//xellHv/1qVmz1ACdIBP79jWdCwCMqSE3S83sbEmUO3Wt8PDE7wNviqo0f77pWLgxnOrvHJzqDwDXhwEAClVwcHJybOxNN3nt8WnpWPzJJ3KvbNS92rY1nQsA7Eb3k4XSZurUhl3Xzz1aa/DgMWqMGqMsy3QuXB1W/J2EFX8AuCEMAFAoQt/JqDOrZrVqUle3zl2fkqL+I51lyb33ms4FAHanX5HJsio1VeVcPOPb+OGHE1t1Xv/k8DNnTOfC36P4OwnFHwAKBIcAokB1mZF2YEZS06ZqrW6U6/PFFxR/ALg26jUZIu06dZKjRXddevvTTzstTuk+vXvFiqZz4f/icD/n4HA/AChY7ABAgQitmb43dmPHjup+qabS4uPllGRJ+WLFTOeCTQyTtuql48elsgyRmlu3ymw9RVfftk12qixpPWyY6XjG1NEd5POJE+Wi2ibFGzSQrlJHLalfXybKav1G+fKm48EmvOQueXzv3lyVuy1vaYcOqUuDuz/z6E8/mY7lqbjH3zm4xx8ACgcDANyQsBJpDWZmd+smFRwH9T0LF0pt/YEM8/U1nQtO0kIOS7/cXH2PPCQzt2xRN6uWatb69bqX/klfWLvWWuU9VaZu2JByd/t+kaGHDv31l4eFpafPmKG16R/DlMTEwMDISPX/vQ93C0rdM+vZKlXyznqVyDvTrJmeoAJlY8uWskVul2MtW8p53V0fbNBA1sutMs/b2/TPASfZI8Wl4c8/y2zLV9fz909s1bFpVJHvvjMdy1NQ/J2D4g8AhYsBAK5L6KKM8zOH9O6t9utF+rUFCygibi5/BT9G2ojfp5/KJ3JRopOT/fo4JqoKCQlL4v0DwiNOnbrW35YBwN8PAP5NyKakhnFxxYp5WX45ukf79vo7PUm6h4TIOYnRXYODJVWGi3flyqZ/PhSSJDkrfr/8oiyVa6UGBiaogF7R8du2mY7lrrjH30m4xx8AnIIBAK5J2NR035nlBgzQvdTdOmnmTDVAT5LtDs6ScBfb1Nvy7a5d6qSUUUWSkvJWqf6qWnJyo0Zr/Q+Hr19f0KeSMwC4vgHAvwl9Km3ytG/uu09Kqucda0JC1AkZpk6EhupJKlU6NG/O69ZNXC5Mqp2Usy4GBydMDpwX9fv69aZjuQuKv5NQ/AHAqRgA4Kp0rppRZ4b/wIF6hPaXo2+/LYkSKFEFX1zgHPp5SZAeu3crL3lbl5g7V8RRMS/tww8TW/n/9myXw4edlYMBQOEMAP5J8Hcr581IqlzZ68G803LvI4/ICF1bHunfX9IlR/rdc4/pvw9cH71QlkuVs2fVVkmwzoWFJbYKPBz98OrVpnO5Krb6Owdb/QHADAoc/qfOtdNWxg7s318/p1LU6vfeo/i7mBCpJWGnT6sINU22JCRICUv0gQULEk4HToiMWrlSRCmlzBVwBgDOHQD8ky5d0tNjYxs1yusrC9UDffvKLRIpTz76KMXHxZSWDnL8/HlrkGOlo0JgYHJj/4DwiLVrTcdyFaz4Owkr/gBglPEvnrCn0GMZA2PbPfqoiKxW4+fPZ8uwizgr2TLns88kTUaq0Pfes3Zccqhb4uOTG4duCQ8/f950vL9iAGCPAcBf+W/PqLPgaPHiRe/VXufffegh/aPar9s89ZQaqhfL7tatTefDv7hfPSJlf//dytJV1Hdt2yavDtwWMXL7dtOx7IoVf+dgxR8A7MF2XzxhVsim9JmxA7p0cWSJn5q6ZAmH+9lUmKRLrNZSQl6S6JQUXcoxRrd77bWkTv7Tompu2GA63lX/GAwAbDkA+Cdhj2XdPGNsgwbqQ+tJaTB4sG6qB8miPn2kguyUll5epvPhLy4f3ukV7uiZ9+UDDyz7xn959N27d5uOZRes+DsJK/4AYCsu88UThSv0WPqYmbf5+6uJEqLnJSXJ93JC9vj5mc6FP+hZaqjUsyz1lC6uun7yib5F98xdNWZM0uygIc/c9803pvNdLwYArjUA+Kv8wwYdcxzHvPYNH65f1/dIh969GRzaix6r+sjrBw/K53Krd9E2bZKeDdg5YM/+/aZzmULxdxKKPwDYkst+8UTB6DIj7cCMpKZNrfWqsmxdvVpOSZaUL1bMdC6PN0y+koyLF1UHKSo/zpljvanmeZ+bNMndvrgzAHDtAcBfhb6TUWdWzWrVJFI652QNG6Y26CJqUL9+MlGaSECRIqbzeTwvuUse37vX6139guP9Nm2WlQ9aFh5+5IjpWM7CVn/nYKs/ANgb93R7qM56hZ6hq1a1PlUj5cXERIq/TfSRhqKSk/VWtcj7m1q1Ei4GPh+5NTra3Yo/3FP+v9Mk74DxUbdHRnqPz+vpXaVGDZWsVkmV99+/cusKzMiTH2R+9ep5j6tvLUdKSv5ZD6ZjFbb8FX9HqKpttc/IoPgXkssr/jLO+swaFxRE8QcAe2IA4GE6Vk/dMzWoVCnt4wiWexMT5YL0lmduucV0Lo/1kyyUrE2brJEO5VCtWyc+HFg+MiI0lMIPd7A0rVPNAe8cPJhgBcREhvbt68jRz8nrzZrpRXKrGsLz6o3xlrclt0GDIvfoRufmv//+KD1Kj9Lud8grW/2dhK3+AOBS3O4DH3/v6QGbvoqb6ePjs8urp88PS5dKJxkkg+rUMZ3L45yWb9Xgw4f1KBGtw8MbbFs/92j8/ffzuC54guWRQbdHhm7cmFQ0oHb4+VatRCvRVs+e0kgyJfPAAdP5PI3qIb2lVNeuWz5tsati8muvmc5TUCj+TkLxBwCXxADAQxwZ/1tr64XZs6W7xMiQ9u1N5/EYX6tHZeKlSzJM+kvRceMuTFGzi/1Ys2ZSo8DAqKh33x2jxqgxyrJMxwScSymltE5MCgiMil6yxG+n75uW4777ZLYupYa//roeL3PkXE6O6ZSeQr0lB+Xgiy+G9shYNEP362c6z/XKv8ffWq+rOg6uXEnxLxz59/hbs7W3Gt2+PcUfAFyL2xw+hb8Xmpp+V+ye555TMyVWrXzrLdN5PMZkOSI3ff21dVInOE49/jj3Qv49DgF0r0MAC0rnDzIz4mbWqaM/sgZZXvPn529ZN53L3eUPXtRp+dyqEhiY2CrwcPTDq1ebzvVvWPF3Elb8AcAtsAPATXXOSls44+bWraWKNFaJEyeazuP2Wshh6Zebm7+C6ffiqaLlVKNGFP9/kb9DwtPUkJulZna26Rh2lfCof0B4xM6dOXvyEnI+ad5cfarmqR9jYuQXqSPr8vJM53NXaoQ8IcV9fGSxVHB8vnjxlac62BQr/s7Bij8AuBcGAG4mbG1m2XeW33qrPu14XVYvXnzlCx0KR6D4yLxvv1Uz1WTH/FatEisENY84/corS+J79urZywOL7bUK0ZWl0+nTpmM43WT5UX46dcp0DLtbsbdTzYFp2dkJpwMWRsS8+KJVTbdWvVq31pPlVYncs8d0Prf1o8RI7ZtvVlpuz/t10aIe3RcvWrzI19d0rHw8zs85eJwfALgnBgBuIv8Lmm5krfHpvWSJzNOTZG3FiqZzuZ38x5gNU0PVO2+/7fdpqccuqIYNE34M2Bke8eWXpuO5Gt1OPpPq+/aZzuF0w2WK1PHAn/sGJS8M+iEi9Isv9MlLuY64Bg0kTu7Sjd55h8cLFpIsPVCPb9LkYp/SK36t/eabpuNQ/J2D4g8A7o0BgJvIfqd0oxPVJk1SveSwntyihek87kYvlOVS5exZPUpmy9kePRJbBeyM2DV48JIlzQ8N2XDhgul8rko9p1pK6vbtpnM4mxbxlg2e93MXlOTGoVvCw8+fT6wUWD2q6cCBapf85vimd2/pL5fk1XPnTOdzN+o3KSsPP/tsZ0fG8BlJXbs6+8+n+DsHxR8APAMDABcXNiata2y94GBJkVj15DPPmM7jbq5sNR6ka+Td2axZ0qHA05H7P/nEdC63ES0ismqV6RjOpr5Rw7Vj5UrTOdxFwuTAeeHWokXqnMPPMb55c/2xGipLf/jBdC63kSiBEqWUrqt3qafnzHHW2QAUf+eg+AOAZ2EA4KI6Vk/dMzWofHmp49irPpg9O/8Lmulc7kK/IpNlVWqq4y7fLy/q++9Pmh005Jn7vvnGdC534/elzw6rdHKyx6zcXv45/fx8AvTqFStMx3E3+YcH5tbN/STHq2FDaa2GytKEBNO53Mbt8oweWaZMYZ8NkH+qvyNU1bbaZ2RQ/AvJ5VP9ZZz1mTUuKIjiDwCegQGAy9Faa6V8bvYe6ntw7lzu9S8gl+8h1gkSIBFjxjRsuj7t6OLQ0ATVVg1WJ0+ajueulsS3VdHxZ89KecnUBz/+2HSeQjdYvSwNPvroys+NQvHH4YGnTzcYum7H0Yxu3bS/GipLX3uNswIKyOWzAbJXln7jRJE33iio35ZT/Z2DU/0BwLMxAHAxYWcy58zIjIqSCjpaRwcHm87j8vIfx/acXq02de+epAJVpBo9eowao8YoyzIdz1NYvVQ/R5uYmPznkJvOU+AuP+4w7z5HKd11wgTTcTxF/us46dmAnZGZI0boDbqKLHj4YY99/GQB09+qPFX+uedCNmVmxM1s1ep6fx+2+jsHW/0BACIMAFxGyKb0mXFx99wjlfQc1dj8acyuLv9QP+uCI1pVDA5OPBu0NcJv6VLTuTxV8qGAhhEbv/9ebpFaasrbb5vOU9D0e/pTmTp5ckpKh3VRUZz+b0rS7KAhkQ0WL7YWy7PW1tBQj7n1pJCoAXqSbHc4VBlrhBXx3ns9enxReXKzokWv9tdT/J2D4g8A+DMGADY3So/So7TD4bgoY/MenzVL2slIWXT1X7DwF/erR6Ts77/rp3SGkoCA5Fj/DRH3cRibXZyu4DvS78DIkVJLXpPGGzaYznPD3lZDZekXX+QOyPPJmT56tOk4+ENy44CR0WUyMnSc9a21sG1bqSrD5esTJ0znclVqiIyTGTVrZgefCS86ady4f/vfc4+/k3CPPwDgbzAAsLktHVucr3R3RIRMlLlq7vVvsfR0epbcLRuOHNFP5U3VcQ8+mP88cdO58H+tUW1Vf3XxYm7D3ApWTNeuskeKS8Offzad65qdlm/V4MOH83K8npeBPXr8cU96drbpWPi/8u99VlvyFqtzDzygx6o+8vrBg6ZzuSrdUZaIY/Dgf7olIL/461v1144JWVnc419ILhd/XdFqk7cgIIB7/AEAf8ap8TbVeUh6v9ibbrtN3yPj1Ndffy3JsksSS5UyncvleMld8vjevWqpdZcU9fdPUB1VpPrxR9OxcHVCj634KLZd3bpyxOtZ9X1KihqpP5KXq1QxnesfXR5YqBGO846twcH5p9KbjoWrc+Xxdk+K5N6Rmake1pOk2113mc7lcgLFR+Z9++2pKN+2RTY0aFByc3a3S+/WqsVW/8LFVn8AwNVgAGBTYR+nH58xMylJPpItokNCTOdxOZeLf27v3Betvq1bp/YMjo+OP3rUdCxcn06LU7pP716xovcW718cw5ctk13yimxq1sx0rivyt/pvyrnbKt2tG//eXFvX42ld4+IqVcot7thrxX/+OYOA66MjpI5uv2iRlJafVV9/f4p/4aD4AwCuBQMAm+k8JL1fnKNXL71XelvTPeCxaAWtk8RI7qFDKtxaKc+0asWKv3vpWD11z9QgPz/vB72Xe8e8/LIK1veq9s8/L3PFV8YVL+60IPmnyDfQLfRX//lPzva8N3MfHTOGrf7uJTg4q2Vs7J13ep3L6+kY8vnnUkru0W/deqvpXIAIxR8AcH0YANiE//aMOguOFi9eRMvhc02+/db2W53t5itZK/6//qruyntMjW/TJmFtp5oR83btMh0LhevKzoDdPomOt0eOlLr6E6nft2+BDwTyT4s/K76q7ocf5n3sNdbqHhPDqf6eIXhBRp0Z/rVrO+7Ss+XMmjWsZMMkij8A4EYwALCJ0KcyJsZuHzNG/aLrqfUjR5rO4zKy1VBZeuaMo4uVIgM7dFgeGXR7ZOjGjaZjwYwe3Vfr6d1LlLh0+6X+3kuDgy1fOWBNadtWzZaeMqx+fflVysv0atWkmoqQcWXKXPmF+/VMefXkSSknxyV6/359VB3U323dKhFWWfXr6tVFTvoNtl5LTV0S31ZFx589a/rnhBmhqZnPxO5p1kxlW4GqRVaW03eewKNR/AEABYEBgGHdglL3zHq2SpXc8l535Zb/7js5JVlSvlgx07ls7/IWbFVfRUhYWFjCUv9xkVPS003HAuD+Qt/JqDPDv1079aOeJy+mpsr3ckL2+PmZzgU3xan+AIACxGMADcs95DU/t8ebb1L8r46epYZKPcvS2TpbpE8fij8AZ0t6NmBnZOaqVfqUXiNl+/aVMEmXWK1N54J7yV/xt2ZrbzW6fXuKPwCgIDAAMCSkd9pdM5OaN5dBckGie/UyncdVqCTtL+FjxyYdCjwduf+TT0znAeC5kmYHDYlssHixvqAypeLrr5vOAzdxecVfxlmfWeOCgtjqDwAoSAwADFFjHCd0yZgYSZRAiVLcivFv+khDUcnJDZ5c/5+jO8aNMx0HAPI1fGbdjqMZI0fKL2q6mp6SYjoPXBRb/QEATkDxdLLOb2dsmdm0Uye9Sh/X/fmi+K8el21y8PvvVTffYRfHN22aoNqqwerkSdOxAOCvgoOTk2Njb7rJy9fnHtVv40bJkx9kfvXqpnPB5ij+AAAnYgeAk1lVdXXde9Qo0znsTi+U5VLl7Fm9Qvvk9enaleIPwO5SUkJCoqJ+/91rj2Oo9XNYmIRILQk7fdp0LtgUxR8AYAADACfp7MgYPiOpa1c1R76QIk2bms5jW/mHaQ3SNaTKk08mzQ4a8sx933xjOhYAXK1l3/gvj757924VoabJln79OCQQ/wfFHwBgEAOAQjZKj9KjtMOhn5BUqTd6tOk8tnePylR5U6bkH65lOg4AXK8EKyAmMnTZMgmWKP3etGmm88AsTvUHANgBA4BCtjWsZcYtsQ89JL/oSZJSt67pPLYVKD4y79tv/aaU/O18qZdfNh0HAAqKdehST6+tL76oJ8urErlnj+k8cK784q/99ARHf39/TvUHAJjEAKCQ6Sd1c3Vp6FDTOWyrhRyWfrm56k01yNG/X78lS5ofGrLhwgXTsQCgoCQ3Dt0SHn7+vOxxNNV7Hn9cfpE6si4vz3QuFDIe5wcAsCEGAIWks16hZ+gHH+Se//9NF1eTJSwmJuHHgJ3hEV9+aToPABSWpE7+06JqbtigdqnnVeVJk0znQSHhHn8AgI0xACgkepHjhMQ9/7zpHLY1TG6Xjdu3F1lzckS5p8aONR0HAJzlUoXcMZe2jxolqTJFpuzcaToPCgjFHwDgAhgAFLCwtSs2xl68+27dVrWTup06mc5jN3q8zJFzOTmOSXJAN3nyySXxPXv17HXpkulcAOAsK/Z2qjkwLTtbenttlD6PP57/vmg6F64TxR8A4EIYABS0R72eVKHPP68G6Emy3cHf71+o0/K53DxhwvLlgYFRUZs3m84DAKYkvt/hROTIrVvVGLmo+3FLgKvhVH8AgCuioBaQHj3SDsweXLasfKB7SYnHHjOdx270WNVHXj948EJJVa54UEyM6TwAYBd+yne5jnj9dT1L7pYNR46YzoP/jVP9AQCujAFAAbnYX7W9FNm3r0yUJhJQpIjpPLZTSR7RNV56KbNewM6+Fc+dMx0HAOxiSXxbFR1/9qyjvf5Bl37lFdN58A841R8A4Aa8TQdwF+oL2eEIeeopEVmrB5tOYx96lIg8uHlzwwrrphyL+OijJJGpokynAtxT2NqEFu/FlCypDxXNyjkWEqIu6c9l24MPSjXpb6XWqqUrShVVpEIFtVNelZsrV87/dbqOjJMThw6Jpb6TT48dkzm6kezctUuVU8cl8dNP/b702WGVTk7OL6qmf053VX/nF+2OTZk/f+s7LUMq3RwZKVl6oB7fpInpXB6Pe/wBAG6EKnaDOg9J7xd7U4sWeq/0Vq+vW2c6j22ESbrEam3VdwQ5otu0SW7sHxAesXat6ViAO+myO2vetCY1a+ZtyO3jtfKFF9Szqq3kPvKItJORsqho0QL7g0pLBzl+/rx8rurL5x9+KBWtFKv0xImJG4Juj47fu9f034O7CemddtfMpObNHe1VZ/3yunWSKIESpfi8djaKPwDADXELwA3SQ+QLFTBggOkcdqMvqEy1b+FCij9QcHr0+KLy5GZFi3ZukOGY4f3mm3k5eSu8en39tVqmVsuHTz1V4MU/3ynJkvLFikldPUm6DRggvzgaOTZ/803YK2l5M/rExDygV+u5mlufCkrywqAfIkK/+ELuUfsldMkS03k8DsUfAODGWFG4Tj26Z2bEzSxdOruo1d765fDhK1+QPd0w+UoyLl60ijiaOgLvvvuPAcCBA6ZjAa4srFnagendq1eXTSrC8fXSpdJJBsmgOnVM57qighoqwTt2OMrkfuJY0a3b8kmdaoaH//CD6ViurrNeoWfoqlX1UMcWWfXtt/K9nJA9fn6mc7krDvcDAHgCdgBcp0t+uqY1uEcPiv//pTpIUflxzhyKP3Djwh7LunnG2AYN5A410rF77VrbFf98v+hJklK3rvWz1+vW1HXrQtqm1585tl4907FcXYLqqCLVjz9KfTmhXps/33Qet8XhfgAAD8IA4DrpivpXebRnT9M5bOMXqSPr8vLUM3mhjojJk03HAVxZyKa0rnFxDRvqiLwUSc3KkgvSW5655RbTuf7V5ZyOClJfL0pP7zI0dU9c3F13mY7l6vI+9hprdY+JkRZyWPrl5prO4zbY6g8A8EAMAK5RyKbVOm7mzTdLedkhU9u2NZ3HLtRGNUV6ffQRW3+B69dZZyya3r1+fUeoqm21z8hQMXJSHi9b1nSua3Z5EGBFeK23Si9fnn92gelYriolpcO6qKh9++RD2StfxcebzuPyKP4AAA/GAOAaOS5mv6e9u3eX9XKrzPPmMYqXT/vPnSepMnXiRNNxAFeUv+JvrddVHQdXrpQm0koyy5UzneuGDZFK8nvt2tk1Tx0oeufo0abjuDqdZd2nR7/xRv77ruk8LofiDwAAA4BrpS86EvS3vXqZzmEbT0gPdS4hIaVvwM7IzK+/Nh0HcCX5xV9lqxetuZmZLrvi/28WOirKF889d+UwQ1yXpFs69olatWOHzFZ7lU5NNZ3HZVD8AQC4ggHAVeq0OKX79O4VK6oROk6Otm5tOo9dWI/oR2UKK//AtXCbrf5Xq7b+QIb5+spRR7Dj1LBhpuO4Oj1S3W4tHT/edA7bo/gDAPD/YQBwlXwSfCY5UkJCpILslJZeXqbzGHdWsmXOZ59deV41gH+VX/z1rfprx4SsLLfZ6n+1Wutt0vqRR3p0X62ndy9RwnQcV5XUyX9aVM0NG/QiuVUNWb/edB67yX+cnzVbe6vR7dtT/AEA+C8GAFdJl5Wp+nDHjqZz2IXepjOl/uzZpnMArsBt7/G/Vpcfm3qxTPZbjlc6dTIdx9Wpp+UD/dJ775nOYRudJEZyDx1y7HeccvR78EEe5wcAwP+PAcC/eHrApq/iZvr46Od0TfVG+/am8xgXIrUk7PRpnZGzztH4k09MxwHszGPu8b9WN6tkWduunekYrs7vgu8Ea8fixZKthsrSM2dM5zGugjouD3p5JTzawf/pcM6kAQDg7zAA+BfH3j3e2Apv2VINlmpSrXRp03mMKyq71GMff5zcOHRLePj586bjAHbkcff4XyO1UZ6TBffeazqHq1sS31ZFx589q0dKTVWExwPKPD1J1las2PmDrMx342rXNh0HAAA7YgDwL/QIZckjbP3Pp8s5kqyZc+eazgHYkcff43+1omW3BFSqZDqGu3BcsLrrL3hfzmfFWR/ppYGBpnMAAGBHDAD+TYwKlS0MAOQX1VuqfPddUqcO70TW+PJL03EAO6H4X6N31QeysWJF0zHcRUKHoN6RJz7/XALFR+Z9+63pPKapjWozAwAAAP4eA4B/0LF66p6pQeXLy0y5R3zYSiiT9FHt/957IkoppbXpOIAdUPyv00M6VebxPlLgEtUgdduCBaZjGLdS95LHWrX643Pcz890HAAA7IQBwD/wnu/Y4+vTooUkSqBEKWU6jzFhki6xWos4Kualffih6TiAHVD8b9AcVU+2HDliOoa78Va5n3hVev/9/75ve6iJ0kQCihTx+tjnR78uTZqYjgMAgJ0wAPgHjmccYXpFq1amcxh3Xn2nDm/alNjK/7dnuxw+bDoOYBLFv4AM0e0k5OhR0zHczdK0TjUHvHPwoCyVFTJw2zbTeUxzvKKf11mtW5vOAQCAnTAA+Af6E7lP2rZsaTqHccX03frWlBTTMQCT8h/nZ63XVR0HV66k+N8Y3U3do3/evdt0Drf1o4xQ23nfllf1q3oaAwAAAP6MAcBfXLlncLqeJy82bGg6j2k63qpkTU5NNZ0DMCG/+Kts9aI1NzOTx/kVDNVVWkvSqlWmc7grPcnxhTWQAYDskuaS17LlKD1Kj9IOvu8AACAMAP4/Pue803ymNW4s38sJ2ePBhwf1U0Ol1dGjSWlBQ6M6bNpkOg7gTPlb/R2hqrbVPiOD4l9ASksHOX7+vJ+fT4BevWKF6TjuqmHHte8cq7FxoxSVhTLt2DHTeYxJll2SWKrUjtqtulbYc/fdpuMAAGAHDAD+apRsU7vvv990DONidbJsT03l1H94Eu7xL1x6rhql+y1YsCS+rYqOP3vWdB53NUaNUWOUZUlpaSZfp6WZzmNa7pG82xyTGjc2nQMAADtgAPBXW3RTHVK3rukYpqlVKlZKJyebzgE4A/f4F7Kv1aMy8dIlq7NjtSS/+abpOB7jiKqmY7kVQNWUFyS1USPTOQAAsAMGAH91UKbIbM8dAOjxMkfO5eTozy587rsrK8t0HqAwcY+/c6gT0kH1fOutlJQO66Ki9u0zncdT+Pkp5eWVkSEt5LD0y801nccUvVqdUr/xOEAAAEQYAFzxgF6tR2lvb7lXPpA7a9UynceYfTJLvLZuTWzVef2Tw8+cMR0HKAzc4+8kqTJFpuzc6RtY8rPza8aMMR3H0yyJ9w8Ijzh1SqqrwXLnjh2m8xhjSaxeXLeuiNZaK2U6DgAAJjEAuKzE+zl1Kwbcc4+nH/6n+ksbfefataZzAIWBrf5OcvkQ0bxAr1N6YJcuS5Y0PzRkw4ULpmN5Ku3QXSTLc9/XVW/pIgdLlOjULfWT6R/efrvpPAAAmMQA4DJvh5WiX/Hcrf9X5GjlCFq3znQMoCCx1d859HApI/N/+011lRHWmI4d2fJvE6m6rlzifd2njc+d3lPvu890DgAATGIAcJkOkEOOML4Y5G32GaQzvvzSdA6gILDV30kOyDQ19uRJGWd9Zo0LCkpQAb2i47dtMx0Lf9ARXrUdX27YYDqHaTpG1uqPatc2nQMAAJMYAORrr5J18p13mo5hTJKcFb9ffkm5u32/yNBDh0zHAW4Ej/NzksvFX1e02uQtCAhISuv4QrT/V1+ZjoX/K7mxf0B4xIEDUlWGy9cnTpjOY8xXerq8cu+9pmMAAGASA4B8R+Q2CaxWzXQMU/RReUyKbN1qOgdwIyj+TkLxd00+8p5c8uD3+b7ypuzz4EE/AADCAOC/2ssGubNqVdMxTHHUUJ3VdrbswjVR/J2E4u/aiuj6cs6DBwCHpaxM89xBPwAAIiIe/zickE1JDePiihVzbPN90Jp29qwkSqBE8ZggZ9HjZY6cy8lRp+V9Nf7kSdmiuorXjz/KZDmgG27bJtEiIqtWSfMLJX07pKTweML/rWP11D1Tg0qV8n7Nu4pvreBgOW9569Ht2qkzjq6qWr160lAvk7yqVXUpeUyPKFNGjZAnpLiPj+ncsLf8w/20n57g6O/vn9w4aFl4+JYtpnPZDa8/e9Oz1FCpZ1lFok+OKPdz0aJL4nv26tnr0iXTuQAAcCaPL7pd78vsMv27e+/Nu8uKdKzatct0HvyD0tJBjp8/L+EyWA9buNDqpfo52sTEJB8KaBix8fvvTcczpcvurHnTmtSsaT2b19Zr0PDhUkmqyL6HH5ZTkiXlixUznQ+ujeL/v/H6c03WZlVeza1Z09M/PwAAnsnjbwGwBuiRXo+xJdD28r9QT5RgNffJJ9UKHaN7fvNN6LH0MTNvmzjxAb1az9VFipiOWdh69Pii8uRmRYuGzcsYO2PtpElWQp72+uybb6SYfCtnnniC4oGCQPH/e7z+3IN6UR7XpW+7zXQOAABM8DYdwDTLSx6XPpUqKZFJprPg6v1566x++YUXSte69MDFTa1bdz2e1jUurlu3ZeWDloWHHzliOmdBCamcsWVm0xo1st84vUM/t3SpDJFKsvPy46x2mk4Hd0Hx/3u8/txMBflS1bnlFhEpJpmmwwAA4FwevwNAvS4DdAiHhbm8XfKKbGrWLPeQ4zNr/MaNocdWfBTbrm5d07FuVNhjWTfPGNuggWORri171q2TIVJJfuc51ihYFP+/x+vPPTnm6y26V8WKpnMAAGCCxw8A5AkrWkYyAHAXaqT+SF6uUkWOeD2rvk9J6bQ4pfv07q73RS9/xVHC8w6ryenpMlFW6zfKlzedC+6F4v/3eP25N91AN5cprve5AABAQWAA8KU6KJ1uvtl0DBSs/EGA9xbvXxzDly3743RuPz/Tuf5N/lkGjkW6qL5vyRKKBwrF5cf5yTjrM2tcUBDF/w/59/g71ugdesjSpbz+3JMe6CguSQwAAACeiQFAoAqR+ewAcFuXbw3wftB7uXfMyy+bjvNvSs/PGXdx3fjxMlEOSNN69UzngXvJX/G3ZmtvNbp9+6S0ji9E+3/1lelcdpEdfCa86KRx49jq795UfV1RtpYpYzoHAAAmMABorn/VSQwA3N4UvV8dGDLErrcE5D9OTI7q26TRoEGm88C9sNX/f+P151n0+6qOzCxVynQOAABMYADQR9VTw8uWNR0DhUv1li5ysEQJ790+iY63R440neevrjxHfL3cKvO8Pf7pHCgYFP+rw+vPs6iT8rl8yAAAAOCZGAB8pEtKZ/d/fjwuq6s/kfp9+4atTWjxXkzJkqbj/HE2QalSUkmqyL6HHzadB26Ce/yvCq8/D/Wh3iQ/MAAAAHgmBgBPycD858nDA8wVXxlXvLhaWqRm7kudOpmO4/2adxXfWsHBckqypHyxYqbzwLVxj/+14fXnoXxlvDQxPwAGAMAEBgDfyTH5xv6nw6Ng6QbSWz/Yrp3pHHLe8tajbZADLo2t/teJ159H0gMlUkoy+AcAeCaPHwDovXJcvmUA4HG+kdd0TN26pmOoM46uqhqn/eM6sdX/hvD680xqrHqKAQAAwFN5/ABAjZYBUoIvAh4nRgbJzjvvNB1D9upD+uFq1UzHgGthq38B4fXnmV7VvfjcBwB4Ko8fAMj3ckz2sAPA4wyRqnJH6dKmY0iyOiSpHEaFq8SKf8Hi9eeZhsoTnP0DAPBUDAAAwO4uF39d0WqTtyAggBV/AAAAXA8GADXkFqmZnW06BpxssvwoP506ZTqGhOjK0un0adMxYE9s9S9kvP48E5/7AAAP5vEDAD1aZsnZnBzTOeBkw2WK1Nm3z3QMqa4qq4/37zcdAzbDVn/n4PXnme5Rt8jdDAAAAJ7J4wcAqrqUl3v4IuBptIi3bNi+3XQOmSwHdMNt20zHgD2w4u9kvP480w4dImMvXTIdAwAAEzx+ACB3yy1yHwMAT6O+UcO1Y+VK0zkkWkRk1SrTMWBWfvHXfnqCo7+/Pyv+TsLrzzPVkpvZAQAA8FQMAGbLVDnHLQAeo79cklfPnfPz8wnQq1esMB3H70ufHVbp5OT8XKbzwMnY6m8Urz8PVVvKy70MAAAAnokBQLrMVREXLpiOAScZrF6WBh99tCS+rYqOP3vWdJwrOcpLpj748cem88A52OpvD7z+PFQvWSOfXLxoOgYAACYwAAiUGtaO3383HQOF7Gv1qEy8dCnvPkcp3XXCBNNx/srqpfo52sTE6PEyhx0p7out/vbE68/DtJEIKcnnPgDAMzEA+EKVU6G//mo6BgqXfk9/KlMnT05J6bAuKsoGp///RfKhgIYRG7//Xm6RWmrK22+bzoOCRfG3N15/nkWvkKXSnc99AIBnYgDQXLfVSSdOmI6BQvK2GipLv/gid0CeT8700aNNx/k3pyv4jvQ7MHKk1JLXpPGGDabz4AZxj79L4fXnGdRi6a3Sjx83nQMAABMYAKzQb6knWAlwO6flWzX48OG8HK/nZWCPHiv2dqo5MM3+hz6tUW1Vf3XxYm7D3ApWTNeuskeKS8OffzadC9focvHXFa02eQsCArjH3zXw+vMQyyXWWsznPgDAMzEAmOOYLmP5IuA2Ln9hV0857lVvBwWl3N2+X2TooUOmY12r1J7B8dHxR4/qNdYB/VJIiB6r+sjrBw+azoV/UVQWyrRjx6SO1xc6sl07ir9r4vXn3vQvcpOjz2+/mc4BAIAJHj8A0C/LLJXMAMDl5W/1H5v7tvVm06YJj/oHhEfs3Gk61o1KuqVjn6hVO3bk7clpa93fpAlbk+1Jz5IN6vVt2/LOen2vo1u0SHy/w4nIkVu3ms6FG5P/+svtnvtFzn0NG8pZyZY5n31mOhduUEXVUadz6x8AwDN5/ADAkSfz5aMjR0znwDW6fKq/+Eis7vHGGzkBuZ/keLVtm79yZzpeQcv/uXLi82bnvPrgg7qC2q5bjB3L88sNufzvTw+WKlJlwoQ/7h1v3tyuh0zixvxxC9Hx4zkH8u7JKRcQwOvPtTny1NfyHJ/7AADPpEwHMK3rfZldpn937715d1mRjlW7dpnOg3+Q/0X7rPiquh9+mPex11ire0yMpxeuTotTuk/vXrGi926fRMfbI0dKXf2J1O/bV+aKr4wrXtx0Prfxl39/ju151VSviROXT+pUMzz8hx9Mx4MZvP5c1DDrJt3/nnsSW3VsGlXku+9MxwEAwJk8fgAQsimpYVxcsWKObb4PWtPOnpVECZQo5fF/L06Tv5K/X8+UV0+elHJyXKL379dH1UH93datEmGVVb+uXl3kpN9g67XU1CXxbVV0/NmzpmPbVY/uq/X07iVKXLr9Un/vpcHBlq8csKa0batmS08ZVr++/CrlZXq1alJNRci4MmWktv5Ahvn6ms5tzFX++7v4rGNu8UopKZn1Anb2rciKL/4erz9707PUUKlnWacr+Owo0rx48fxDH03nAgDAmSi6l4X1Su83476jR+WC9JZnbrnFdB6nq6M7yOcTJya+FuQV+dHw4abjAAAKVuix9DEzb5s4UQ2QZvrlF14wncfpOkmM5B46lBgRuCry2SpVTMcBAMAEjz8D4Ipqsk/m7d9vOoYxT6lBam/9+qZjAAAKh7pdxevdDRqYzmFMbflWD/Dgz3kAAIQBwH+lSGu58OOPpmMY85as1U0aNjQdAwBQSMK1lwz33EGvaqMeU5kMAAAAno0BwGX6aZUo4zz4MK8fJUZq33xzt6DUPbPYGgkAbqNTt5T4aR/ccUf++7zpPKZYeXqChHjuobEAAIgwALhCXRQR+fpr0zlMyzvrVSLvTLNmpnMAAAqGd3OfMV7zmzc3ncO4KlJa7ty503QMAABMYgBwmUrI/URV3rHDdA7T9AQVKBtbtjSdAwBQQHbIvdKa93Ut6lNVns95AIBnYwBw2cnPi9Y4MnfPHhkmX0mGBz8WaIvcLsf4oggAbuNXvVMqefD7+ioZK70uXCja4uTeskO5BQAA4NkYAFy2RrVVY1RurhxVk2TDrl2m8xhzXnfXBxs06Fg9dc/UoFKlTMcBAFyfznq1fkuXKSO/yUpZU7eu6TzGvK7KqBpff71kSc+ePXvm5ZmOAwCASQwA/qqZvkXaePAWwfVyq8zz9va+4NXY5zt/f9NxAADX6flL/Yt5BQZKBdkpLb28TMcxpqG+yzrkwZ/rAAD8CQOAv1BPy3syhC8Kslj5q9rBwaZjAACujzVcfWwV79TJdA7jPlT9HG04/A8AABEGAP+/e2S2DvryS9MxTFOtdB/dNTh4lB6lR2kH/04AwEXkv2+rivpDmRIUZDqPaWqFPK6e2LDBdA4AAOyAYvcXlxLzXs69f/Nmjz8MMFRKSHaFCls6NptUIatRI9NxAABXZ3Of5tUrJd9/f/77uOk8xlw+/M+38ckRN920davpOAAA2AEDgL9YsbdTzYFp2dkSJ2ekwebNpvMYt8Ix1NGBWwEAwFWoFo5ieirv23q5Kiuvf/nlkvievXr2unTJdB4AAOyAAcA/uV2/Lt+uW2c6hnFbJEO+DQkxHQMAcHVUA71YqvC+LbvlR9nO5zgAAH/GAOCfdPQqr+fwxUFtlXTp2bBh8Hcr581IqlzZdB4AwN/rPCS9X+xNt90m38os2eTBj/27zJEn89Wp9etN5wAAwE4YAPwDq4j3r17z1q+XMEmXWK1N5zEmUQIlSinHzNz++udHHzUdBwDw96wGqp/yeuyx/Pdt03lM0bPUUKlnWTLIp8GFLxkAAADwZwwA/kFy47YqPOLECblHBkhjHgso0dJERT3xhIjWWnvuF0sAsJ8/3pfVUl1FDvTvbzqNaWqR3K5CN29OUG3VYHXypOk8AADYCQOAf6FzxJJuK1aYzmGaGiLjZEbNmp2HZPSfUbZ5c9N5AAB/CG2ceXxG7zZtJE9+kPnVq5vOY5reIQ9Yq/jcBgDg7zAA+BcqWS6qsnyRyGfV0e+qn1hhAgC7UA31UrWQ9+V8+pwV5ziQlmY6BwAAdsQA4F+cmuTb8EiL9evlgExTY9lKKD3VIFnz8MM9uq/W07uXKGE6DgB4qvz3Yf2WbJfkhx4ynce4+9UjUvb334vmnn6j7IWNG03HAQDAjhgA/Is1qq0ao3JzJUGt0qkrV5rOY5rqLV3kYIkSF1XOYseS7t1N5wEAT3XJL+cnR8rDD+e/L5vOY9zHOlwqpacvWdKzZ8+eeXmm4wAAYEcMAK6STpQ71RpuBcinBunBOvvJJ03nAABPpW/TfeUz3oevuChDdQ22/gMA8L8wALhKuVNyP7mUlpgoLeSw9MvNNZ3HuIkyV81t1SqsUsbUGXtbtjQdBwA8ReestIUzbm7dWnbJK7KpWTPTeYy7/Lmco/OO5/ZPTTUdBwAAO2MAcJVW7O1Uc2Da8eMyRKZI3TVrTOexC/22Pis1hw83nQMAPIUuorzk65deMp3DNraogXJbVtaVz2kAAPCPGABcI71TYvTgxYtN57ALdUZOyH0hIZ0/yMyIm1mnjuk8AOCuQtqm1585tl49+VY2iH9QkOk8dqF2Wct1Hz6XAQC4GgwArpHWvgFejqVL9XiZI+dyckznMS5RAiVKKR1h+Vrb2QkAAIVFvSCp1sMvvZT/vms6j2n5n8O+90oNX6+EBNN5AABwBQwArlFy47YqPOLECblFkuTWVatM57GN2lJTzjz8cFiztAPTu1evbjoOALiLLkNT98TF3XWXGiuixvL0lXxql0yTEunpS5YE3f7UW7/9ZjoPAACugAHAdXK010l6w6JFpnPYRgXZKS29vPSDqp/jgaFDTccBAHdhxXs/ZMUPH57/Pms6j13oKD1WNrP1HwCAa8EA4Dpdumjdlrvnk0+kv1ySV8+dM53HLlSOvCm1+vXrrFfoGbpqVdN5AMBVhb6TUWdWzWrV5CE9T17s29d0HtvIVkNl6ZkzRdr5TbV+X7bMdBwAAFwJA4Dr9Mdpw6dP6wpqnmrOCsQV38sJ2ePnp9d5dZNXYmJMxwEAV6X2iH/Ol5Mm5b+vms5jG4/qSSpv4cIl8W1VdPzZs6bjAADgShgA3CA9zdomT8+aZTqH7UzUEXJbz55hz6dvnrmuTRvTcQDAVYRVypg6Y2/LllJPi2rTtavpPHajP7R25L00e7bpHAAAuCIGADcoeWHQDxGhX3whw+R22bh9u+k8trNbHtW73n57lB6lR2kH/94A4B/kv0/qZH235EyZwmn/f1FBDZXgHTuS0jq+EO3/1Vem4wAA4IooZAXlQ3VBfTN3rukYtuMtb0tugwbb6jRfdcugxx83HQcA7Grboy1/qljsiSfUGBH5tFEj03ls5y15Tn/77rumYwAA4MoYABQQvxPWzd4t339fVslY6XXhguk8dmOtVHepU6+91qP7aj29e4kSpvMAgF10rJ66Z2pQqVL6IQmVjePGmc5jO6Wlgxw/f16V8Hki2//DD03HAQDAlTEAKCBXnkM8Q0aq7u+/bzqP3agB8p00q1TpYvSlXY7HX3nFdB4AsAvvdV4Lfb8ZMULm6UmytmJF03lsp7oqKk/Mn5+g2qrB6uRJ03EAAHBlDAAKmKOx15HcM//5j56lhko9yzKdx27Ul7JROgwdGhq04s3pmU2amM4DAKaEbErrGhfXsKEck1160HPPmc5jN/mfo9a7skF1e+st03kAAHAHDAAK2PJ7O/R75qs9e1R9fUYqJCebzmM76+VWmeftLS859jsazJ//gF6t5+oiRUzHAgBn+WPLv5+fI0F9oP+zYIEaIU9IcR8f07nsRl2UfVJ02bLkQwENIzZ+/73pPAAAuAMGAIWlj3yijv3nP6Zj2JX6j3SWJffeW3pEtnXxkTFjTOcBAGfx+dWrp3fk66/LdlmrB993n+k8dmW9aFVUB/kcBQCgIDEAKCSJ/wlsFNHys8+klrwmjTdsMJ3HrvRAR315ZujQzllpC2fc3Lq16TwAUFg6D0nvF3tTixZyt6SqJYMGmc5jW8Okv+6/du2Vx+wCAIACwwCgkOn3ZZv0nDTJdA67UgP0JNnucOhT6oCEv/deyKakhnFxxYqZzgUABcV/e0adBUeLF9f7ZYQ6NH++VJCd0tLLy3Qu+3JcFHnzTdMpAABwRwwAClnSoYBTEfuWLtWzZIN6fds203lsa77Ulyo1ajim+FW3jsXEmI4DAAWl2P2637mOEydKnvwg86tXN53Htn6ShZK1aVNiqw6/RvolJZmOAwCAO2IAUOiUUkpr9b1jivX9qFGm09jeKf2klH/mmbA3M+rM8H/4YdNxAOB6hS7KOD9zSO/eOkBqy9NRUabz2J2+ICP08JEj8z83TecBAMAdMQBwksRW/r9FFUlMlPWyX4Z8+aXpPLY3RpeSRXPmXHlMFgC4iNBjKz6KbVe3rvLVK/WCWbNM57E7vUhuVUPWr0/aE1g9qumKFabzAADgzhgAOFt13Ul9N3q06Ri2105GyqKiRR3t1ULr908+Cdm0WsfNvPlm07EA4J/06JF2YPbgsmWlpNcbymvpUpkrvjKueHHTuWxvtuqjW736qukYAAB4AgYATpa4Iej2iNvT0vJPOTadx/YekDVSumpVx8ScUtaI998fpUfpUdrBv1sAttGjx+LFixd7eWVPVBNz1y1cqB7Wk6TbXXeZzmV3eqCaJj98+mnSswE7IzNXrTKdBwAAT0CRMkSfdnSTAy+8IGGSLrHc6/ivLup4GRcUtPV48w2VSo8bZzoOAOS7lF5m2W+bX3tNBkmo7h8QYDqP3elZaqjUsyyv763p8sDw4abzAADgSRgAGJLUyX9aVM0NG+Q5CZNWH31kOo/LSFRL9B0vvdR5SHq/OEevXqbjAPBcnT9IOxD7aZ8+erKupFOHDTOdx1WoHH1JpixYsDwy6PbI0I0bTecBAMCTMAAwLG+z94/Safhw6S+X5NVz50znsb1ECZQopax+csGa+P77oTXT98Zu7NjRdCwAnqNzqbThsdM7dNBb1XGVN2dO/vuS6Vy2l62GytIzZ7z8dC1Hu5dfNh0HAABPxBcWmwjdkfHYjEmvvqpG6Eel+NixpvO4jMuDE2uxfk7N9fdPXhj0Q0ToF1+YjgUzOlZP3TM1qFQp79e8q/jWCg6W85a3Ht2unTrj6Kqq1asnDfUyyataVZeSx/SIMmXyf506Le+r8SdPyhbVVbx+/FEmywHdcNs2iRYRWbVKml8o6dshJSWxVef1Tw4/c8b0zwkzOg9J7xd7U4sW+ri8pwZnZsopyZLyxYqZzuUy5sl+2f/SS4llAyMiJ06YYDoOAACeiAGATfTo8UXlyc2KFs1+/Uydol/s3i3P68Ey8447TOdyGferR6Ts77+rO9RHjt8feCDhUf+A8IidO03HQuHqsjtr3rQmNWtaz+a19Ro0fLhUkiqy7+GHC7yYlZYOcvz8eQmXwXrYwoVWL9XP0SYmJvlQQMOIjd9/b/rvAYXrymP9ZnsNVOGffipf6g/lt5tuMp3LZQyT9+Tuffty+uWNz5lYq9aKvZ1qDkzLzjYdCwAAT8QAwGZCK6eXmlHtoYdUI1kiw+LjTedxNXqW3C0bjhyxnvB6RN/fqlVKSod1UVH79pnOhYJxZVAWfCa86KRx4+Sovk0aDRok6+VWmeft7awcerzMkXM5OXKL1FJT3n77dAXfkX4HRo5co9qq/uriRdN/TygYXYam7omLu+uuvBe8fK31n3+uBsh30qxSJdO5XI0aoYaqXmFhCU0DdkaUTUoynQcAAE/GAMCmwqz0L2beuWyZdJHT+oUuXUzncTX6YzVUlv7wg9qiDuVGt2mT2Mr/t2e7HD5sOheuT0jljC0zm9ao4Vijd+ghS5fKEKkkv9eubTrXFbXkNWm8YYPX87qcY0u3bsvKBy0LDz9yxHQsXJ+wtZll31l+660iVgfvUp9/LhPlSfnuzjtN53I5w9RM+Xnx4sRWAcsiX+fQVgAA7IBDAO1qvSM4Z3J0tH5L9sv+U6dMx3E1+c/h1g11Ze/pn30WHJzVMjaWL/CuJuyxrJtnjG3QwLFI15Y969bZrvjn2yWvyKZmzXIPOT6zxm/cmL9l3HQsXJv8FX+K/w26fEtW7uEcL2vPoEGm4wAAgP9iB4DNhW5OT4+NffppNUZEqbg403lcVf6tAY5Mxx5H88BAzgiwtysr/vnFf6Ks1m+UL28619XSY1Ufef3gwbw9OW2t+5s0Se0ZHB8df/So6Vz4e/8d2DhaqNvS0tjqf4NKyyo5/uSTie8HxkSOnDPHdBwAAPBfDABsT2utlQq7lNFgZs3MTOkuMTKkfXvTqVzWAZmmxp48KceUv/48JCTxSMDAyOrr1pmOhT88oFfrubpIkdLrLn178YkNG2SiHJCm9eqZznW99CgReXDz5iITSj1xoX/r1kuWND80ZMOFC6Zz4Q9dZqQdmJHUtKk1Vs2Se1NTpYm0ksxy5UznclV6oJomP3z6aVIH/8SIN9u1E1FKKa1N5wIAAP/FLQC298cXKMcPXs/llYmKunIaOa7P7fKMHlmmjMTqatIsPT1kU8bY6ScDAkzHwh9Kz88Zd3Hd+PGuXvzzqTEi8mmjRhdLnxlUJO7FF03nwR9Ca6bvjd3YsaO1XlWWratXU/xv0OXHsaoR1nTrxwEDKP4AANgXAwAXsfzeDv2e+WrPHnWfipJKQ4aYzuPy5oqvjCte3NFT3nE0SErqPCS9X5yDQ6pMyX+c35VT/d3NFL1fHRgypNPilO7Tu1esaDqOp+r8QdqB2E/79JF4eUV9lpBQ4I+L9FAqXtWRc889l7gh6Pbo+L17TecBAAD/jAGAi0l4MSAuckBcnHwl4eKfmGg6j8urrT+QYb6+upaUte5buDDsl7QvZpZ67bVRepQepR28PpzEejavrdeg4cOd/Tg/Z1G9pYscLFHCe7dPouPtkSNN5/EUPXosXrx4sZdX51IZvWcOnzBBX1Rvq2c/+ECNkCekuI+P6Xwu7w6Vrh9eujThw4CqkRdmzzYdBwAA/DsKjouyknz3O7KefDL/cDvTeVxeogRKlFLylDqtY15+eWuvlqUqlk9JCQ5OTo6Nvekm0/HcVcfqqXumBpUqJZWkiux7+GHTeQpdXf2J1O/bN2xtQov3YkqWNB3HXfXokXZg9uCyZbMnlv7st0mpqfpB3U9XHT78yuscN6aTxEjuoUOOKEddK+Dpp03HAQAAV48BgItKbtxWhUecOOGIdLwnZfr3lzBJl1juuSwwF3W8jAsKcizxfUkt++qrzh9kZsTNrFPHdCx34/2adxXfWsHBHrMV+/KtJ2ppkZq5L3XqZDqOuwlpm15/5th69bJvVuty5mzaJIMkVPfnjI+ComepoVLPsqwdjvOq3eOP/3Fr2q+/ms4FAACuHgMAF5ew1H9c5JT0dHlBVunxb71lOo+7UQ/rSdLtrrt0cSvbGvHFF5wVUMDOW956dLt2pmM4m24gvfWDnvdzF5b8e/sdVWSzlvXr5ZCUlQnVqpnO5W4cNaS2SnjzzeRY/w0R961caToPAAC4dgwA3ETF7uVmeR158UU5K9ky57PPTOdxO5dXbq+cFfBYRs8ZY995J2RTUsO4OA9YuS4k6oyjq6rm+qf9X7PBsl9/4YE/dwHx355RZ8HR4sU7F0n/z4wG06frxWq32v3hhx6zk8TZ2spuqbJq1clTPh8dmTBihOk4AADg+jEAcBPvzmrcJDwiJyc3IneBdUevXnJavlWDDx82ncvt5N9DfEo/KeWfecbxk28v68C2bZ2HpPeLvalFC9PxXM5efUg/7IErtb9KeZnugT/3DQrZlJkRN7NVq6Kj9bJzpbZt0wFSW56OijKdy23tkeLS8Oefc6bndcqZ/vDDa1RbNUbl5pqOBQAArh8DADeT2jM4Pjr+6FE9zPG9teOhh+Rr9ahMvHTJdC63NV/qS5UaNazharNK+fzzsPfT02e2i4tjZ8BVSlaHJLVUKdMxnG6IVJU7Spc2HcPuHtCr9VxdpEj+Kf6OZ6za1tpPP5U8+UHmV69uOp/bqiE3S83sbMcgfbv80r37ir2dag5MO37cdCwAAHDjGAC4qaRO/tOiam7YINtlgo4bMsR0HnenBuhJst3hkCUiusfTTzu6+d1i7frqq7C1mWVnzm7c2HQ+27r8GEbTMZzuezkhe/z8TMewqy4z0g7MSGratNRnl6Iv/rply5VT/CvITmnp5WU6n9u7Q5qrns8+uzwy6PbI0I0bTccBAAAFhwGAm0ssGfBkVMD06XJe7pGSc+aYzuMx6uvn5J5atXQpy1+fXL8+dHX6NzOS3nijR/fVenr3EiVMxwPsJP9xkKHH0sfMvG3iROuUWikd1q1T/5HOsuTee03n8xS6lsRIblxc4sDASxG/zpplOg8AACh4DAA8RMVq5X5xnI2IkBpys2zJzDSdx1OoEfKEFPfxUW/JQTn44osXp1/6yVF8z57QzenpsbFPP92jx+LFixezognPMkqP0qO0wxF2Kb3+zLF9+/pM9H7I583vvlMDpJl++YUXZL3cKvO8vU3n9BR6lnSV0unpp9/wXXn0mWeeMZ0HAAAUHgYAHiL/kMCchLySOT937y4V1FAJ3rHDdC5PowbId9KsUiU1RkSpuLjsXmWe/nXQxo1hz6dvnrmuTRvT+YDCFJqa+UzsnmbNtr7U4oGKm9atk+4So8vPny/z9CRZW7Gi6Xwep560Um99802RaMdyx+levTjkDwAA98cAwMP8cZjT6dN5L3g9L9s7ddJjVR95/eBB07k81gK9SEY2bCjfywm9Y82asI/Tj8+YmZQUHJzVMjb2zjtNxwNuxB9Px7jtts6OjOEzkhYsUIctX/XQ+vWyS16RTc2amc7nsS4/JUadk2jreMeOS+L9A8IjTp0yHQsAABQ+ZToAzOrSJT09NrZRI+txuaRGrlmT/7x707k83uVTuLWPvCC75s3zys2b6fB9883lkzrVDA//4QfT8QpKWFh6+owZWpvOYUpiYmBgZKRym/fhsGZpB6Z3r15djjqCHaeGDZOH9Dx5sW9fDj20iWw1VJaeOaPSZIRVuk2bBBXQKzp+2zbTsQAAgPOwA8DDLV8eGBgVtXmzelyv1WO6dJFh8pVkXLxoOpfHu1yY1C4ZLt7h4XkveD9k1dmzJ3+HAE8XgB2EHlvxUWy7unXzV/ili1rpeH/3bqmrJ0m3AQMo/jZx+XGwqrjqIrV69KD4AwDgudxm5QkFI2xtZtnYi2FhupTlr6bFx+cfYmc6F/5BaVklx9ets0o61qiHRo1KjvXfEHHfypWmY10tdgC41g6AkE2ZGXEzW7Vy7LUaWDJ8uJyVN2R6cLAkSqBEuc7P4Sn0eJkj53JyHBfVLvXEQw8lNA3YGVE2Kcl0LgAAYA5f2PC3QhdlnJ85pHdv9ZY+qX95/32ev+0i3lZDZekXX8go3Ulaz57td8F3grVj8eIl8W1VdPzZs6bj/RUDAHsOAMLWJrR4L6ZkSb216Jkcv5491SF9k2751FPcu+8ifpE6si4vT9fWH8vzffokzQ4aEtlg8WLTsQAAgHm2++IJewmrkf577JHHH9drVRu1f84cNUBPku0Obh1xFfm3dMRIslqflKTW6Aeske++m3A6cEJk1MqVIkopZa6AMwCwxwDgylkgD4k44p9+WneT5Xpwnz6qt3SRgyVKmM6HqxQm6RKrtZyXaepweHjiwMBLEb/OmmU6FgAAsA/jXzzhGsKapR2YkfTMM/KUeltenjqVLb+uTU+WVyVyzx4VrS6o7vPmeavcT7wqvf/+0rRONQe847ynQjAAcO4AIP9UfquB6qe8HntMFdNfSni/fjJf6kuVGjVM/33gOl0u/jpexqnsZ55JSgssHrEnNtZ0LAAAYD8UOFyT0GMZA2PbPfqomqsbqJS5c2W93CrzvL1N50IB2abelm937VInpYwqkpQkYt1u3Z6VdfKU34RjUZ9+WtDPCWcAULADgFF6lB6lHY7tXVtk3DKjQYO8ahIk0qGDOiHD1InQUHlAcmRJixYM8NzE5a3+UkOmSM2nn058PzAmcuScOaZjAQAA++ILIK5L5yHp/eIcvXpZ/eSCNfH99zks0M19JWvF/9dfpbFkqparVsknclGik5OVj+/WC68mJiaotmqwOnnyWn9bBgDXNwDw355RZ8HR4sWLZYuc923XTn+nJ0n3kBAdIHfr20JD1QD5TppVqmT650PhyD/cT6bq+6X9o49yjz8AALhaDABwQ0LXpSXPDO3cWS1VlfRzixbx2C8P00IOS7/cXKmuBsudO3Zoh+4iWWvXSqquK5fWrdMRXrUdX27YkNzYPyA84sCBv/5yBgB/PwD447T922/3+sj6SKKaN9cvyIi8DS1byjrVWHVu2VIm6V3Svl49Duf0MJfP9NDJskra9eiRNCFwVeSzycmmYwEAANfBAAAFImRTxtjpJwMC1L36iOPzTz7h8DD8H/k7CPpIF4nZskWK6PpybutW2amypPWwYabjGVNHd5DPJ06USY768m7DhlJWd5GjDRpIE2klmeXKmY4Hm8hWQ2XpmTM6RESkS5ekZwN2RmauWmU6FgAAcD0MAFCgQo+t+Ci2Xd266gHH7eqN5GSpKedky223mc4FAC7ntHyrBh8+bE3Sn6opoaHJjYOWhYdv2WI6FgAAcF08zg0FKumWjn2iVu3YIbMdYblHmjXTs2SDen3bNtO5AMBlpMoUmbJzpzXJca96u3lzij8AACgo7ABAoerRfbWe3r1EieznLi1xTFu8WCZKaVnWsaPpXABgOzXkZtmSmen3k+NXR6MePZbE+weER5w6ZToWAABwH+wAQKFaEt9WRcefPVtxfrlqjuWdO8swSdH933vPdC4AsAtdS2IkNy7u1CTfhkff7dSJ4g8AAAoLOwBgROjm9PTY2KefVj3Uo+rNd96R2voDGebrazoXABS6GnKz1MzOlvNKqZeGD0+cEdAwYuOUKaZjAQAA98cAAEaFrc0sO3N248ay0npCp37yiWwWf/G//XbTuQCgoOmxqo+8fvCgHFa99coePZI6+U+Lqrlhg+lcAADAc3ALAIxKbOX/W8RTmzblvJ/3dM75xo0lXobL5JUrTecCgAJzVrJlzmefSSWvu7xTGjem+AMAAFMYAMAWVuztVHNg2vHjFaPLzXI837GjfC7D9a2TJ0uYpEus1qbzAcDV0rPUUKlnWepTNU/9GBNzaqVv6NGN7dsn3dJ+44C6x46ZzgcAADwXtwDA1jqXShseO71DBz1RfaWsefMkVYaLd+XKpnMBwP+nqCyUaceOyU96rFrRr1/ihqDbI25PSzMdCwAAIB87AGBrCaeDYqKis7Ksxr4rHT7160trNVSWJiSYzgUA+fQSWSinly1zjPZ6MK/YffdR/AEAgF2xAwAuKexSev2ZY/v2lRQZp6fGxspc8ZVxxYubzgXAA6ySsdLrwgV5TL2jgl56iVP8AQCAq2AHAFxSom/gtoiRCxY47vH6Na9aw4byqMySiDVrTOcC4Mbaym6psmqV1NYLrafr1qX4AwAAV8MOALgJrbVWKuxSRoO4cY89JndIqO4zebI0kVaSWa6c6XQAXNABmabGnjyp35NnrFeHD09qFBAQGTlrlohSSnE4KQAAcD0MAOCWOi1O6T69e8WK3u97H/T6fOpUUTJGj+7Rw3QuAC6gjzQUlZyc18A7RSpHRKTc3b5fZOihQ6ZjAQAA3CgGAPAInR0Zw2ckde2qS+ox8s3kyfKArJHSVauazgXABobJe3L3vn3KV+1W9Z97LqFpwM6IsklJpmMBAAAUNAYA8Cg9ui9etHiRr292+TI1fvtPZKTsk8d16XHjxE9Pkm4lS5rOB8AJ+sslefXcOd1FQuT4pEmnxVeKyIQJa1Rb1V9dvGg6HgAAQGFhAACPFrY2s+w7y2+9VfZbC32mjhqlA9RQPf6pp9QAPUm2OzgkE3AHYZIusVpLgqxXv8THqxpyj3Xp+ecTJgfOi/r9559NxwMAAHAWBgDAn3SumlEnbub991sZcsC658031VC9WHa3bm06F4BrpweqafLDp5/KpLw2VuCwYUlpHV+I9v/qK9O5AAAATGEAAPwPIZsyM+Jmtmrl2Ge9a4WPHy8fyACZ+cADpnMB+Bu15DVpvGGD6qZ+V3e9/jr38gMAAPxfDACAa9C5VNrw2OkdOuhq6pha9cYbcof0lg6NG5vOBXikCmqoBO/YIcdkkk4aPz4xKSAwKnrJEtOxAAAA7IoBAHBdtNZaqZBNGXEznu7c2REvH6mnhw+XXfKKbGrWzHQ6wB3pRXKrGrJ+vdrseMD6PSYmsVWHXyP9kpJElFJKa9P5AAAA7I4BAFCAunRJT4+NbdRIJ6pV6rZBg3RTPUgW9ekjFWSntPTyMp0PcAV6lhoq9SxLrdarZEdqqgxWC6XDhAmJRwIGRlZft850PgAAAFfFAAAoRF12Z82b1qRmzbz5eQu8+g4ZoqZJtjzSt6+0k5GyqGhR0/kAWygtHeT4+fNSXRWVJ+bPt96VDarbW28lHwpoGLHx++9NxwMAAHAXDAAAJ+rRPTMjbmbp0hdfsnSe1auXelWeUz4REeItb0tugwam8wHOoJ+XBOmxe7cslxl68fz5Xk97zbXmzp69/N4O/Z756tdfTecDAABwVwwAABvIv3XAekjEEf/00/KBGqq9evcWPz1JupUsaTofcF2y1VBZeuaMypROMnD5cilhiT6wYEHC6aCYqOisLNPxAAAAPA0DAMCGwtYmtHgvpmRJ6V8kJbtvt276A3lYDezZU4pKGbnf31+NkCekuI+P6ZyAiIh8rR6ViZcuSQVpropnZuo91h26+aJFRdr5TbV+X7ZsSXxbFR1/9qzpmAAAAJ6OAQDgQoKDk5NjY2+6yWuZzwjHidBQWSqZukKPHrqWPCNnAwMZDKBQ/SJ1ZF1entSQKVJzwwYpoXqp5CVLcjJzS1wq+9FHK/Z2qjkw7fhx0zEBAADw9xgAAG6gY/XUPVODypf3buC91WdFcLAaJB/LKx07yhr5XOr5+8uX+kP57aabTOeEa9DDpYzM/+03OSW36QWZmWqQFJWSK1ZYC33LeCWkpCQ3bqvCI06cMJ0TAAAA14YBAODGevRYvHjxYi+v7LVljv7asFkz/bLMksiOHaWFniRTg4KkihoqvzdooAboSbLd4TCdF85x5TF7AbqR/GfLFpkuGRK6YoU1XRdV5VasKJp7+o2yFzZuXLKkZ8+ePfPyTOcFAABAwWAAAHiw/LMGVCe/1tkl7r/fOqUmqKhWrVQRVVfOtWwpPrqUXGrZkscWuhY9XubIuZwcyZEnJHjHDvlJFoq1bp2aq3rrT9eudUx0HLHmrVrFqfsAAACehQEAgH/Uo/viRYsX+fpe8Cn18m/FGjVylHEskXFNm8r3upweWLeuHJdRsqxuXflBvpdZ993HoKCQlZYOcvz8edkhT8r2XbtkupTSH27fLh+qfo42O3fqUDXH+uDLLystu+lxr1WbN787q3GT8IicHNOxAQAAYA8MAADcsCu3GgwqWfVEWPXqEuP1u7xXt66+RbZLq9q11Z16g+P1O++U3VJD31etmvwst6rXq1WTR+UnXaNSJUmUQIlSnvN+FCbpEqu1fCB3qO+PHJHb5LB+ef9+9aESabBvn5WnJ0jIvn2O1nJE9f/6azXLKyP3mx07fEb+VqzCCz/8wNZ8AAAAXA/P+cINwHb+OLzQz89nnjrpvbxqVRmqKjp+qVZN3+b4Qt9WsaJMs26VfuXKyS5VVrrffLPykTjtX768tJDejlrlyum9KkjPKVdOOfQUOXrTTXJUUqVCsWJX/oDFskc+KVVKblEHpY2Xl35O95BiPj6qt3SRgyVK5P/P9EJZLlXOnlVvqyVyPidHjukq8llenvSUmvLQ6dNXfr8H5axEnTund6l1MvPkSblDd5UvT5yQj/S7Evnrr1JVfS9rTpyQWvo3iT9xQp5xHJZ5v/6qfraaq5+PHpVJ+qhVYf/+nH66TG6XH3/849T87GzT1wEAAAAAAAAAAAAAAAAAAAAAAAAAAAAAAAAAAAAAAAAAAAAAAAAAAAAAAAAAAAAAAAAAAAAAAAAAAAAAAAAAAAAAAAAAAAAAAAAAAAAAAAAAAAAAAAAAAAAAAAAAAAAAAAAAAAAAAAAAAAAAAAAAAAAAAAAAAAAAAAAAAAAAAAAAAAAAAAAAAAAAAAAAAAAAAAAAAAAAAAAAAAAAAAAAAAAAAAAAAAAAAAAAAAAAAAAAAAAAAAAAAAAAAAAAAAAAAAAAgD/7f4KoAl/YfSGwAAAAJXRFWHRkYXRlOmNyZWF0ZQAyMDIzLTA0LTA1VDE0OjUwOjEyKzAwOjAw0QEtUwAAACV0RVh0ZGF0ZTptb2RpZnkAMjAyMy0wNC0wNVQxNDo1MDoxMiswMDowMKBcle8AAAAodEVYdGRhdGU6dGltZXN0YW1wADIwMjMtMDQtMDVUMTQ6NTA6MTIrMDA6MDD3SbQwAAAAAElFTkSuQmCC;direction=east;" parent="K0Yor81gI7pNhZ5WIHlw-22" vertex="1">
          <mxGeometry x="21.721832669322712" width="47.826086956521735" height="47.826086956521735" as="geometry" />
        </mxCell>
        <mxCell id="K0Yor81gI7pNhZ5WIHlw-26" value="" style="edgeStyle=segmentEdgeStyle;endArrow=classic;html=1;curved=0;rounded=0;endSize=8;startSize=8;startArrow=none;startFill=0;" parent="1" edge="1">
          <mxGeometry width="50" height="50" relative="1" as="geometry">
            <mxPoint x="525" y="195" as="sourcePoint" />
            <mxPoint x="469" y="141" as="targetPoint" />
            <Array as="points">
              <mxPoint x="525" y="141" />
            </Array>
          </mxGeometry>
        </mxCell>
        <mxCell id="K0Yor81gI7pNhZ5WIHlw-49" value="&lt;font style=&quot;font-size: 13px;&quot; face=&quot;Tahoma&quot;&gt;4) Generate VTK&lt;/font&gt;" style="edgeLabel;html=1;align=center;verticalAlign=middle;resizable=0;points=[];labelBackgroundColor=none;" parent="K0Yor81gI7pNhZ5WIHlw-26" connectable="0" vertex="1">
          <mxGeometry x="-0.1916" y="-1" relative="1" as="geometry">
            <mxPoint x="-118" y="-48" as="offset" />
          </mxGeometry>
        </mxCell>
        <mxCell id="K0Yor81gI7pNhZ5WIHlw-27" value="" style="edgeStyle=segmentEdgeStyle;endArrow=classic;html=1;curved=0;rounded=0;endSize=8;startSize=8;startArrow=none;startFill=0;" parent="1" edge="1">
          <mxGeometry width="50" height="50" relative="1" as="geometry">
            <mxPoint x="361" y="139" as="sourcePoint" />
            <mxPoint x="307" y="199" as="targetPoint" />
          </mxGeometry>
        </mxCell>
        <mxCell id="K0Yor81gI7pNhZ5WIHlw-50" value="&lt;font style=&quot;font-size: 13px;&quot;&gt;5) Send VTK&lt;/font&gt;" style="edgeLabel;html=1;align=center;verticalAlign=middle;resizable=0;points=[];labelBackgroundColor=none;" parent="K0Yor81gI7pNhZ5WIHlw-27" connectable="0" vertex="1">
          <mxGeometry x="0.0337" y="1" relative="1" as="geometry">
            <mxPoint x="-48" y="22" as="offset" />
          </mxGeometry>
        </mxCell>
        <mxCell id="K0Yor81gI7pNhZ5WIHlw-29" value="" style="group" parent="1" connectable="0" vertex="1">
          <mxGeometry x="448.13" y="392.5" width="147.75" height="134.5" as="geometry" />
        </mxCell>
        <mxCell id="IFqryok0byd0GUK2o1Lt-38" value="Full Node" style="text;html=1;strokeColor=none;fillColor=none;align=center;verticalAlign=middle;whiteSpace=wrap;rounded=0;fontFamily=Tahoma;fontStyle=1" parent="K0Yor81gI7pNhZ5WIHlw-29" vertex="1">
          <mxGeometry y="104.5" width="147.75" height="30" as="geometry" />
        </mxCell>
        <mxCell id="K0Yor81gI7pNhZ5WIHlw-19" value="" style="shape=image;verticalLabelPosition=bottom;labelBackgroundColor=default;verticalAlign=top;aspect=fixed;imageAspect=0;image=data:image/png,iVBORw0KGgoAAAANSUhEUgAAAgAAAAIAEAYAAACk6Ai5AAAAIGNIUk0AAHomAACAhAAA+gAAAIDoAAB1MAAA6mAAADqYAAAXcJy6UTwAAAAGYktHRAAAAAAAAPlDu38AAAAJcEhZcwAAAGAAAABgAPBrQs8AAIAASURBVHja7N13eFRl2gbw+z2TSSGhE1oqhCK9Sq+CKCWEFnd1dV1X8bOXNYgNELFR7L3rKuqaQEgIoBTpvYMQShIghRQSWgjJJJnzfn8cxiCKAknmnZlz/65rLy9kF56ZhTtvnjnnPgARERERERERERERERERERERERERERERERERERERERERERERERERERERERERERERERERERERERERERERERERERERERERERERERERERERERERERERERERERERERERERERERERERERERERERERERERERERERERERERERERERERERERERERERERERERERERERERERERERERERERERERERERERERERERERERERERERERERERERERERERERERERERERERERERERERERERERERERERkacTqgcgInJX9068d+K9E63WnDvzv8v/bvhw+W/9Uy1k6FDMEGPl4PBwGYFGmKppojPGoG1GBhqK7vKFDRvk0tJepb3mzUvqntQ9qfv586pfBxGRKpE3jwseF3z99aKZ/qnI69MH34syTA0NlUGyvxxdVoZgrT1GpKfLvSJP5C1blpQ1r3Re6eHDqucmInJXXAAQEV2h6AnRE6IneHvbAsvu0RPvv1/+Ik5h/9NPow5+wORGja74FzqBCAwoLJTr5d2y2zvv2FvbIv3+N3PmkpQlKXPfOXtW9eskIqpq0+Q0OU1q2o76e9/b+94//oEe+nixYvJkWMUD0Nq1u+JfqDXqy7vWrZN/l3W0+2bMSOq+YE5c5tKlql8fEZG74AKAiOgvjJoctWV8SGSkiNf85LHXX0drTBXRLVpU2W+wBH7oVlCAhzERd86e7Zvh9Z726BtvxMbFxsXGlZaqfv1ERNdq1K1jkqOje/cWfcRn9gdeew1LkSre7d27qn59ebt8Ah2XL8eH4pTeNSYmaWV8ZHzk7t2qXzcRkaviAoCI6BKOS1Llt/p2ETNnjrhT3Ie1AwY4bYDlmCS/PnhQDMUs7Y4pUxIXxi+Imxcbq/p9ISL6K6PXjV4XHd26te5rmWOfMmOGmA4hpkdHV/fvKz+SX8m5ui5exVyxae5cryligt5u8uT4wPjA+MDsbNXvCxGRq+ACgIhML+o/Uf+J+k9IiF4uWnqNfukltBf+OH777ViIeMwT6nNyGCLkQxs3akd0XYTExCS8nvD6vBYbNqgei4hoTPKY5DHJ9evbo9FEK5s0CafEzSLm8cfRFU1Q09tb2WBWdMLQ8+dxSD4m+77zTnmJrbvfJy+/zFutiMjs1B9siYicbOTIkSNvu61uXe2YdW7JU5Mn4w1ko9Gjj+Jt8Yx4wNdX9XyXFYmxGC+l7Ir5sn1cnNhYPsQyY/LkhQ8vfDg29sgR1eMRkeeLjo6Ojo728ysJLn9Af/ORR+Q/MBaRTz8tpmMwmtWurXq+y6qBf8vJ+fminrSKfi++6JNv/UyLevfd2NjY2NhYu131eEREzsIFABF5PEdbf/Z9eSfyH77rLhkk7GL+jBliIrywt2FD1fNdsx3IRmFpKd6BLpM+/ND3W69Qy21TpxrdAWfOqB6PiDyFEKMjx46ZMH7CBP1TdJHPzJol7sEuvBwernqyaxYDH9yfnCzmoER8MG0ab7UiIrPgAoCIPFa1l/e5GpYJElEViXxnbMzYmBtuwEEs0XrMno1jaIX/de2qeq7q4igT1IXsq/0yadLiWxJEbOyuXarnIiKqalwAEJHHUF7e52reQCAePXRIPI488dZzz/ETLiK6HFXlfa7GUSaI4+KfODRvnv6yGIo1kyYtnj//ofkPHTumej4iosriAoCI3NaobdEToieEhor/lg3RH3rxRZcr73M16ViKEZs2aUP0/8PAJ55gmSCRef1a3pcs7tQipk7FPtwlvnvgAWzBUiR6eamez2WwTJCIPAwPyETkNty2vM/VsEyQyHTctrzP1VxSJnjm/VM35dvee2+1WC1Wi/Jy1eMREf0VLgCIyGVdWt6HI/hGjHvxRXwl7kCnwEDV83mMS8oEtbH6Zrt12rQEkSASxOnTqscjomvlgeV9rqaR/BbWAwdErrhVlE2dylutiMjVcQFARC7HUd6HaO0H/PDGG2I6UjEnIkL1XKbxFBJw4ORJxGEFls6aVb6wZOL5gW++uSRlScqSFJtN9XhEdHm/lvc9LcdpO+bMwWAxG3W7dFE9l2mMwb+xYsUKe019lHZjTAzLBInI1XABQETKjTw45oPoCT16aEL01rfPmYMnMB1d+/dXPRdd8IdlgnFxxk9KqXo8IjMbtW181/Fdr7sO0EPlly+8YNbyPlfDMkEiclVcABCR07G8z81dKBMUeWKi3BsTk5g9/835b65fr3osIjMYtW3Utls/atBApFsfsN01ZQrL+9wEywSJyEXwoE1E1e535X0Dxadiy2OPIR3rscTHR/V8dI0uKROU08QLwFNPLVo0v+P8jmlpqscj8gSjto3aNmpbjRpirrXQp8nDD6MJ/GXRM89gLV4RT9eqpXo+ukYsEyQiRbgAIKIqx/I+k2KZIFGlTZPT5DSpaTtH7xm7b8L48fJ+/CKbzp6ND9ABx8PCVM9H1YRlgkTkJFwAEFEVEWLU9HF3j7v7lltEkEwUlpdfRgL6oaB5c9WTOfM9EAJo1KhNm+7djX8jJZCbm5y8fbvxI1PdMX/hEy60Ec/j/hdeaJLVoGuDrh9++PEnH3/y8SdlZarHI3IlUbXG7Rm3Z+hQ/Vl5n0ibMwfr0Ahfd+qkei7nqcjPbt0q/q1Z81PeLp9Ax+XLdSH7ar9MmsQyQSKqKlwAENE1+7W87xOx3f6v117DQRSIL/r1Uz2Xs9WpExraqhUQETFoUGQkULNmo0YhIRU/X1iYm5uRAaSmrlyZmAicPp2Rcfiw6qkV6IZFCDh8WGzHCHHu2WdZJkhmxvI+Q+3aTZuGhwPNmw8ePGZMxY8dzJ6fl5YJWrrp8fYOTz5pXFl19Kjq+YjI/XABQERXbMS4ce+OezcszBKsW0T7GTPMWt5Xo0a9eg0bAs2a9es3YgQQGNi6defOV/6/P3Xq2LGDB4GUlJUrFywAiopOnMjOVv2qnE9Ow8c4snkzgJZa85iYpO7xp2Pj1q1TPRdRdWB5n4H5WUksEySiSjLNgZ2Irt5NwdHR0dH16nnXKfvEPuXJJ81a3me11qjh7w+Eh/fqNWwY0LRply79+gFCaJrFcu2/rpS6brcDOTl7927eDBw5sn79kiVAaWlRUWGh6lftRCwTJA/E8j6D1ern5+8PhIT06HHDDUBISLdugwYBQlgszM8qwDJBIrpKXAAQ0a9+V943S9yNkpdewnl8LmY2aKB6PmexWKxWb28gKKhLl/79gdBQ4xt/Ly8fn+pce9jtZWU2G5CRsXXrypVAevrmzStWALpeXm6qO+ZZJkhuiOV9Bsc39kFBnTr17VvxSb/F4uPj61t9vy/z84LlmCS/PnhQDMUs7Y4pU1gmSESX4gKAyPSEGB05dsyE8RMm6NPQQsa88oqYjlTMiYhQPZkz3wMhgMDAVq06dTLu5R89GvD1rVWrXj11U9lshYWnTwNHj27cuHQpkJ29Z8/GjYDZyrDwFBJw4ORJxGEFls6aVb6wZOL5gW++uSRlScqSFJtN9Xhkbr+W9x2W2+E3ezbuQaJ46mouandvQhj52aCBIz8HDDDys04d5qcLyEYhvvv5Z/khvtPPTJqU1D0+MD5wxw7VYxGROlwAEJlQVHhU+PiNPXvqE7ShsmDOHLOW99WtGxbWujXQvLnxDX/Nmg0bBgWpnuryCgtzcjIzgdTU1asXLABOn05PT0lRPZUC92Mvmh47JmfjDSGnTk1aGR8Z9+7XXxs/aaqjPSkwIn9su7Ht2rTRjqKl+G76dLOW99Wq1aRJeDjQosXgwVFRQK1aQUHNmqme6vJMn5+X3GrFMkEi8+ICgMgERgWN9x7v3bIlEvQRcttLL4kdGCd+mTDBbOV9/v716zdqBDRvPnDg6NFA/foREe3aqZ7q2lWUYf38s1GGlZ9vqjKsC1gmSNXpd+V9L6OWGPfgg2iCmvCpzF3s7qWy5X2uxvT5mYRDKCguRju5Xr799tu+11nvsbzwyiuxcbFxsXFnzqgej4iqj2kO/kRmwvI+g7d3QEDt2kCzZn363HQT0Lhxx469ehmXrGqa6umqDsuwLlGAbvKLpCRLH3laf+GxxxbMWTBnwZzUVNVjkXtgeZ+husr7XA3z84Il8EO3ggIxUf4Tz8+YwTJBIs/FBQCRB4ieED0heoK3ty2w7B498f775SIRj5eefx6dkIdNdeqons9ZLBZvb6O8r3Pn/v2BsLDevW+80fj31Vk+5WpYhmWQ0+S78vOyMrQTjcSSL76wd/D6uxb33HNLUmLjYuNOnFA9H7kGlvcZVJX3uRrm5wUsEyTyWFwAELmtivI+GYX1sv6rryIB/VDQvLnqyZz5HggBNGrUpk337hXlfd7e/v41a6qezXWwDOuCFnhETjt1CgBE/ZkzWSZobr+W9z0r7xNpc+ZgHRrh606dVM/lLK5a3udqmJ8XDEOEfGjjRrlB3m15/4knkr5b0CY21ngniMi9cAFA5EYiF4+7edzNvXrhVj1RRM2ZgwHib1jet6/quZzNUd7nKJ/y9w8MbNpU9VTuw/RlWA515ZNYlp4uM0S++OeUKSwT9GyO8j7LaNwqNs6ahfrYLu4aNUr1XM7mbuV9rsb0+XlJmaDYWD7EMmPy5IUPL3w4NvbIEdXjEdFf4wKAyIWxvM9Qs2bjxsHBxif8UVFAnTohIS1bqp7Kc5i+DMvhbnSRk7Zs0Q/pfUSrmJhFTyYMnVdv7VrVY9G1Gb1u9LrR65o21btZelkzp00T/XEzvrn7bpb3uXd5n6sxfX7uQDYKS0vxDnSZ9OGHvt96hVpumzqVZYJErss030AQuQOW9xl8fGrWrFMHCA/v3XvYMM8t73M1LMO6BMsE3crvyvs2YhHinn0WgUjFGvPcFGS1+vrWqAGEhPTsOWQIEBzcrdvAgYCmWSxeXqqn81zMzwsulAniYUzEnbNn+2Z4vac9+sYbxkKgtFT1eETEBQCRUizvM1gsVquPj9E2PXgwEBrao8eQIYCmeXlZraqnMy+WYRlYJuiaHOV922/Yk7Tv4dtvx2y8Jmu9+qqYjro42KSJ6vmc5dLyvvDwfv2GDwe8vHx8/PxUT2dezM8L3kAgHj10SDyOPPHWc8+xTJBIPS4AiJyO5X1CaJqmAY0bd+jQqxfQrFnfvsOHs7zP1bEM64JLygTPvl5rUEDTt95aLb4SX4mSEtXjeTqW9/22vK9584EDIyMBP7/atevXVz0dXQ7z84ILZYLaEV0XITExCa8nvD6vxYYNqsciMhMuAIicwFHeJ4vkeyL9tdfEfxGDNn36qJ7L2SrK+4YMGTsW8PevX79xY9VT0bWqKMNatSo+Hjh9OiPDlBfIs0ywWkX1i+oXHd22ra5rN9s/mzmT5X0s7/MEps9PlgkSKcMFAFE1GNF0TPKY5FattETxtFb24otiOoSYHh2tei5nq1mzcePQ0IoDa+3awcEREaqnoupi+jIsB5YJVgrL+wyXlvc5PvF3XAFAnsX0+ckyQSKn4ZcQoiowvEX0hOgJgYFeB8oD9J9feEG+ILvKWffcI3aKlWKJeWqXHJegNms2YMCoURVt0zywmouUuq7rwPHju3atX29c8vrjj0BZ2fnzRUWqp3OiC59wYYC8Hp3mzbN8is/sXzz1FMsEf+vG3TfuvqOhv79v54Dbzrd97DH5Hn6Q/336abEEz4nH/f1Vz+csLO8joCI/c3L27t20iWWCLBMkqno8khNdg4cXP7z44cU+PkdTM4qP1/38c5wWeTh0yy3YgqVINM9RzXFgDQ3t1WvYMCA4uGvX/v0rSqmIAMBut9lKSoCjRzdvXrYMyMratm31akDX7fbyctXTOVE2CmGz2/GgGCNOffGF7yLLKtEkJsZsn3DdO/HeifdOtFpzBuSdKBjy7ruYJnLw+b/+JduhCWp6e6uez1kc39gHBXXvPnAgEB7es+eNNwIWi4+Pr6/q6chVMD8vWAI/GVJQgDfERERNnrzw4fmD5w/+7DPVYxG5Iy4AiK5C5M3jgscFX389btA/FzuWL8da8QHur1VL9VzOUnFg7dKlf38gLMx4TJ+Xl68v26bpSpWUnD178iSQlrZmTVIScOLEgQM7dxpVWKa6Y76FvE1OO3VKE3KjqDFqlKeXYY08OOaD6Ak9emg3il16z59+MtvTThxXQgUGXnddly5A8+bGlVK+vrVq1aunejpyF8zPC1Llyyjes0dvVhbjU2fQoEWLFi369lujnJWI/hwXAERXYMQPUTJKdu5smaXd6BW5bZtZ7kWtOLAal/I3b96/f2Qk4Otbpw4PrFRVCgtzctLTgdTUlSsXLABOn87MTEtTPZUTvWQ8ZlCctWwVK/v0Sew3b8y8Mdu2qR6rqoy+Y/wH4z/o0kUm6/OwaOtWs+SnQ506wcHNmwMREYMHjxlT0Y1CVBXMnp8iCeXokJdXFlGS7FvQsuWSlCUpc985e1b1XESujAsAor8kRKTX2NvGv3ziBIajGNs9/0FLtWsHBzdrBrRoMXCgcWBt2jQsTPVUZBYnThw+vGcPcOSI8QnX+fMnT+blqZ7KCU7jFszMzT27ptbfAyLCwz3jsYKaNmrBWG3CoBMnxGeIkvU9f3Xo51e3bmCgsTAdOZLlfeRcFWWCK1bExwNFRQUFOTmqp6p+eoz8H4auX79o4ALveff366d6HiJXZpoNPNG1GPXumHPjW0yaJIT4AXpUlOp5qoujbbpVq5tu+tvfgIiIgQOjogAfn5o1zXOBLrkKf//69Rs1Apo27dy5b1/A27tGDX9/oLAwNzc9HdD1srKyMtVTVgNf7MPygADvSSV1yuPy8w8VHvhm//7Nm1WPda0ixdh24wc984woQl/UHzlS9TzVxWo1/nxGRAwYEBkJXHfd8OH/+Afg7x8Y2KQJv/En5/Lzq1OnQQOgadNOnfr0MU9+ig0iDmmhoS3GtS5p+/mPPx5ed/B08mdZWarnInJFXAAQ/YlWX7TxafPe3LkiETliv+d8K3zxgXX0aOPAetttgL9/gwaNG6uejsjg+MapVq0mTcLCKg60xt2uxqWvGRnGj3Rd9bRV6ENxWj7RsuWhjw9sSP7s7bdVj3OtWnu3ebpt4ty5aIF0rK5dW/U8VcXRhRIScv31gwYB7dqNHn3XXUCdOiEhLVrwG35yDWbNT62veFYcadbsUOKB7/Zv+e9/Vc9D5Ir4JYroT0TuGZM17kxpKZ4VD4l/W62q57lWjlb+oKBOnfr2BcLD+/UbPhzw8vLxYXkfuSub7ezZU6eAo0c3bVq2DMjO3rNn40bAccB1WxeeFuDbzKuu5ufjExsbGxsba7erHutqRc4Y8/b4r8rKsEWsdOenozi+kXJcyt+8+cCBkZEVjz0lckcem58t8IicdurUwjfiB8/v6Pm3HBFdCy4AiP5EZOTYsePHu+OXQuPzp9q1g4IiIoDrrhs58h//APz82DZNnuvs2ezs9HTg0KGffvr2W+DcuRMn3PneVy1Rn18eV7dugkgQCeL0adXzXB0hjPx0388W/f3r1WvUCGjVyrhCqnZtdqGQ5/KU/JTTjFLVpO4LgubXNs9jRYmuhqZ6ACKqDsbS4syZzMzUVGD//oSEL7+s+DGRJzl//uTJ3FwgI2Pr1p9/dt+D66W8b/G+xfsWm031HNfGHRenv1VUZPy5SklZuXL+fCM/jxxRPRVR1fK0/BTexn+I6PLc9pI8IrpyjscE7dz53XfvvAPUrRsW1ro10KLFkCFjxxqla7z3n9xFWdn580VFwLFjGzf+9BOQlbVr1/r1gJS67n4Xyv+BUPTFcJst9r3YmNh7iotVj2N2hYXHjx87ZuTnW28xP8m9eXx+RojeuMFdF6dEzsEFAJEJOR4TtG3bl1/OmgU0btyhQ69eQPPmRjeA1VqjRs2aqqckMtjtZWWlpUBW1s6da9cC6embNi1dCpSX22yeeMwT87EDeefOqZ6D/til+RkU1Llzv35AWFifPjfdBFitfn7+/qqnJDKYLT9xM2bi66IiALeihephiFwTFwBEJialrus6kJ29e/eGDUBe3v7927cDISE9egweDISG9uw5dGhF6zWRcxglVCdOHDq0ezeQmrpqVWIiUFJy9uzJk6pnc8Kr/z/E4eDJk3he9ST0Zxz5mZm5Y8eaNUBOzr59W7cCoaG9et14IxAc3K3bgAHMT3I2c+enKEOYGO5unSlEzsUvSUT0K7u9rMxmA44eXb/+xx+B7Oy9ezdvBsLDjQNtkyYdO/buDRi92KqnJU/j+GQ1Lc04sBYW5uWZ8inOgzEOd5SX43l8j69UD0NXqrzcZisuBtLSVq9OTASOH9+1a906oHnz/v1HjQICA6+7rksXPiaQqgfz0yBn4m35ga5jIIChqqchck1cABDRZTkeE3Tw4NKlP/wAHD++e/fGjUBExODBY8YYz72OiFA9JbmroqKCgpwc4xumhQuBgoLU1H37VE9FVDVKSs6cOXkS2L8/Kem//wVq1dq+fdUqoHnzQYOM/AwObt5c9ZTkrpifRHStuAAgoitWWJibm5EB7Nr1/fcsE6SrVVp67tyZM8CRIxs2/PQTkJOzZ8+mTcYFq+77sDiiK+N4zNquXd999/bbQGBgy5YdOwLNmg0YMGoUUKNGvXoNG6qeklwV85OIqgoXAER0zS5XJtisWd++w4cD3t7+/iwTNK9Ly6eOHdu4cdkywG4vLS0pUT0dkVonThw+vGcPkJ+fmvrLL0DTpkaZYHh4795GmWCNGiwTNC/mJxFVFy4AiKjS/rpMsEePIUMATfPyslpVT0vVxyifysnZv3/btopLU0tLi4rOnlU9G5FrcuRnVpajTNDoXmF+mg3zk4icgwsAIqpyvy8TNC5VDA/v3XvYMJYJehrHlSCpqStXJiYC586dOGHG8imiqsD8NBfmJxE5GxcARFTtbLbCwtOnLy4T3LNnwwYgImLgQKMMKzS0BZ/X6zZYPkXkPMxPz8L8JCLVuAAgIqcrLMzJycwEdu363//efffiMsEbbhgzBvD3b9CgSRPVU5IDy6eIXAfz070wP4nI1XABQETKVZQJfvXVnDlGmWDPniwTVMVuLy01yqd27WL5FJFrY366FuYnEbk6LgCIXJimXXfdyJGArqemLl8OAMa9oZ5KSl232y8uEzxwYMcOICysZ8+hQ4Hg4O7dBw0CNM1i8WJ6VRnHJ1HZ2Ub52NGj69YtXmyUTxUWqp7OmTTNywsoK6tbt3VrwGotKOClue6L+cn8dAbmpwPzk8hd8EsAkQvTtBYtbrwR0LTQ0D59AF0/fPinnwBdP3p0/XoAkNJuVz1l9bHbbbaSEiAtbc2apCTjcUjr1rEMq6o4PjlMSVm5MiEBKCo6ceL4cdVTOV95ed26LVsCJSXh4cOGAY6/VzzAujfmJ/OzOjE/DcxPIvfDBQCRW/D29vcHNK1du3HjAE0LC+vXD7DbDx5cvBiQMjt71y7VM1Y/lmFVzvnz+fm5uUBKyurViYnAyZNpaWY8oNntNWsGBQElJWFhQ4caPw4Jqfh5TSsuzs9XPSVVHeYnwPysLOangflJ5P64ACBySwEBDRsCFku3bv/6FyBlfv6hQ4Cu79+fmAhIefZsZqbqGavf5cuwBg82yrACA81chmWzGeVTR4+au3xKSh+f2rWBkpKQkEGDgLKyBg3atwf4yadZMT8B5udfYX4amJ9EnocLACIPIESDBq1aARZL//5PPAFImZOzezdgtycnJyYCwPnzJ0+qnrL6VZRh/fe/ZizDYvmUQUovLz8/oLQ0KKh3b8Bma9y4Rw/AcY8q0cWYnwbmJ/MTYH4SmQH/KhN5FGMjL0STJp07A15eDRu2bWvc87p2LaDrKSlLlwLmK8NKTt62DQgJuf76G24AQkN79BgyxDjOWK2qp63cK5USyMnZv3/bNuO50omJ5iufklIITQPKyho27NwZsNlCQgYPBqS0Wv38VE9H7oP5CTA/mZ/MTyJPxwUAkUezWLy9AU2LiDAObCEhvXqZsQzL+GTn6NH163/8EcjONi7ldJRhNW7csWOvXsbxX9NUT/vXWD5lfKNWVlav3nXXATZbaOgNNwC67utbt67q2chzMD8B5qfnYX4SmR0XAESm8tsyLCHCwvr2BXT94MElS8xchrV798aNQETE4MGjRwN16oSEtGypesoKjvKp1NRVqxISgIKCI0f271c9lfP9VfkUUfVifgLMT3fF/CQiBy4AiExMiICARo3+qAwrOTkhAZDyzJmsLNVTVr/CwtzcjAxg167vv3/vPfVlWCyfMui6r2+9esYnVIMHV3xixfIpcgXMTwPz0zUxP4nocrgAIKJfXVyGFRNjfKK1e/fF7djFxSzDqvoyrN+XT23YsHQpYLd79r3Gl2L5FLkz5qeB+akG85OIrhQjgYj+0MVlWBYLy7AuLsMKCurcuX9/ICysT59hwwCLxWr18bm6X5nlU0b5lMUClJU1bty1K2CzBQcPHGgcZH19VU9HdO2Yn8zP6sb8JKJrxQUAEV2BS8uwgoK6dwfsdqMMS8r09E2bAOPIp3rW6uP4pCk9fcuWFSuA3FzjABoe3qfPTTf9dRnWxeVTCxYY5VPZ2apflTNdWj4VFmaUT/n4sHyKPBfzE2B+Vh7zk4iqBhcARHQNfH1r1wYslg4dbrkFkLJZswEDjHtfFy4EpMzN3bdP9YzVz3GvqaMMKzNz+/Y1a4DmzY0yLF/fWrXq1QPS0lauTExk+RTLp4gA5qeB+XllmJ9EVNW4ACCiShMiIKBxY8Biuf76iRONMqyDBy++9/XsWTOUYRUVFRTk5AB798bFffyx470x/iml6umch+VTRFeO+WlgfhqYn0RU3bgAIKIqJ0SDBq1bAxbLgAExMYCuZ2Zu21bxCRdgs509q3pK5zDDwZXlU0RVh/lZgfmpejoi8kSMFiKqVkIAmhYcfP31gKY1adKxo1GCtWIFoOtpaatWAcbdoaonpStnlE/ZbE2b9uwJlJY2bdqnD8uniKoa89MTMT+JSC0uAIjIiSwWHx9A01q3HjECECIsrG9fQNcPHly0CJAyI2PrVuO/aYZPftyHo3yqfv22bSsuTdV1H586dVTPRmQWzE/3xPwkItfCBQARKSOEowyrU6fbbgOA5s2HDDEudU1IAHQ9L8+MpU+uwm6vVSs09OLyqYCApk1VT0VEAPPT1TE/ichVcQFARC6kZs1GjQBN69Hj3nsBIfLy9u0D7Pbk5MREACgszM1VPaPn0nU/v/r1gZIS4xOq8nJH+RQRuT7mp0rMTyJyF1wAEJHLEqJhw3btAC+vhg3btq0ow5LSONBKabMVFqqesno4LuGtztZnlk8ReS7mJ/OTiOiPMKKIyC1cXIYFNG7cocPFZVhHjjjKsMrKVE9ada+3On7V35ZPBQX17QtIadxbTESeiflZNb8q85OIPAEXAETkhoy2ZE277rqRIwEhwsP79QN0/fDhn34CpExP37QJAKTUddWzqlRRPtWuXcWlqVL6+NSurXo2IlKD+XllmJ9E5Jm4ACAit1dRhtWhwy23AFKGhvbuDej6/v3Gpa4FBYcPq57Seez2gICgIKCkJDzcKJ+qWTMkRPVUROSKmJ+/xfwkIk/HBQAReRwhatcOCQEslt69H3wQkDI//+BBwG7fv3/BAgA4ezY7W/WUVefi8qkbbjDKp1q3Vj0VEbkj5ifzk4g8GxcAROTxhGjQoHVrwMurf/+YGOMS182bAbv90KElSwDAvcqwpLRa/fwAmy04eMAAoKysUaNu3QAphdA01dMRkSdhfhIReRYuAIjIRIwSJyHCwvr0Aby8goO7dQN0PTV15UrjnytWAK5WhiWlMXdZWePGXbsaB9eBA40Wal9f1dMRkTkwP4mIPAEXAERkYkZ7s6a1anXzzYAQoaE9exqPyUpKAnQ9K2v7dnXTlZXVrduyJVBS0qzZzTezfIqIXAnzk4jIHfFiJyKiC4Tw9a1bF9C0Ll3uuEP1NIDNFhY2ZAgPrkTk+pifRETugQsAIiIiIiIiIhPgAoCIiIiIiIjIBLgAICIiIiIiIjIBLgCIiIiIiIiITIALACIiIiIiIiIT4AKAiIiIiIiIyAS4ACAiIiIiIiIyAS4AiIiIiIiIiEyACwAiIiIiIiIiE+ACgIiIiIiIiMgEuAAgIiIiIiIiMgEuAIiIiIiIiIhMgAsAIiIiIiIiIhPgAoCIiIiIiIjIBLgAICIiIiIiIjIBLgCIiIiIiIiITIALACIiIiIiIiIT4AKAiIiIiIiIyAS4ACAiIiIiIiIyAS4AiIiIiIiIiEyACwAiIiIiIiIiE+ACgIiIiIiIiMgEuAAgIiIiIiIiMgEuAIiIiIiIiIhMgAsAIiIiIiIiIhPgAoCIiIiIiIjIBLgAICIiIiIiIjIBLgCIiIiIiIiITIALACIiIiIiIiIT4AKAiIiIiIiIyAS4ACAiIiIiIiIyAS4AiIiIiIiIiEyACwAiF6brBw4sWgQAZWU2m+ppiDybppWWFhYCPj6ZmevXq56GKov5SeQ8zE8i9+GlegAiujxdT0lZtgzQ9fT0DRsAi6Vly2HDACHCw/v1AwAhLBbVUxK5JyF0vawM8PbOydm6FfD2zspatw4Qory8tFT1dFRZzE+i6sP8JHJfXAAQuYXS0qIiwG7fty8+HgCOHVu/HrBYWrceMQIQokmTzp1Vz0jk2oQApAS8vAoKDhwAfH2PHVu+HBDCZjtzRvV0VH2Yn0SVxfwk8hxcABC5pXPn8vIAu3379i+/BIRo0KBVK0DT2rYdPRoQolat4GDVMxK5Bi+vM2eOHKk4sGpaUVFuruqpSB3mJ9GVYn4SeR4uAIg8gJT5+YcOAXb7mjWvvQYIERJy/fWApjk+4fL1rVNH9ZREzqFpxcUFBYCPT0bGqlWA1VpQkJyseipyVRX5uXatkZ+NG3fqBFgsbdqMHg0ANWrUq6d6SiLnYH4SeT4uAIj+hPwE5eiQlycmwgt7GzZUPc8VzSwBKTMytmwB7Pbjx3ftAjQtPLx/f0DTWrQYNgwArFYfH9WTElUNTSstPXfu4gPriRO7dwOAlFKqnu4avIa1yDl3TvUYldYCj8hpp04hBW+L6XXrqh7nrxl/XqTMzt61Cygvz8vbv5/5SZ6N+UlkPlwAEP0JEYvWcmBqKoBU4SYLgN+y20tLAV1PTV2xAtD1jIxNm1iGRe7N48untuNL/DclBcCNqkeplFTcLvakpADoAVx/vepxrh7zkzwP85OI+BhAoj8hrbI9sn76SfUcVee3ZVh2++rVs2ZVfOJF5Ioc5VOOT6YCAnbufP99wMfn2LGff/agg6vj9Y6WdqzavFn1HJX2CV7E/lWrVI9RdX6fn7NnA1KeOMFLpMlVMT+J6FJcABD9Cet4MVLe9PHHcpp8V35eVqZ6nqom5blzubkVZVh2+6ZN778PSHnmTFaW6unI7CyWM2eOHgX8/ffs+fRTwM8vJWXhQkAI43nTHseKThh6/rxtofUzLerrr1WPU1n2+0WRbPree8hGIWx2u+p5qpqU587l5AB2++bNH33E/CTXwvwkosvhRWtEf+LA7AOzD8w+d65V+XV12wRLKc6LbHH0hhtUz1V9zp8vKACkTE/fuBGQsrAwJwcQom7d0FBACKvVz0/1jM6j64cO/fijut+/tLRx4+7dASmt1ho1VL8b1U/TiotPnAD8/FJTExMBX9+MjNWrASHKyoqKVE/nBIlYi63Tpy8+O29V3OKlS1WPU1mHk5MXJy8+c6b1zjZT2k4ICEAiDqKgb1/Vc1WfS/OzuPjUKUDT6tQJDQUALy9fX9UzOg/z07mYn56Vn0TViVcAEF2Bbp91eq7Dgy+/jD74GLUWLFA9jzNcXIZlt69e/eqrFx/oPOuSQVLDcTD19U1LW7wYCAjYvfvjjwEvr1OnUlNVT+dEBegmv0hK6qp3/KX9yldeUT1OVTvb8OS/8l965hl0xngsNMfB3FHGunkzUF6+atVLLzE/qWoxPy/w8Pwkqg5cABBdgeliupgudN13h9cD2rkJE5CI+YibPl1+JL+Sc3Vd9XzVzziwOg6wjgOtlMeObdgAAFKa4V2gynGUT/n4HD++YQMQELBr13vvAd7eubk7dgBu2zp9jeQPiEX0xx+X55V8Wdx1wgRHzqieq6qtFqvFalFefvaFk//It40cyfxkftLVY37+llnyk6g6CNUDELmzqP9E/Wd8Sp8++grtI6x+7TWEYhgW9+qlei5nE6JmzaZNAU1r2zYqChAiMLB1a9VTVV55eVLSY4+p+/3Pnevc+b77AF3382vQQPW7cfUc5VNeXnl5e/YYl6SuWuXB96D+lRj44P7kZHmbNh8jYmKSsuaVzitdvFj1WKowPw3Mz+rB/PQwzE+iKsMFAFEVGjU5asv4kMhIRGs/4Ic33hDTkYo5ERGq53I2IRo0aN3aONCOHg0IUatWUJDqqa4eD7DXxsvrzJkjR4yW6RUrAIulqCgnR/VUCiyBH7oVFIiJ8p94fsaMM++fuinf9t57jk/EVY/napifBuZn1WB+ujnmJ1G14S0ARFUoaWZCj3kZCxc2/SjwTP3P27TB81LKaf/3f7hTfo3dJ06ons9ZpMzPP3gQsNvXrJkzB9D1nTvnzgUAm+3sWdXTUVXTtOLiggLAz+/QoXnzgBo19u+fO9eEB9ckHEJBcTGOyC/ktJkzfcd4lWo7IiISP1hw87zSt97iwfXPMT8NzE9zYX5ewPwkchpeAUDkBCNHjhx5221162rHrHNLnpo8GW8gG40efRRvi2fEA2bqhfby8vYGNC0srH9/QNNatrzxRuPfu+K7wE+w/pgQ5eXFxYCPT2bmmjWAt3dOzvbtgOnuZY7EWIyXUnbFfNk+Ls7STY+3d3jyyQSRIBLE0aOqx/MUzE8H5ufVYH66OOYnkTJcABApMGpb9IToCaGh4r9lQ/SHXnwR7YU/jt9+OxYiHvOEif5e+vrWrg1YLC1b3nQTIERoqHEHsBCaC1yfxAOsQQhdLy83DqpbtgDe3pmZ69cDQtjtNpu6uZTJRiG++/ln0UYbj89iYhK/nnf/vPt37lQ9llkwPx2Yn3+G+emimJ9EypnoCyWR6xp5cMwH0RN69NCE6K1vnzMHT2A6uvbvr3ou56tZs1EjQNPatImKAjStYcO2bdVNY94DrNEmbbWePHngQMW9qJpms50+re79UGY5JsmvDx4UQzFLu2PKlMSF8Qvi5sXGqh6LDMxPB+bnxZifLoL5SeRyuAAgckGOMiwRr/nJY6+/jtaYKqJbtFA9l7NVlGG1a2e0Yxtt2c5itgPsxeVTP/9s3IOana3u9StTA/+Wk/PzRT1pFf1efJHlU+6F+WlgfjI/lWB+Erk8LgCIXNi9E++deO9EqzX7vrwT+Q/fdReO4Bsx7sUX8ZW4A50CA1XP50xCAJoWFNS9OyCEox3bx6dmzer7PT39AOson/LxMR4vZbUWFCQnq3u9yljRCUPPn8ch+Zjs+8475SW27n6fvPzykpQlKXPfYe2au2J+VmB+Vv2vz/y8gPlJ5Ha4ACByIyzDcri0DKtVq2HDAMBi8fGput/F0w6wLJ8yyI/kV3KuruO4+CcOzZvH8ilzYH46MD+vBfPTwPwkcn9cABC5MZZhGYQwyrA0rWrLsNz9ACuElHZ7xUHV2zsjY/VqE5dPjcG/sWLFCrFKy8QrkyaxfMrcmJ8G5ufl3hfm528wP4k8hmm+wBGZQeTN44LHBV9/vfxW3y5i5swRd4r7sHbAANVzOZsQtWuHhACa5rjUtX79li2v/tdxvwPspeVT6elG+VRJiSnLpxrJb2E9cEDkiltF2dSpLJ+iP8P8NDA/mZ8AmJ9EHowLACIPxjIsg6MMy2Jp23bMGACoVatJk7/+37nLAdZiKSzMygJ8fY8dW7q04semw/IpqkLMTwPz0ySYn0SmwQUAkQlcWoYlg4RdzJ8xQ0yEF/Y2bKh6PucRwmIxLnHt2ROwWFq1Gj4cAP64DMtVD7Asn7qA5VPkBMxPB+anR2F+EpkWFwBEJsQyLAej9ErTIiIGDzb+OWSI8e+tVtc5wEpptfr7A97eWVkbNwLe3tnZmzdX3KNqFpeWT+kvi6FYM2nS4vnzH5r/0LFjqucjc2B+OjA/3Qnzk4gcuAAgIkS+E/lOdHSzZoiwdNKffuUVZIqjOHDLLWYsw6pbFxCiTZtRowBd37nz66/VzVNaGhTUpw9gtRolVGYvn7LX1EdpN8bELL4lQcTG7tqleiwigPnpwPx0UcxPIrqEab4wEdGVYxkWKcXyKXJjzE9SivlJRH+BCwAi+ktRtcbtGbdn6FC9jx4opr35JqziAWjt2qmeizwEy6fIgzE/qVoxP4noKnEBQERXjGVYVCVYPkUmxPykKsH8JKJK4gKA3ELkPeP/Pv7v7drJ+/R3RPPevcWHeFymhYTI7nKoHKXr+J+or206csTSRV9Z5r1yZcLrCa8nvJ6RoXpuTxclo2SUrFNHz9O+9Hr2mWfwAgrQ/JFHkI71WOLjo3o+cg0sn1Jr9LrR60avq1lT97WM8nmzUyd5HV6UdcLCLLdiOU6Vloq9+i4Zk57u3d27u/bazp2xcbFxsXGlparn9nTRE6InRE8ICCiJLY/VY2NisFwekHmTJ5uvTJD+DPNTLeYneSIuAMglRQaN6TJ+2PjxeE+MlS88+SQ+w04xu0ePv/rfOb5Qig9Eoqi1fLmMwkPa6BkzkrrHn46NW7dO9evydMZCIDzc/q020LLxlVdEEe4RR//2N7OVYZFB3i6fQMfly3Uh+2q/TJrE8inniPom6pvoCR066DdqT9hvi4nBUvyM7uPH4wc8Jx7397/s//DCpcT4G2ag87fflj8p6mH07NlLUub/OP/HzEzVr8vTRf0n6j9R/wkJsb+kzfLq8dxzOCXPyzH33CP+T9wp/qFpqucj52J+qsH8JDPggZxcQnWXJjm+kIpllneR/NhjCz+d9/287/ftU/26Pd3odeMXjF/Qvbt8S58rS+fMQQnKxf8GDlQ9F1WTGPjg/uRkMQcl4oNp01g+5Ryjto3adutHDRqIdOsDtrumTMHLqCXGPfggmqAmfCyWa/6Fk3AIBcXFaCfXy7ffftv3Ous9lhdeecX4hOvMGdWv29MxP02G+akE85PMiAsAUsLxSYdeLlp6jX7pJbQX/jh+++3V/UmxnCbflZ+XlaGdaCSWfPGFdQqe0rdNmRI/J35O/Jy8PNXvi6djGZaH2YcRePH4cTwuX5c5U6f6rrG2t7z/5ZexsbGxsbFmesK2c43aNmrbqG01aoi51kKfJg8/jCbwl0XPPIO1eEU8XatWtf3GS+CHbgUFYqL8J56fMYNlY87F/PQwzE8lmJ9EXACQk4wcOXLkbbfVrasds84teWryZLyBbDR69FHV9zrKj7Edx8+dE41xDBtee+0saiEAr766WnwlvhIlJarfN091aRkWHhN/EzVeeAF18AMmN2qkej66jFvwonyjqEgWya1YM3u2rXdRF///zJmzrNOyTl/nFRWpHs9TTZPT5DSpaTtH7xm7b8L48bKunCyXzZmDU2IWbgwNVTbYckySXx88KIZilnbHlCn8xNI5mJ9uivmpBPOT6Pe4AKBq4bZtxz+hP6ZlZGCjXCPx4otdu3aK79Dh00+ni+liutB11eN5KpZhuahsFMJmt+NB+T958xdfeI0Suvzb1KnxgfGB8YHZ2arH83S/fuL7rLxPpM2Zg3VohK87dVI912UNQ4R8aONGuUHebXn/iSeSvlvQJjZ240bVY3k65qeLYn4qxfwkujwuAKhKjZoctWV8SGSkiNf85LHXX0drTBXRLVqonutayS/kPcjetk3cLN7QgmJiFm6LXx4bu3q16rk83fAW424ed3NwsGWvTBL/mjKFZVjOJb/Gbnzy44+WJP0F7d4nn0y4PeH22Li9e1XP5elG5I9tN7ZdmzaW0bhVbJw1C/WxXdw1apTqua5aJMZivJSyK+bL9nFxYmP5EMuMyZMXPrzw4djYI0dUj+fpmJ9qMT/VYH4SXTkuAKhSqru8z9WwTFANlmFVswvlU1gip4mnn3xy4asL2sRtTUpSPZanMx4v1bSp3s3Sy5o5bZroj5vxzd13V7p8ytXsQDYKS0vxDnSZ9OGHvt96hVpumzqVZVjOwfysZsxPJZifzE+6dlwA0FUZtS16QvSE0FDx37Ih+kMvvuis8j5Xc2mZoDhbXlA6eOrUhY0WNlrYKDdX9Xye7tdL+z6Qk0XmG2/ge/jis/btVc/lNi6UT4m+8k6smjKly387Wdvf9+WXvNWlev2ufGojFiHu2WcRiFSsqVlT9XxOc6EMCw9jIu6cPds3w+s97dE33uDzs52D+VlJzE8lmJ8XMD+pCpjmGza6Nq5a3udqLi0T9L3F6xbtlpkzjTbf4mLV83mqgXKgHCi9vGrtqDu2/t5//5tlWH/s1z+fkWiF+rNnl3x27rUaW157jeVT1ctRPrX9hj1J+x6+/XbMxmuy1quviumoi4NNmqiez2W8gUA8euiQeBx54q3nnmMZlnMwP68M81MN5ucVYn7SNeACgH7DKBPy9i5JLO+jT33wQaxEDG597jm8iihcV6+e6vncxv3Yi6bHjsmG4u+y9jPPJHWf/+L8F7/7zvhJKVWP56mMP7+1a5ccKPvUPvXpp826sJIfya/kXF0Xr2Ku2DR3rtcUMUFvN3kyy6ecw+3Kp1zNhTIs7Yiui5CYmITXE16f12LDBtVjeTrmp4H5qRbzs5KYn3QFuAAgAJ5X3udynscgOW37dr2r/ojoEBOzSCSIeWLVKtVjeTrTlWHVxhD5vyVL4KutE7dPmsSOCueI6hfVLzq6bVv7m9ov+juzZonpGIwHR45UPZfbYxmWUsxP5qczMD+rCfOT/gQXACY16tYxydHRvXuLPuIz+wOvvYalSBXv9u6tei7T6IOPUWvBAtHfflA799RTif0S+8XGHjyoeixP53FlWP2Qizt279ZeEh/K5jExCWfnd5zfcfly1WN5OtOUT7kalmEpxfykqsD8VIT5SRfhAsAkWN7nonpgGEaXl8sYTITP55+zTNC53K4M60L5FGLlIlk2fbrvq1arZcZnnxldE3a76vE81Y27b9x9R0N/f98vA06e3/nQQ6Ytn3I1LMNSivlJV4L56aKYn6bGb/w81E3B0dHR0fXqed9fvtX+4XPP4X00Frc++CC6oglqenurno/+mJyGlTji2MS++mpht1qnAra/+eZq8ZX4SpSUqJ7PU/1ahjW8fkj9kHvvxT36AeH7/PP4StyBToGBquZylE/hWTlR/mPmTDxQPry01+uvJ3VP6p7U/fx51e+bp2L5lJtiGZYSzE+6GPPTTTE/TYULAA9x78R7J9470WrNvi/vRP7Dd92FI/hGjHvxRdVfgKmSZuAYwjMzYZeh8s4ZM7p27RTfocOnn/JxQ9XLKMMKCCiJLY/VY2NiEIzeuOnpp6t7gSZOoBA2u11fiR9x+2ef6Qu9btXmTZu2+JbY2NjYnBzV74un+/UTzWDdKp567TVEiGfg17Gj6rnoGqVjKUZs2qQN0f8PA594gmVYzsH8NCfmp4dhfno0LgDcmhCR94z55/i/R0ejl1iCWq+8ggT0Q0Hz5qono+ohv5D3IHvbNllfjsD6SZNYJugcjlto0LzsPb3f11+LO8V9WDtgQFX9+mKJjJBv7d0reslNlsf//veEdQnrYmP371f9uj0dy6dM4pIyLDlNvAA89dSiRfM7zu+YlqZ6PE/H/PRMzE+TYH56JC4A3EzUf6L+Mz6lTx99hfYRVr/2GkIxDIt79VI9l7P5+wcGXnwhWVHRiRNmfDiPvE3OwxuJiWhp6Y4xkycndZ+3Y96OAwdUz+XpRo4YHTlhfHS09oWlULZ+6y3cc5WXNtaQI/F6fj764TWZ9tRTCx9ekDx/8GefqX5dns7Rau7VAr+Ix2bMkJ/r++Wgf/7TY1vNL8P0+fmIfFm+X1KCx9EEuW+95Xud9R7LC6+8wjIs52B+uifmp4H5yfz0BFwAuLjRvUb3ip7QooX8UvtCn/7KK1gjtmL3+PFmK+/z9vb3r1ULaNasX78RI4DGjTt06NGj4udzcvbu3bIFOHJk3brFi4HS0qKis2dVT+1EF8oEsV22kfs//rj8F+u7ltTnn1+SEhsXG3fihOrxPN2obWNPjD3Rtat4Ue6zDL37bnQQmTK5RQs8JGsiRkqsFy/J5w8elO9givzp88+TVsZHxkfu3q16bk/H8imD1Vqjhr8/EB7eq9ewYUDTpl279u8PCGH8Jydn//5t24C0tNWrFy40YX4+hQQcOHkScViBpbNmlS8smXh+4JtvLklZkrIkxWZTPZ6nY366Juangfn5F5ifbsk030C6i1/L++qUfWKf8uSTGCg+FVseewzpWI8lPj6q53MWi8Vq9fYGgoK6dOnfHwgNNYLXy8vH58/eBbu9rKy0FMjK2rlz7Vrg2LGNG5ctA+z20lJTVejdghflG0VFuB1tRcicOb63eN2i3TJzptF2XFysejyi6nBp+ZQYJ7vJhJkzsVQ8iB6NG6uez1mYn5XUDYsQcPiw2I4R4tyzzxplWHFxxk9KqXo8ourA/DQwPyuJ+ekWuABQjOV9DkIIAQQGtmrVqRMQETFo0OjRgK9vrVr16l37r1paeu7cmTPAkSMbNvz0E5CTs2fPpk2AlFKaqkLvkjJBPv6IPAnLp5if1epCGZbIExPl3piYxOz5b85/c/161WMRVQXmJ/OzWjE/XRIXAIqMmhy1ZXxIZCSitR/wwxtviOlIxZyICNVzOVvdumFhrVoBzZsPGhQVBdSs2bBhUFD1/X5FRQUFOTkVl2oVFKSm7tun+l1QIAyH8LcdO8TfxUxZIyYmsd/8UfNHrVypeiyiK+Eon9JfE//WQ2bPxotiIY6NGKF6LmdjfjoZy7DIAzA/DcxPJ2N+uhQuAJwkKjwqfPzGnj31CdpQWTBnDg6iQHzRr5/quZytRo169Ro1Mu7lHz4cCAxs3bpzZ3XznDp17NjBg0Bq6sqViYnAuXMnTmRlqX6XnE/eLp9Ax+XLLWXyqLb3P/9JuD3h9ti4vXtVz0UEACMPRkdHRwcFidDy7/TxU6eK/rgZ39x9N5qgJnwsFtXzOQvz08XsQDYKS0vxDnSZ9OGH2lh9s906bVqCSBAJ4vRp1eMRAcxPB+ani2F+KsUFQDUZMW7cu+PeDQuzBOsW0X7GDLQX/jh+++1mK+/7fXlKly79+gFCaJprfdmRUkqWuTjKBGUMJsLn88/5HGVS4dLyKfkk7sSE554T96IbmgYEqJ7PWZifboZlWOQCmJ8G5qebYX46lWm+Ea1uLO8zXGt5iqux20tLjTKXXbtMXebiKBOcKYNw+t13jce9vPii8biXc+dUj0eegeVTBuanh2EZFjkB89PA/PQwzM9qxQXANYqeED0heoK3ty2w7B498f775SIRj5eefx6dkIdNdeqons95qqc8xdWwzOWCdvJlrM3KQjSelstfeIFlglQZjvIp+8/yEOq9/rqYjrni0Q4dVM/lPMxPM+WnnIaPcWTzZgAtteYxMUnd40/Hxq1bp3ouck/MT+Yn85P5ea24ALgqQoyOHDtmwvgJE2QU1sv6r76KBPRDQfPmqidzNmeXp7ia8+fz83NzgZSU1asTE4GTJ9PSTFXm4lAm34e+b5/cawnDoiefTMqaVzqvdPFi1WORa3I87xuQ+drnc+aI6eIZbBk8WPVczsb8NHl+XlKG5fW9bKH/9+mnF8xZMGfBnNRU1eORa2J+GpifzE/mZ+VxAfAXfi3vOyUOYddrr2GA+BuW9+2rei5nc7XyFFfjKHNJSVm5MiEBKCo6ceL4cdVTOZ+jTFAMsiyG7YknFjaa9/K8l/fsUT0XqcHyKQPz88+ZPT/lNPmu/LysDO1EI7Hkiy+wr2yX95lnn03qntT9u//Lz1c9H6nB/DQwP/8c85P5eS24ALjEqKDx3uO9W7ZEgj5CbnvpJbED48QvEyawvM9Vy1NcDctcAEB+JL+Sc3VdvIq5YtPcufZ+1p+19558kmWCnu3X8qmOAR3P506aBA3tMfjJJzEKrVDfz0/1fM7C/LxWzE8ALMMyKeangfl5rZifAJifV8g039BeDsv7DJ5SnuJqWOZyAcsEPdJAOVAOlF5etXbUHVt/77//jQ14X4ycPp3lU8zPqsD8vOB+7EXTY8fkbLwh5NSpSSvjI+Pe/fpr4ydZhuWumJ8G5mf1YH5ewPz8Q6ZbALC8z8Ec5SmuhmUuF7BM0K2xfIr5qQLz84K70UVO2rJFBuN1y5wnnmAZlnthfjI/VWB+XsD8BGCaBQDL+xwc5SmOwA0IaNgwOFj1VOZl+jKXC+TnuE9+vH8/OmuRosmkSSwTdC0jR44ZEx3drZuYjlf07rNnm718ivnpGpifFxSgm/wiKcnSR57WX3jsMZZhuRbmp4H56VqYnxeYND89dgEQuXjczeNu7tULt+qJImrOHJb3sTzFHZi9zMWBZYJqDW8x7uZxNwcHW/bKJPGvKVNYPsX8dAdmz89Ly7DsHbz+rsU999ySlNi42LgTJ1TPZxbMTwPz070wP82Vnx6zABjRdEzymORWrbRE8bRW9uKLLO9jeYp7+32ZS2KiUeZSWKh6Nie+CywTdArj1qiAgJLY8lg9NiaG5VPMT/fG/AQAtMAjctqpUwAg6s+cyTKs6sH8NDA/PQXzE4DH56fbfmPM8j4Dy1PMgWUuF1xSJig+1H8pP/vSS4n9Evsl9jPVl6ZK+V351GPib6LGCy+gDn7A5EaNVM/nLMxPc2B+XlBXPoll6ekyQ+SLf06ZwjKsa8P8NDA/zYH5eYGH5afbLAAc5X2lsfZzsv8DD+iz5Qvy1unTsRav4P5atVTP5yxCGOUpDRo4ylMGDjTKU2rXZnmKedhsRpnL0aPmLnMRhRiBF48fl6/JRbJs+nSWCf65yPVjtQmDoqIwFOv0xTNnYihmiztat1Y9l/MY+dm4cfv2119vXJo6ciTg4xMQULu26tnIWRz5eeTIunWLFgE5Ob/8snUr4PjkyyzkPzEHyRs2YL4s1drFxCR9t6BNbOzGjarnclVRcnzXW+4dM8YeIwPseO01cUjWN1eXFPOTmJ8OsgwR8qGNG1FX3m15/4kn3C0/XXwBoGmRt471Hes7c6ZYiAit14MPysHmuqTKwVGe0rz5oEFRUUDNmg0bBgWpnopcRWFhXl5WFpCWtmpVQoJxL9ehQ6qnUuBO+TV2nzghRouV4uaYmETv+Mi4d//7X9VjqRKljWsXHT12rH2e9NFD335bfI4wHDVf7RLzk/4M89Mgm6NEdvjlF0uCnmz/8p57Eo4mHE04unmz6rnUEMLoknr0UdSWS0XGlCl4FVG4znwftTA/6c8wPw3yLpmNRw8d0hrqc8q0++4zrkxduVL1XJfjcguAEflj241t16aNZZXcrNlWr8ZX4g50CgxUPZez1ajRoEGjRkZbalQUUL9+s2Zt26qeitxFQcGRI/v3A6mpRiA72l5N56D8m4xNSfFaL4bIggED4gPjA+MDs7NVj1VdomSUvFPWqWOfJ+4uarJypfhKnJJ9zVe7xPykymB+Gp/jyXVogVoLFvgNtR7Tzk2Y4OlXVkX9J+o/fx8WEmKfrNUuvWvNGnEPdom48HDVczkb85Mqg/lpkH1lBxG+dm39ybWn+88ZNuwr8ZX4SrjOTRMuswAY0fRv7/ztnVattETbuPJ7fvlFTBcP4XarVfVczuLt7e9fsyYQHt637/DhQJMmHTr07MnyFKocKXXdbgeys/fu3bwZOHp0/folS8xX5iI/xnYcP3fO3r/EWwtq3nxJypIUT2p1vSn4puDo6Hr1rP/0+1x/78gRsVd8YKZbo5ifVB2Ynxc0kt/CeuCA7xnrPzV7+/aetggY3mLczf94ODjY8pr8sOTlw4fFp3gc//L1VT2XszA/qTowPy+8D5+gXNbPy0Nm2bTSe5s1S+qe1D2p+/nzqudymQVAZP+x341PyckxS4kKy1NIBbOXuci7EIhHDx1KGhf/8bwBnnPve2TK2HvHvXvwIB7HCbGyVSvV81Q3R34GB3fvPnAgEBrao8eQIYDF4u1tnmM7OZsjJ9PTt2xZsQLIzNy2bfVqwG4vKystVT2dE8SJepgZH7/QZ/5n81qMG6d6nKoyKn5s1/FPZGSY5RYp5iepYPr8vBtdxLItWxaOiZ8ad7ZnT9XjKF8ARHqPfX38nscfx01Yi+mvv656nurjKE9p185RnjJiBODjU7NmnTqqZyOzstkKC0+fNspcFi8GcnL27TNDmYtuh9Ttt9yyaHH8gvgFsbGq57lWkf8bM3P8A7feim/EJuR++63qeaoP85NcjxnzU0rAMku+rL/UuvWCNgvaLGjjvnf7RgZEvTrh+f/7PwzWNsu9H36oep7qw/wk12PG/AQAfFr+oT5q2LCFjRY2ir9r2TJVYyhfAIx6a2yL8Q8fPSqWowOOh4WpnqeqOcpTIiIGDRo9GggIaNjQ8/fL5K7OncvLy8w07t1KTPTcMhcpkIs7du9OSozfMG+M+94jPzp0zMvjCvbtk53EVnGv592lyfwkd2KW/MRmfb58LyFhYV6CmN94zBjV41yryFZj947TDx9Ga0wV0S1aqJ6nqjE/yZ2YJT/lNHyMI5s3J3WPD5y3o1cvVXN4qX4jxFk8ge5BQQCWIlH1NJVXo0a9eg0bVmxYAwNbt3bfby/IbBwHhE6dbrnlgQeMAD54EEhJWbkyIQEoKjpx4vhx1VNWnojGJ7JrixZIRDvVs1SGtItEcWuLFgCaoKbqaSqP+UnuzCz5icFaEtL79sX/VA9SOaIcE8XNoaGS+UmknFnyU7RBN/i0U372VHYFwL0T751470SrNTvnRH7BSfe9+8PLy8fHzw9o1mzAgFGjgKZNO3bs1YvlKeRZHGUux4/v2bNpk1HmsngxUFZ2/nxRkerpruH1jJRRcqyUSfct+Nf82zVN9TzXRohRo8aOHT9e14Xya7mujdVao4a/v1E+NWIE85M80+/z03h+dllZcbH6KqhreD3T5Lvy87KypO4LgubX9vZWPc+1ESIy0shP1ZNcK54/yQw87vz5kfxKztX1pKYLas33Vfc3VdnBt8nHTT5u8rH7t8iWl9tsxcXAiRMHDuzaBZw75xkbKqKLlZfbbCUlgM125szJkxU/dldikUgQ8e76bbODlO7+CsrLS0qKi41L/7Ky3PcbIqI/Y7OdO3fmDHD2bFbW0aMVf+7dlVgiEsUCd08f97/LmOdPMgOPO3/+n7hT/EP9B0/KbgGYLqaL6ULXjQ2s6reh8k6fzsg4fBjYsePrr19/HWjQoFWrTp2AiIgBA0aPBnx969SpV0/1lERXRkq73di47tq1bh2QlmY8vsVud+/gJdcipa7rOpCdvXv3hg1AXl5y8rZtQEjI9dffcENFO7WmeXmZ56Gw5O7KykpKzp8HMjI2bzbarrdvX70a0HW7vbxc9XRVYCdycd59r9z0NDx/kifh+dM5lHcAeBopjfbKEycOHty1CygoSE3dt8943MqgQcaBduhQPu6PXIvjz21+/qFDu3cDqalr1iQmAiUlp0+fPKl6OjILx2Mqjx5dv/7HH43FwMaNQHh4nz433QQ0buy4xFUI9ftzIoNjkZWTs3fvpk1AWprjEn/3vET1L1nRDSN4rY6r4fmT3BHPn2pwAVDNdL28vKwMSE/ftGnZMiAnxzjQhoX163fzzcY9W717854tUuPMmePHjx4F0tJWrlywoOLHRK7Acen0wYNLl/7wA3D8uJGfERGDB48eDdSpExLSsqXqKcls/ujAmpRkHFjz81VP5wRtMB5TT51SPQb9OZ4/yZXx/KkWFwBOVlpaXHzuHHD48LJlcXFAVtb27WvWsLWVnOP8+ZMn8/Iqnrvq+KSAyB0UFubmZmQAu3Z9//177xmPuWrdGmjRYvDgMWMAf//AwCZNVE9Jnqqw8PjxY8eAlJTVq40Da2bmkSOqp1JgMMbhjvJyPI/v8ZXqYehK8fxJKvH86Vq4AFDM8Rdi377ExC+/BOrUCQ1t0cJ4bmtUFFCzZqNGISGqpyR3VVZWXFxUBBw7tmHDTz8BWVm7dq1fX9GqSuTOHI8J2rr1q69mzQIaNWrTpnv3iudee3v7+9f0gMd7kRrFxadOnTgBpKWtXbtoUcUn/o4rAIjcGc+fVJ14/nRtXAC4mNOn09NTUirKXBo2bNOma9eKx7z4+tasWbeu6inJVTku+cvM3LFjzRrg2DHj0j+Wp5BnM74hy83dv3/rViA/PyVl924gKKhz5/79gbCwPn2GDQMsFquV977S5Xh8eR/Rn+D5kyqD50/3wgWAi3J8wpCbu3//9u3GpTK7d1eUuYSF9ew5dChgsfj4+PqqnpZU+f29qKtXG+UpxuNSiMzIUSaYnr5ly4oVRo5u28YyQfqtS9umjxwxyicdj1cjMiOeP+lK8Pzp3rgAcBOOTyDS0zdvXr4cyM7es2fjRiAkpEePG24AgoO7dRs4ENA0i8WL/696vNOn09MPHQJSUlauTEw0nqOemal6KiLXdGmZYEbGjh2rV1dc6lq/frNmbduqnpKq26UH1rS01asXLgSKi8+cKShQPR2Ra+L5ky7G86dn4F9VN+W4t8ZxgMnJ2bt382aWuXgqlqcQVZ3z5/Pzc3OBvXvj4j7++LdlglFRRplg06aqp6SqcvZsdvbRo0BqqnFgPXMmKystTfVURO6J509z4fnTM3EB4CEuLXOpVatJk/DwigNtrVpBQc2aqZ6SrpTj+dHHjm3cyPIUoup1cZng7NksE3R3LO8jch6ePz0Lz5/mwAWAh3J84rFz53ffvf020KBBq1adOgHNmw8cGBkJ+PnVrl2/vuopycFuLysrLQWysnbuXLvWeG7v0qXGvag2m+rpiMzir8oEe/e+8UbAYvH25r2vroPlfUSug+dP98LzpzlxAeDhHJ94OC7Zyc9PSdm7FwgK6tSpb18gPLxfv+HDAS8vHx8/P9XTmonj/xeWpxC5KpYJuiaW9xG5Pp4/XRXPn8QFAIRo0qRTJ0DK7Ozdu1VPU/0cByfHYzpycw8c2L4dCA/v3fumm4CmTTt37tcPEELTeKCteo5LjdPSVq1KTAQKC/PysrJUT+V85eX16193HeDlVVBw4IDqaehamS0/Ly0TPH7cuDSyeXPjVgFHlwBVLcc3Enl5Bw7s2AEcObJmzaJFQEnJ2bPmOrAai6by8rp1W7QAvLxOnjx0SPVMdK3Mlp88f6rF86eB50+D6RcAFku3bnfdBRh/NQC7ff/+hARAylOnzFAS5LjX5/DhFSvmzzeCee1aoHnz/v1Hjqy4dEsIIYRQPa37OX/+5MncXKM8ZckS85an2O0BAU2bAjZbWNjQoUB5ea1aoaFArVobN774ourp6FqZPT8dB6jdu3/44YMPWCZY1RyXEqekrFyZkACcPZuVdeSI6qmcr7y8du1mzQCbLTz8xhsBKY1FQEAAFwDuzOz5yfNn9eL508Dz5x8z/QKgQt26YWGAxdKnz8MPA1Lm5OzeDeh6cvLChYCU58+b4TFBjvKkS8tcIiIGDx49GqhdOyioeXPVU7oulqcYdN3Hp3ZtwGYLCRk0CCgra9CgfXvA+FKuejqqesxP4M/LBCMjjTLBWrVUT+m62DZtsNv9/Zs0Mb7hHzLEOLCGh1f8vKYVF+fnq56Sqg7zE+D5s7J4/jTw/HlluAD4HeMPiBBNmnTuDFgsjRp16ABIeezYunWA3X7o0I8/AsaDUFTPWv0cn8Ds2vXdd++8wzKXS7E8xSCll5evL1BaGhTUpw9gszVp0rMnAAhhsaiejpyH+WlgmeCVcDxOLCNjy5affwYyMrZvX7Wq4lJhs5DS27tWLcBmCw7u1w8oLW3YsEsXgAdWs2F+Xoznzz/H86eB589rwwXAX9I0iwUQolmzgQMBiyU4+PrrASlTUlasAHT9yJHVqwFA1z25bZhlLhe/ExeXpxj3UpntXlTHJahlZQ0bdu4MlJaGhAwcCOi61ervr3o6ch3MT+D3ZYI5OUaZYLNm5ioTvLS8Ly1t/folSwC73WYrKVE9nTNZLFYrYLM1bdq7N1Ba2rRpnz6AlJrmxVMZ/Yr5CfD8+dt3gudPnj+rBr/UXCUhrNYaNQAh2rSJjASECA3t2RPQ9QMHFi82ylzMcMni78tcjANtSEjPnkOGAMHB3boNHGh8+fKEA82pU8eOHTpklKckJJi5PKVu3ZYtgZKS8PBhwwBd9/WtW1f1VOQumJ+G0tLflglmZOzYsXo10KLFwIGjRwP16jVv3q6d6ikrz3Fwz893HFjXrDEOrKdPm+nA6ijvKy01Dqw2W0jIgAGAlFZrQIDq2chdMD8NPH/y/MnzZ+V5wF8NtYTw92/Y0Chz+de/AClPnz56tKLMBTh50gylRY7nMKelrV69cCGQnb1nz6ZN7lvmwvIUw+XKU4iqAvPTcP58fn5uLrBnz7x5n3xSUSbouPc1ICAwMChI9ZRX7syZ48ePHjU+oWJ5X0V5n91eo0bDhqqnIk/B/DTw/OmZeP6sXlwAVDEh6tQJDwe8vHr3fuSRijIXuz05OTERMP5qq56y+l1a5lKzZtOmYWHGJ1xjxgC1awcHN2umesoKLE8xsDyFVGJ+Ghxlgtu2ffXVnDmuXybI8j6DrgcENG4MlJRUHFgvLu8jqk7MTwPPn+6J50/n4gKg2vy2zMXL69Iyl4MHlywBgPJyM9z7WFh4/PixY8DOnd9999ZbQP36ERHt2gEtW95ww9ixgK9vnToNGjhvHpanGFieQq6J+Wm4tEzw8GGjTLBLF5VlgizvM7C8j1wT8/NiPH+6Jp4/1eICwGl+W+bi5RUU1L07oOupqT//bJS5rFoFAObY+BUUpKbu22dcoJacDDRu3KFDr15A8+b9+o0cCVitNWpUbZkHy1OMd4HlKeSOmJ9AxcHR2WWCLO9zvA+a5u1tHFh79WJ5H7kL5ufFeP5Ug+dP18IvWcp4e/v7A5pm9jIXXdd1IDt79+4NG4D8fOPS0aoqc3FcSpuWZgQuy1NYnkKegPkJ/L5MMDNz+/bVq43HZI0eXfFJ19VieZ8Dy/vIEzE/AZ4/nYXnT9fEBYCL+H2Zy6lTR48Cur5//4IFFT/2dJeWuRw/vmPHunVAeHj//iNGAI0atW3bvfvly1yKigoKcnKAo0fXr//xR/Pei+ooT3Hci2q3szyFPBfz01BUVFCQmwvs3Tt//rWUCTrK+9LSVq5csKDix2bjKO8rKTHK+3Sd5X3kuZifBp4/qwbPn+6BCwAXJUTduuHhgMXSp8+jj5q3zKWkpLDw1CngwIHFi+fOBY4fN+6ZiogYNGjsWMDPr06devWAI0c2bPjpJyAnx2h/lVJKXVc9vfPouuNe1NDQwYNZnkLmxvw0XFomGBhotGFHRAweHBUF6HpZWVkZy/sc5X3FxaGhRlt/7dphYaqnIlKD+Wng+fPK8PzpnrgAcHmXlrk0bNiuHaDrR4+uWQPo+uHDy5YBZilzOXs2Ozs9vaLMRQhN07SKS7nMguUpRFeC+Wlw3INqfIOfn3/48N69Fx9UjZ83i0vL+8rKGjXq0gWQEuCBlciB+Xkxnj8NPH96Bi4A3I7FYrUCmhYRMWQIoGkhIb16GUH8009GMK9fDxi1TapnrX5mCd5Ly1NsttDQQYOMIK5RQ/V0RO6C+Wm8OnOUfVW8Xpb3EVUe8/NiPH/y/OnO+KXP7TnKXNq1GzcO0LTQ0L59AV1PTk5IAHQ9L2//ftUz0tUzNu9lZfXqXXedEbg33MDyFKKqxfz0RBUH1kaNuna9uLyPB1aiqsP89Ew8f5oBFwAep2bNRo0ATevR4957ASHy8w8eNAI5MRGQ8swZM7aQAsblnYBrX+Jpt9esGRRklKcMG1bxYyJyBuanOysvr1evdWugpMRxYPXzq19f9VREZsH8vByeP8nVcAHg4YRo0KB1a8Bi6d8/JsZ4vMvu3Ua7qxHIxcVmKHMx3gvVE/yeY6Pq2LA6Nq4sTyFSj/np2ux2f/8mTQCbzWjrLy9n2zSRq2B+XvxeqJ7g93j+NDcuAEzk4jIXi6Vhw7ZtAV1PS1u1CtD1lJQVKwDAbrfZVE/quaT08vLzu7h8qnHj7t2NS1ZZnkLkupif6knp41O7tvEJv9E2Xb9+u3YAD6xEro35qR7Pn3QxLgBMy2Lx9gY0rWXLYcMATQsLM+7dMmeZS3VheQqRJ2J+OgPL+4g8EfPTGXj+pD/DL6F0wW/LXIQIDe3d++JLtU6cSE5WPaM7cJSn1K/fpk3Fc1F13ceH5SlEnor5WRUuLu/r1s34pMoo77Na/fxUT0dE1YP5WTV4/qQrxwUA/SEhatZs0gSwWHr2/L//A6RkmcufKS+vWTM4GLDZwsJuvJHlKURmxvy8OizvIyIH5ufV4fmTrgUXAHRFKspc+vV74glAyoyMLVsAu/3gwcWLAcBmO3tW9ZTOo+ve3rVqVWxYy8oaNGjf3nineC8qEV2M+flbjvK+khKjvM9uZ3kfEf0x5udv8fxJVYELALpKxiWaQoSG9uoFeHkFBXXtatyztXatcQ/XsmUAUF5eUqJ61qrD8hQiqjyz5ifL+4iossyanzx/UtXjAoAqyVHmEhExZAigaUFB3bsDdrtR5iJlevqmTQAgpa6rnvVqGCVTNlujRt27A6WlRvBK6eXl66t6NiLyDJ6Zn46cdJT22WxNm/bsCQA8sBJRVfHM/OT5k5yBCwCqYr6+tWsDFkuHDrfcAkjZrNmAAUaZy8KFgJR5efv2qZ7x8srL69Zt2dK4NHXYsIrnpBIRVT/3zM9L26ZLS0NCBg4EdN1q9fdXPR0RmYN75qcDz5/kTFwAULUSIiCgcWPAYunRY+LEi8tc9u1LSACkLCw8flzdfHZ7zZohIUbgDh0K2O0BASxPISJX4Or5WV5eu3azZkBJSbNmN9/M8j4ich2unp88f5JKmuoByFwqylwGDIiJUT0NUFTUvv2ddzJ4icj1uVp+lpQ0a3bTTfzGn4hcn6vlJ8+fpBIXAKSIcckoERFdLeYnEdG1YX4S8a8AERERERERkQlwAUBERERERERkAlwAEBEREREREZkAFwBEREREREREJsAFABEREREREZEJcAFAREREREREZAJcABARERERERGZABcARERERERERCbABQARERERERGRCXABQERERERERGQCXAAQERERERERmQAXAEREREREREQmwAUAERERERERkQlwAUBERERERERkAlwAEBEREREREZkAFwBEREREREREJsAFABEREREREZEJcAFAREREREREZAJcABARERERERGZABcARERERERERCbABQARERERERGRCXABQERERERERGQCXAAQERERERERmQAXAEREREREREQmwAUAERERERERkQlwAUBERERERERkAlwAEBEREREREZkAFwBEREREREREJsAFABEREREREZEJcAFAREREREREZAJcABARERERERGZgOkXAFJmZ+/erXoKInPx8iooOHBA9RRUWcxPImeSUtcBL6+TJw8dUj0LVRbzk8j5eP688D6oHkA1u3379i++AIC6dcPCAIulTZsxYwAh6tVr1kz1dESewWI5d+74ccDH59ix5csBL6+zZ9PTVU9FlcX8JKp+Xl5nzhw5Avj4HD26bBlgsZw/n5eneiqqLOYnUfXj+fOPmX4BUOHUqWPHALt948a33waEaNy4UydA09q0iYwEhKhRo3591TMSuQdNs9nOnAF8fNLTV60CrNaCgl9+AQAppVQ9HVU95idRVdG04uITJwBfX8eB9dSp1FTVU1H1YX4SVRWeP68MFwC/Y/wBkTI7e9cuwG7Pzd27F9C0sLC+fQFNa9Vq+HAAsFr9/FTPSuQahCgvLykBvL2zsjZsAHx8srM3bwYAKe121dOR8zA/ia6WEKWlhYWAj09m5tq1gLd3Xt7OnQAPrGbD/CS6Wjx/XhsuAP6SrtvtgK4fObJmDSBlZua2bYAQLVoMGQJoWrNmAwcCgKZ58d0kkxDCuBfVas3L27WrYtMqRHn5+fOqpyPXwfwk+j27vawM8PHJzd26FfD2zshYtw4QQtdLS1XPRq6D+Ul0KZ4/q4b6EsDdaIhep0+rHuNKSVlWdv48oOvJyQsXAnb76tWzZgFS5uTs3at6OqLqYnwyYbUWFCQnA/7+u3Z98AHg65uWtnixGwbvLXhRvlFUpHoMs70O5ieZk+PAmpu7YwdQs+bOne+9Z9yT+vPP7veNv2wn78BU98mdy+L5k8gN8PxZHdTvDEdjHcLS0nAMrbCpa1fV41wtKYuK8vIAu33bts8+A4SoUyc8HLBY2raNigIAlrmQ+3KUpzjuRbVYPKQ85Tgmih0pKarHqLRXpCbuS01FhAD8OnZUPc7VYn6SJ/PY8r6fxEw550J+9lE9TCXw/Enksnj+rF7KrwCQ3TAfBRs2qJ6jyl6PPH366FGgvNwoc9H1nTu//hqQsqTk1CnV0xH9OU0z/pz6+R06NG8e4O//yy9ffOFBwevwgdgDbNumeozKkk+JBUhz/9fx6+thfpIbs1iKinJyAH///fu/+QaoUWP//rlzPegb/wvEUBGGD9w/d3j+JHIdPH86l/IFgB6Jcfq777+PSIzFeE+quzEuWdH1rKzt2wG7/eefX3wR0PV9++bPBwCjtIJIJUd5iuNS1ICA3bs/+qjiUitPLaES34hvgA8/VD1HpbXFPfra995TPUbVY36S63OU9zkuRfX337v3s88Ai+XMmaNHVU9XDZJwCAXFxZaT+jP6M19+qXqcyuL5k0gdnj/VUr4AWNwgfl/8vuRkRGGS9P36a9XzVJ/flrlUBPKxY+vWAWyrJOfQ9fJyoyV10yYgIGDnznffBXx8jh83Pgcxft5jzZYv44W4uMR+88bMG6N+A1tZSd3jA+MDd+xAnPwYM+PjVc9TfZifpJ7jXn1f34yM1auN/Hz/fcDb27i331MPrA5yq3xLxsyZs6DNgjYL2hQUqJ6nsnj+ZH6SM/H86UrnT+ULAIeSnHNL/e974AH8HSW423hioyeTsrT03DlA1/fujYu7uMwlN9fzXz05T0V5yr59QEDArl0ffWTck7p8ecUG1uMtxyT59cGD5aNskb4f3n236nGqmu8/rPdrT911F95AIB49dEj1PNWN+UnOYeSn4xv8gIAdO4xv+I3H9Qmh62Vlqmd0gvVIx1fLlvnNtH5k+Wr6dNXjVDWeP5mfVB14/gTgsudPl1kALOu0rNPXeUVFpZO9ArQvBg6UX2M3PvnxR9VzOYuU587l5gJ2+9atn34K2O3r17/5JiDlqVMeeSkhVSuLpbAwKwvw99+377//Ne6pio8HNM1mM9O9gHKafBk9Vq60f+X1huXOQYOWpCxJmfvO2bOq56pqsXGxcbFxZ86U3+x1Unu7Xz98Kv+F1j/9pHouZ2F+UlVylPf5++/Z88knF7dNl5WdO6d6OidqJofh4a+/Lll57vMazceOjY2NjY2N9bzPinn+ZH5S1eH50+Dq50+heoDLmSanyWlS03b23v3h3uIHHpBhIhi/TJuG8/hczGzQQPV8ziQEoGnBwd27A5rWuvWIEQDg51e3rurJKq+8PCnpscfU/f5nz/bu/dxzqt+FytO0kpKTJwFf3/T0n38GvLwKCg4cUD2VAjXwbzk5P18ck5loP316l42d7uvg9/7708V0MV3ouurxnIX5WYH5WX3Onevc+b77AF3383PnP1Wadv58bi7g62t8MuVYAJhOFNahflqafFd0k+mTJyftmv/j/B/j4lSP5WzMzwrMz+rD86eHcbPzp8suAC4VPSF6QvSEgICS2PJYPTYmBsvlAZk3eTLeFs+IB3x9Vc/nPBaL1QpoWnj4gAGAprVseeONAODl5Y7vAgP42ghRXl5cDHh7Z2Vt3Aj4+OTkbNkCePw9VJfagWwUlpbiHegy6cMPtbH6Zrt12rQEkSAShPs837m6MT8dmJ9VyV0XAJpmlPc5LuX39s7L27kT8PR7+H+nBR6R04zP5ET9mTPPvl5rUEDTt95aLb4SXwlTXJx7RZifDszPqsTzp5tz8/On2ywALjW8xbibx90cHGzZK5PEv6ZMwSl5Xo655x7xf+JO8Q/NZW5tqH7e3v7+gMXSsuWwYYAQ4eH9+gGAEBaL6tn+GgP4yghhlPR4e+fkbN9uHFzXrDHRPVQOF9qaZVfMl+3j4uQ08QLw1FOLFs3vOL9jWprq8dwF89OB+VkZ7rMAsNvLygAfn9zcrVuN/Fy/HhDCbrfZVM/mPHKafFd+XlaGdqKRWPLFF/YOXn/X4p57bklKbFxs3IkTqudzF8xPB+ZnZfD86WY87PzptguAS41eN37B+AXdu8u39LmydM4clKBc/G/gQNVzOV9AQMOGgMViXKolRJMmnTurnunyGMCX4yhPOXnywIGKx6SY7R6qX6VjKUZs2iTyxES5NyYmMXv+m/PfXL9e9ViegvnpwPy8Gq66ABACkBLw8jpx4pdfAB+f9PQVK4xP/k11D79DAbrJL5KShG5Psvz78ccTNyVuio1LSVE9lqdgfjowP68Gz59uwkPPnx6zALhUVK1xe8btGTpU/0BOFplvvIHv4YvP2rdXPZezCdGgQatWgKa1bTt6NCBErVrBwaqnqsAA/i1HeYqv77Fjy5cbP87IUD2VAhfa7MXjyBNvPfdc4sL4BXHzHPeimuoiXSWYnwbm559ztQWA4959x738jnv7TedudJGTtmzRD+l9RKuYmEVPJgydV2/tWtVjmQXz08D8/HM8f7ook5w/PXYB4DBQDpQDpZdXrR11x9bf++9/4zHxN1HjhRdQBz9gcqNGqudzJiGMjWynThcHsp9fvXrqZjJ7ADvKU3x80tNXrqzYuJruXtSnkIADJ08iDiuwdNas8oUlE88PfPPNJSlLUpakmOkiXdfC/KzA/Pw91QsATSsuzs83DqwrVgBeXqdOHT6s7v1Qpq58EsvS02WGyBf/nDIlaWV8ZNy7jufam+oriUthflZgfv4ez58uwqTnTy/VA1S31WK1WC0ctRQffxw9IdoresK335bEls/X42JioKE9Bj/5JEahFer7+ametzpJCUiZnb1rF2C35+Xt32+UufTvD2haixbDhgGA1erjo3pSz8XylAsuLU/po9vt1mnTEvq6R3mKWTA/KzA/1WN53wW/K++r3Yvlfa6H+VmB+akez58X8PwJwARXAPwVlrk4qClz8fQNLMtTLrikPEVsLB9imTF58sKHFz4cG2vKB255BOangznzs7qvABBC18vKjPxkeR/L+zwN89PBnPnJ86eT8Pz5h0y/ALjUyJFjxkRHd+umPS7+o6+bMwdv4Q30GTRI9VzOJkRAQKNGxnNfhw+vvjIXzwtglqf8xoXyFG2I/n8Y+MQTCa8nvD6vxYYNqsei6sH8NJglP6t6AcDyvktcKO+z9JGn9Rcee2zBnAVzFsxJTVU9FlUP5qfBLPnJ82c14/nzT3EB8BdY5mIQokGD1q0BTWvTxrh3q3btoKDK/7qeEsAWy7lzWVmAj8/Ro8uWAV5ehYWZmepelzJ/WJ4SG6t6LFKD+Wnw1PysqgUAy/suYHkfXYT5afDU/OT5s4rx/HlVuAC4QixzqSAEoGlBQd27G2UukZEA4ONTq9bV/1ruGsCaVlxcUAD4+GRkrFoFWK0FBcnJ6l6HMkvgh24FBXgYE3Hn7Nm+GV7vaY++8UZsXGxcbFxpqerxyDUwPyt4Un5e6wLAUd7n45ORsXq1ifOT5X10BZifFTwpP3n+rCSePyvF40sAqwrLXCpICeh6VtbWrYCu5+Ts3n1xmUvLljfeCABeXr6+qietOpeWp3h7Z2dv3lxxj5VpXFKe4uvjFWq5berU2DdiB8c+c+aM6vHINTE/K5gzP8vKiosBH5+srDVrjHtSt20z3g1TfZt7SXlf+ULbHb+2Tb9rplYDuhrMzwrmzE+ePwHw/FnFeAVAFbm0zEX0x8345u670QQ14VOdNSauxte3dm2jzOWmmwAhQkN79QIAIf6o0sZVN7C/L08xPqkyW/kUy1PIGZifDu6Vn5e7AuD35X1ZWevWGQdZM30uw/I+cgbmp4N75SfPn3+B589qxQVANXGUuYjpeEXvPnu2mC6ewZbBg1XP5WwVZS6O5742bNiuXcXPu04AX1qe4iifKikxz0NBLjIMEfKhjRu1I7ouQmJiWJ5CzsT8NLh6fjoWAFL6+dWvD3h5FRQcOAD4+h47tnw5IITNZsrPZVjeRwoxPw2unp88f14Gz59OwQWAkzjKXOw/y0Oo9/rrYjrmikc7dFA9l7NVlLm0axcVBdjtq1fPmqVunqKi9u3vuss4sC5dClgshYVZWarfJQWWY5L8+uBBMRSztDumTGF5CrkS5qfB1fLz/PmIiMhIwNfXeJ60phUVmbG8T07DxziyeTOAllrzmJik7vGnY+PWrVM9FxHA/HRwtfzk+fMCnj+V4ALAyRxlLrWtdSfVz5o4Uc8UB8Wnzz8vJsILexs2VD2f8zguyZJS11XPYkIsTyE3xPx0YH4qdT/2oumxY3I23hBy6lSW95E7YH46MD+V4vnTJXABoNiNu2/cfUdDf3/fjgEdz+dOmmSmMhdyokvLU769UJ4SFxsXG2fKi3TJAzA/ySmeQgIOnDyJOKzA0lmzyheWTPy1vC/FVHflkgdhfpJT8PzpkrgAcDEjD0ZHR0cHBYnQ8u/08VOnmrfMhSqF5SlkQsxPqgqXlvdhX9ku7zPPPpvUPan7d/+Xn696PqLqwPykKsHzp1vgAsDFRd4z/u/j/96uHSbah6HprFl4USzEsREjVM9FLiobhfju55/lh/hOPzNpUlL3+MD4wB07VI9FpALzk67IJQdWr+9lC/2/Tz/N8j4yM+YnXRWeP90KFwBuhmUu9BssTyG6YsxPuhjL+4iuHPOTfoPnT7fGBYCbmianyWlS07bfsCdp38O33y7GyW4yYeZMLBUPokfjxqrno2pyoTxFTJT/xPMzZpx5/9RN+bb33lstVovVorxc9XhmFXnzuOBxwddfL5rpn4q8Pn3wvSjD1NBQGST7y9FlZQjW2mNEerrcK/JE3rJlSVnzSueVHj6sem6zYn6aVDcsQsDhw2I7Rohzzz5rHFjj4oyfZHmfKsxP98L8NCmePz0KFwAe4tcyly8DTp7f+dBD8knciQnPPSfuRTc0DQhQPR9doyQcQkFxMd7GcLR4/XXRxT6m7F8zZyb2S+yX2K+wUPV4ZuM4+Oyov/e9ve/94x/ooY8XKyZPhlU8AO3iJwz/hdaoL+9at07+XdbR7psxI6n7gjlxmUuXqn59ZsX89FAXDqxyE5pi8AsvNP0o8Ez9zz/44ONPPv7k40/KylSPZzbMT8/E/PRQPH96NC4APBTLXNyT/Eh+JefqOo6L70Sfr7+2/13Ey4bPPbckZf6P83/MzFQ9n1mNunVMcnR0796ij/jM/sBrr2EpUsW7vXtX1a8vb5dPoOPy5fhQnNK7xsQkrYyPjI/cvVv16zYr5qebekS+LN8vKUFHsUm89c47WkP9X+UvvfxygkgQCeL0adXjmRXz01yYn+6J509z4QLAJKL6RfWLjm7bVn9N/FsPmT2bZS4uZgz+jRUrVohVWiZemTQp8et598+7f+dO1WOZ1eh1o9dFR7durfta5tinzJghpkOI6dHR1f37Or4Ai1cxV2yaO9dripigt5s8OT4wPjA+MDtb9ftiVsxPF3WhvA/T0QRffv+9lqkPLf/pmWeMb/iPHlU9nlkxP+lizE8Xx/OnKXEBYFKOMhc9WLeKp157DRHiGfh17Kh6LtNgeYpLGZM8JnlMcv369mg00comTcIpcbOIefxxdEUT1PT2VjaYFZ0w9Px5HJKPyb7vvFNeYuvu98nLLy9JWZIy952zZ1W/b2bF/FQsHUsxYtMmkScmyr0xMYnZ89+c/+b69arHMivmJ10N5qdiPH8SuAAwPZa5OMlp3IKZubnYKe4Q30ybdrawoOzEtM8+Y3mKGtHR0dHR0X5+JcHlD+hvPvKI/AfGIvLpp8V0DEaz2rVVz3dZNfBvOTk/X9STVtHvxRd98q2faVHvvhsbGxsbG2u3qx7PbJifTvIGAvHooUO6XayX9z/11KLW8/fN3xcfr3oss2J+UlVgfjoJz5/0B7gAoN+4tMwFG7EIcc8+i0CkYk3NmqrncxsXPnkQB8Q74rHXX8fH5QmlK2bNYnmKSkKMjhw7ZsL4CRP0T9FFPjNrlrgHu/ByeLjqya5ZDHxwf3KymIMS8cG0adzkq8X8rCKOb9SOyUy0nz69cYeGOxo8+tFHLO9TiflJ1Yv5WUV4/qQrwAUA/SmWuVyZi8pT/olD8+ZZuunx9g5PPsl7UdWKfGdszNiYG27AQSzResyejWNohf917ap6ruriKMPSheyr/TJp0uJbEkRs7K5dqucyK+bnFdqBbBSWluId6DLpww+1sfpmu3XaNJb3qcX8ZH6qxPy8Mjx/0rXgAoCuyogfomR0dOfOmhTr9fazZ4tvxGvYM3So6rmUYXmKS1FVPuVqLj0Q6C+LoVgzadLi+fMfmv/QsWOq5zMr5ucFF8r7ZFfMl+3j4uQ08QLw1FOLFs3vOL9jWprq8cyK+Wlgfrom5ucleP6kSuACgCrFdGUuZfJ96Pv2yb2WMCx68smkrHml80oXL1Y9lln9Wj6VLO7UIqZOxT7cJb574AFswVIkenmpns9lsAzLJZktP+VX8kP0X7NG3KZ1k3NiYhb+OD9zfubWrarnMivm5xVifroks+Unz59UlbgAoCphlAJZLCVPlZXZp9x9NzbgfTFy+nS3L3O5pDTozPunbsq3vfcey1PUcNvyKVfDP9cuxWPz80J5n3gceeKt557jPdZqMT+rCPPTpXhsfvLPGVUjLgCoWrhtmcuFTb98RvaTIa+95veq9UPLl7NmxcbFxsXGnTunejxz8sDyKVfTSH4L64EDIlfcKsqmTuU3amq5en5KafxTXHqCuFN+jd0nTsgMcQ8+nD696f7AmvX/9/HHLO9TiflZ7ZifLsXV8/OyeP4kJ+ICgJzCUeai5ZfPs4+aMUM2k6fxtzvvFP8n7hT/0DRVcznu9RNHRB3876uv9AZe4y1JU6Ysah0bGxublaX6fTOrX8unnpbjtB1z5mCwmI26Xbqonss0LtxbaK+pj9JujIlhGZZarpqfeES+LN8vKYGXWChefvNN3/e8tmhZr75qHFjPnFH9vpkV81Mx5qdLcdX85PmTVOICgJSI6hfVLzq6bVv7m9ov+juzZonpGIwHR4502gDrkY6vli2TnfC8vnLSpKSV8ZHxkbt3q35fzGrUtvFdx3e97jpAD5VfvvCCWcunXA3LsFyTsvy8UN4n/oOZssG33+qrvNpYPn7mmaTusXGxcenpqt8Xs2J+uibmp2vi+ZOICwByEZGtxnw/oc3w4XgZo2TZV1/hK3EHOgUGVtWvL9vK97AlJ0fEY40I+Pe/Fx5a8Pe45CVLVL9usxq1bdS2Wz9q0ECkWx+w3TVlCsun3ATLsFxSdecn2smXsTYryxJmnaINGDduwf2xcbFxW7aoft1mxfx0U8xPl8TzJ5kRFwDkUhxlLsVF5f76inffFb1lV7xxzz3YIlZezcFG7DOeK63n63PQ/a23/G7yfks7/PTTsbGxsbGxdrvq12k2o7aN2jZqW40aYq610KfJww+jCfxl0TPPYC1eEU/XqqV6PrpGLClyKVWVn9hh5Cd24P/0W996a2Gj+Lvi73rySdWvz6yYnx6K+elSeP4kM+ECgFzaNDlNTpNeXts/2v3V3rnPPot3ta3Ce/RodNAfwkONGok7RCT+Vl6OnzFI3pSRgRv0T7TUefO6Du+Mdo+8/fZ0MV1MF7qu+nWYjfH/m6btHL1n7L4J48fL+/GLbDp7Nj5ABxwPC1M9H1UTlmG5lL/Mz8niH7hDStyJg2ibmSnL5G3CkphYuO/UxyfunD2b34iowfw0KeanS+H5kzwZFwBEVGV+fS7vs/I+kTZnDtahEb7u1En1XM4jhBBAo0Zt2nTrVvFvc3OTk7dvBwApHQ3qZiBvl0+g4/LlupB9tV8mTWIZFtHlMT+ZnxdjfhJRdeECgIiuGcunDLVrN20aHg40bz548JgxFT92KCzMzc3IAFJTV65MTAROn87IOHxY9dTOc2kZlqWbHm/v8OSTCSJBJIijR1XPR6QC89PA/PxzzE8iqmpcABDRFWP5lKFGjXr1GjYEmjXr12/ECCAwsHXrzp2v/H9/6tSxYwcPAikpK1cuWAAUFZ04kZ2t+lU5EcuwyISYnwbmZyUxP4mokrgAIKLLYvmUwWr18/P3B0JCevS44QYgJKRbt0GDACEsFovl2n9dKXXdbgdycvbu3bwZOHJk/folS4DS0qKiwkLVr9qJWIZFHoj5aWB+VjPmJxFdJS4AiOhXLJ8yOA6mQUGdOvXtW/FJlcXi4+PrW32/r91eVmazARkZW7euXAmkp2/evGIFoOvl5WVlqt8VJ1qOSfLrgwfFUMzS7pgyhWVY5A6Ynwbmp2LMTyL6C1wAEFFF+dRhuR1+s2fjHiSKp67mokz3JoRRPtWgQatWnToBEREDBoweDfj61qlTr566uWy2wsLTp4GjRzduXLoUyM7es2fjRsBsZVjIRiG++/ln+SG+089MmpTUPT4wPnDHDtVjEQHMT+ani2N+EtEluAAgMqER+WPbjW3Xpo12FC3Fd9Onm7V8qlatJk3Cw4EWLQYPjooCatUKCmrWTPVUl1dYmJOTmQmkpq5evWABcPp0enpKiuqpnCgSYzFeStkV82X7uDiWYZEKzE8D89PNMD+J6AIuAIhM4HflUy+jlhj34INogprwqcxdmO6lsuVTrqaiDOvnn40yrPx8U5VhJeEQCoqL0U6ul2+//bbvddZ7LC+88kpsXGxcbNyZM6rHI8/A/DQwPz0M85PItLgAIPJALJ8yVFf5lKthGdYFS+CHbgUFYqL8J56fMYNlWHQtmJ8G5ifzk/lJ5Jm4ACDyACyfMqgqn3I1LMO6gGVYdAWYnwbmp4H5eQHzk8hjcQFA5MZ+LZ96Vt4n0ubMwTo0wtedOqmey1lctXzK1bAM64JhiJAPbdwoN8i7Le8/8UTSdwvaxMYa7wSZD/OT+XklmJ8XMD+JPAYXAERuxFE+ZRmNW8XGWbNQH9vFXaNGqZ7L2dytfMrVsAzrt2VYYmP5EMuMyZMXPrzw4djYI0dUj0fVg/lpYH5WDvOT+Unk7rgAIHJho9eNXjd6XdOmejdLL2vmtGmiP27GN3ffzfIp9y6fcjWmL8PagWwUlpbiHegy6cMPfb/1CrXcNnUqy7DcG/PTwPysXsxP5ieRu+ECgMiF/K58aiMWIe7ZZxGIVKypWVP1fM5itfr61qgBhIT07DlkCBAc3K3bwIGAplksXl6qp/NcLMO64EIZFh7GRNw5e7Zvhtd72qNvvGEcaEtLVY9Hf4z5aWB+qsH8vID5SeTyuAAgUshRPrX9hj1J+x6+/XbMxmuy1quviumoi4NNmqiez1kuLZ8KD+/Xb/hwwMvLx8fPT/V05sUyrAveQCAePXRIPI488dZzz7EMyzUwPw3MT9fE/LyA+UnkcrgAIFKA5VO/LZ9q3nzgwMhIwM+vdu369VVPR5fDMqwLLpRhaUd0XYTExCS8nvD6vBYbNqgeyyyYn8xPd8T8vID5SaQcFwBEThDVL6pfdHTbtrqu3Wz/bOZMlk+xfMoTVJRhrVoVHw+cPp2RkZqqeionYhmWUzA/DcxPz8L8ZH4SqcIFAFE1YPmU4dLyKccnVo5PsMizsAyLZVhVgflpYH6aC/OT+UnkLPwSQlQFoidET4ieEBBQ/L+yGfbHnn5a/AyITv/5D94Wz+Bfvr6q53MWq7VGDX9/IDy8d++bbwaaNu3cuW9fQAhN0zTV05GzSKnrug4cP75r1/r1xiWvP/4IlJWdP19UpHo6J2qBR+S0U6fkP7BIFD3/fNOPAs/U//yDDz7+5ONPPv7EVHcB/6kbd9+4+46G/v6+ewK8zh949FFAngOeeQY/iFcx0d9f9XzOwvI+AiryMydn795Nm0xcJrgbDdHr9Gm8hEdw9+zZvgle07R758xhmSBR5XEBQHQN7p1478R7J1qt2fXz/pPf7J138LW4S6y66y50RRPU9PZWPZ+zOA6mQUHduw8cCISH9+x5442AxeLjY561B/0Vu91mKykBjh7dvHnZMiAra9u21asBXbfby8tVT+dE32M7jp87J6aKJ+U/Zs5MfG3+Q/MfevFF1WM5G/PTwPykK8H8vID5SVRluAAgugojR44ZEx3drZu2F1a9x/Ll6CTKsalOHdVzOYvj0tPAwOuu69IFaN58wIBRowBf31q16tVTPR25i5KSs2dPngTS0tasSUoCTpw4cGDnTqMKy1RlWPdjL5oeO+Z1PTb6LevdOz4wPvCbA5570e/Ig2M+iJ7Qo4d2o9il9/zpJ3RCHvOT+UlXh/l5gcnyk6gqcQFAdAVG3zH+g/EfdOkik/V5WLR1q9nuRa1TJzi4eXMgImLw4DFjgJo1GzcODVU9FXmKwsKcnPR0IDV15coFC4DTpzMz09JUT+VEb4pdOHLmjP6Ira3Pdc2aLVq0aNG33546pXqsqsL8ZH5S9WF+enZ+ElUHLgCI/pKmjfrnmNjxWfn54pT4Fo/Urat6oupWUT5lfEIVGNiyZceOqqciszhx4vDhPXuAI0eMT7jOnz95Mi9P9VRO0A+5uGP37oWT4zfMG9O5s+pxqoamjVowVpsw6MQJ8RmiZH3P/6zbz69u3cBAoHnz/v1HjmR5HzlXRZngihXx8UBRUUFBTo7qqZzgU4wW63ftWtgo/q64nC5dVI9D5Mr4pYjoT4z695gZ49597jlxQuwQK2fMUD1Pdbm4vO+mm4zyvn79WN5Hal1cJrhunVEm+NNPnl8mqCVq8xE3eHCCmCfmiVWrVM9zrSLF2HbjBz37LEahFep77r26zE9yRcxP985PoupkmkvwiK5F631tItu++s03aIF0rK5dW/U8VcVRPhUScv31gwYB7dqNHn3XXUCdOiEhLVrwkypyDY4/h7VqNWkSFgY0bdqpU58+gHG3q3Hpa0aG8SNdVz1t1ZE79Iekf4sWhzYcOJ/87RdfqJ7nWrX2bvN028S5c5mfRM7H/HTv/CSqTnywDNGfmSK9sLNJE2xx79Oc4yDguBS1efOBAyMjAT+/2rXr11c9HdGV8fLy8fHzM/78jh4NBAV16dK/P3D06KZNy5YB2dl79mzcCDgOuO5K/l2Ui6kdOmCO6kkqiflJ5DKYn0TkwAUA0WUJgS1iJRLd9wnM/v716jVqBLRqNXz4bbcBtWs3bRoWpnoqoqrh41OrVt26QOvWw4bdcgvQpEn79j16AMnJixZ98w1QXHz6dH6+6imvhdyH9TVqAAiCn+pZrhXzk8iVMT+JzIt3pxFdljvvwA1FRSdP5uYaZUDz5gFnzmRmpqaqnoqoauXnp6T88guQnLx48dy57nxwNQhv1RNUBU/Kz5UroEXrAQAAHZ1JREFU58838vPIEdVTEVUt5ieR+bjtZp6IrpzjMUE7d3733TvvAHXrhoW1bg20aDFkyNixgL9//fqNG6uekujKOP48p6SsXJmQ4IGLrQjRGzfYbKrHIENh4fHjx44Z+fnWW8xPcm/MTyLiAoDIhByPCdq27csvZ80CGjfu0KFXL6B58379hg83Wq1r1lQ9JZHBZjt79tQpIC1t7drFi4G8vOTkbduMO1Xd/3PmP3AzZuLroiIAt6KF6mHoUpfmZ1CQ0fofFtanz003AVarn5+/v+opiQzMTyK6FBcARCbmeExQdvbu3Rs2AHl5+/dv3w6EhPToMXgwEBras+fQoRWt10TOUF5eUlJcDKSnb968fDmQmbl9++rVgK7b7eXlqqerfqIMYWL46dOq56A/58jPzMwdO9asAXJy9u3buhUIDe3V68YbgeDgbt0GDGB+knMxP5mfRH+FX5KI6Fd2e1mZzQYcPbp+/Y8/AtnZe/du3gyEhxsH2iZNOnbs3RswerFVT0uewvGNVE7O3r2bNgFpaevWLVliPK+6sFD1dArej5l4W36g6xgIYKjqaehKlZfbbMXFQFra6tWJiUBW1s6da9cyP6l6MT8veT+Yn0R/iQsAIrosx6WDBw8uXfrDD8Dx47t3b9wIREQMHjxmjPHc64gI1VOSu3KUT6Wmrlq1YAFQXHzqlDuXTxFd7NL8zM42vkFr3nzQICM/g4ObN1c9Jbkr5icRXSsuAIjoihUW5uZmZAC7dn3/PcsE6Wp5fPkU0Z84ezY7Oz0d2LXru+/efhsIDGzZsmNHoFmzAQNGjQJq1KhXr2FD1VOSq2J+ElFV4QKAiK7Z5coEmzXr23f4cMDb29+fZYLmVVJSWHjqFHDkyJo1piifIroKJ04cPrxnD5Cfn5r6yy9A06ZGmWB4eO/eRplgjRosEzQv5icRVRcuAIio0v66TLBHjyFDAE3z8rJaVU9L1cXs5VNE18KRn1lZjjJBo3uF+WkuzE8ichYuAIioyv2+THDPnk2bjE+2hg1jGZanuLR86sgR4zFTpaXFxefOqZ6OyD0xP82B+UlEqnABQETVzmYrLDx9+uIywT17NmwAIiIGDjTKsEJDW/B5vW6D5VNEzsP89CzMTyJSjQsAInK6wsKcnMxMYNeu//3v3XcvLhO84YYxYwB//wYNmjRRPSU5OMrL0tKMA+vp05mZaWmqpyIyJ+ane2F+EpGr4QKAiJSrKBP86qs5c4wywZ49WSaoCsuniNwH89O1MD+JyNVxAUDkwjTtuutGjgR0PTV1+XIAMO4N9VRS6rrdfnGZ4IEDO3YAYWE9ew4dCgQHd+8+aBCgaRaLF9OrypSVlZScPw8cO7Zx49KlQFbWzp1r1wJS2u12u+rpnEfXvb1r1gTKygIDO3YEfHyystavVz0VXSvmJ/PTGZifBuYnkfvglwAiF6ZpLVrceCOgaaGhffoAun748E8/Abp+9KjxhVVKTz5g2O02W0kJkJa2Zk1SknGwWreOZViVxfIpx/ugaVYrUFrauPH11wOlpcHBffsCQpSWFhbyAOvumJ/Mz+rA/HS8D8xPInfFBQCRW/D29vcHNK1du3HjAE0LC+vXD7DbDx5cvBiQMjt71y7VM1Y/lmFVjqN8KiVl5coFC4CSktOnzVQ+JSUgBFBe3qBB+/aAzRYWNmSI8clVQEDFf08IoLBQ9bRUdZifAPOzspifzE8iT8EFAJFbCgho2BCwWLp1+9e/ACnz8w8dAnR9//7EREDKs2czM1XPWP0uX4Y1eLBRhhUYaOYyLJZPGcrLa9du1gwoKQkPHzoU0PUaNRo1Uj0VqcP8BJiff4X5aWB+EnkeLgCIPIAQDRq0agVYLP37P/EEIGVOzu7dgN2enJyYCADnz588qXrK6ldRhvXf/5qxDIvlUwZd9/Nr0AAoKTE+oSovr1u3ZUvVU5GrYn4amJ/MT4D5SWQGXAAQeRTjXk4hmjTp3Bnw8mrYsG1b457XtWsBXU9JWboUMF8ZlnGQCwm5/vobbgBCQ3v0GDIE0DQvL6tV9bTXzlE+lZGxefOKFUBm5vbtq1cDum63l5erns55HOVTpaXBwf37A6WlDRt26QLw3ma6OsxPgPnJ/GR+Enk6LgCIPJrF4u0NaFpEhHFgCwnp1cuMZVilpaWlwNGj69f/+COQnb1nz6ZNFWVYjRt37Nirl3Hc0TTV014ey6cc78Mfl09JabH4+KiejjwH8xNgfnoa5icRcQFAZCq/LcMSIiysb19A1w8eXLLEzGVYu3dv3AhERAwePHo0UKdOSIgrXfLI8qkrK58iql7MT4D56W6Yn0R0KS4AiExMiICARo3+qAwrOTkhAZDyzJmsLNVTVr/CwtzcjAxg167vv3/vPfVlWIWFx48fOwakpKxevWABcOZMZuaRI6rfJedj+RS5MuangfnpmpifRHQ5XAAQ0a8uLsOKiTE+0dq9++J27OJilmFVfRlWcfGpUydOAGlpa9cuWgTk5x86tHs3y6dYPkXuhPlpYH6qwfwkoivFBQAR/aGLy7AsFpZhXVyGFRTUuXP//kBYWJ8+w4YBFovVejX3TrJ8ysDyKfJUzE/mZ3VjfhLRteICgIiuwKVlWEFB3bsDdrtRhiVlevqmTYBx5FM9a/VxlGGlp2/ZsmIFkJu7f/+2bUB4eJ8+N910+TIsKe12ux04fnzXrnXrgCNHjDKt8nKbrbhY9atyJovFagVstkaNWD5F5sH8BJiflcf8JKKqwQUAEV0DX9/atQGLpUOHW24BpGzWbMAA497XhQsBKXNz9+1TPWP1s9nOnTtzpqIMKzNz+/Y1a4BmzQYNiowEpCwrKysD0tJWr164ECguPnOmoED11M7D8imiP8L8BJiff4X5SUTVhQsAIqo0IQICGjcGLJbrr5840SjDOnjw4ntfz541QxlWUVFBQU4O8Msv8+Z98onqadRxlE/ZbOHhN94I2O01ajRsqHoqItfE/DQwPw3MTyKqblwAEFGVE6JBg9atAYtlwICYGEDXMzO3bav4hAuw2c6eVT0lVRW7vUaNBg0Amy00lOVTRJXD/DQX5icRORsXAERUrYQANC04+PrrAU1r0qRjR6MEa8UKQNfT0latAoy7Q1VPSldKSqN8qqQkNHTQIKC8PDCwY8eKS1aJqGowPz0P85OIVOMCgIicyCgr0rTWrUeMAIQIC+vbF9D1gwcXLQKkzMjYutX4b5rp8U2uTkpN8/YGSkuDgvr0AUpLmzbt2dP491ar6umIzIL56Y6Yn0TkargAICJlhHCUYXXqdNttANC8uVFylJyckADoel7e/v2qpzQj4zFSjsdK2WwhIQMHAlJarf7+qmcjIoD56bqYn0Tk2rgAICIXUrNmo0aApvXoce+9gBB5efv2AXZ7cnJiIgAUFubmqp7Rc5WX16nTogVQUhIebnwj4ecXGKh6KiK6MsxPlZifROQuuAAgIpclRMOG7doBXl4NG7ZtW1GGJaVxoJXSZissVD1l9XBcwlud94SyfIrIczE/mZ9ERH+ECwAicgsXl2EBjRt36HBxGdaRI44yrLIy1ZNW3eutao7yKZstOLh//4pLVB2XrBKRZ2J+Vh7zk4g8BRcAROSGvLx8fQFNu+66kSMBIcLD+/UDdP3w4Z9+AqRMT9+0CQCk1HXVs6ojpVEaZrM1bdqrF1BWZvyT5VNEZsb8vBLMTyLyVFwAEJHbqyjD6tDhllsAKUNDe/cGdH3/fuNS14KCw4dVT1n9HI+RKi9v0KB9e+Ne1KFDWT5FRJfH/DQwP4nILLgAICKPI0Tt2iEhgMXSu/eDDwJS5ucfPAjY7fv3L1gAAGfPZmernrLqOMqnbLawsKFDK+5NJSK6WsxP5icReTYuAIjI4wnRoEHr1oCXV//+MTHGJa6bNwN2+6FDS5YAgHuVYdnt/v6NGwMlJY4Da+3a4eGqpyIiT8T8JCLyLFwAEJGJCGGxAEKEhfXpA3h5BQd36wboemrqypXGP1esAFytDIvlU0SkHvOTiMgTcAFARCZmlDxpWqtWN98MCBEa2rOn8ZispCRA17Oytm9XN11paePG119vXJp6ww0snyIiV8L8JCJyR5rqAYiIXIUQvr516wKa1qXLHXeonsY4wHbrxoMrEbk+5icRkXvgAoCIiIiIiIjIBLgAICIiIiIiIjIBLgCIiIiIiIiITIALACIiIiIiIiIT4AKAiIiIiIiIyAS4ACAiIiIiIiIyAS4AiIiIiIiIiEyACwAiIiIiIiIiE+ACgIiIiIiIiMgEuAAgIiIiIiIiMgEuAIiIiIiIiIhMgAsAIiIiIiIiIhPgAoCIiIiIiIjIBLgAICIiIiIiIjIBLgCIiIiIiIiITIALACIiIiIiIiIT4AKAiIiIiIiIyAS4ACAiIiIiIiIyAS4AiIiIiIiIiEyACwAiIiIiIiIiE+ACgIiIiIiIiMgEuAAgIiIiIiIiMgEuAIiIiIiIiIhMgAsAIiIiIiIiIhPgAoCIiIiIiIjIBLgAICIiIiIiIjIBLgCIiIiIiIiITIALACIiIiIiIiIT4AKAiIiIiIiIyAS4ACAiIiIiIiIyAS4AiIiIiIiIiEyACwAiIiIiIiIiE+ACgMiF6fqBA4sWAUBZmc2mehoiz6ZppaWFhYCPT2bm+vWqp6HKYn4SOQ/zk8h9eKkegIguT9dTUpYtA3Q9PX3DBsBiadly2DBAiPDwfv0AQAiLRfWURO5JCF0vKwO8vXNytm4FvL2zstatA4QoLy8tVT0dVRbzk6j6MD+J3BcXAERuobS0qAiw2/fti48HgGPH1q8HLJbWrUeMAIRo0qRzZ9UzErk2IQApAS+vgoIDBwBf32PHli8HhLDZzpxRPR1VH+YnUWUxP4k8BxcARG7p3Lm8PMBu3779yy8BIRo0aNUK0LS2bUePBoSoVSs4WPWMRK7By+vMmSNHKg6smlZUlJureipSh/lJdKWYn0SehwsAIg8gZX7+oUOA3b527WuvAUI0btypE2CxtGkzejQA1KhRr57qKYmcQ9OKiwsKAB+fjIxVqwCrtaAgOVn1VOSqmJ9EFZifRJ6PJYBEf6YFHpHTTp1SPcaVk1JKQMrs7F27gPLy1atffRXQ9eTkhQsBlmGRJxKirKy4GPD1PXr0p5+AgIDduz/6yI0PrqPlf3H45EnVY1Qa85PI5TE/icyHVwAQ/ZlU3P7/7d17dNTlncfx7/ObTBIghEKAcPfC7QACygK1dAGtFEEI4ZJgj7q1ylUPWxBiY1yump6WbQCxXLSycFAr1CEJkqQIC6zBIhe5FFCJnCCGBEODQYEEkpD5PfvHMGLZ5SaZeebyfv2TQwKZ7/zO4ZPnfPObz6hDhYUi0lekTx/T49w6t7umRsS2jx3bulXEtouLd+2iDAvBLdTLp/RWtUreKCyU3qYnuU3kJxBwyE8A3AEAXM8bki6fffCB6THqzj+XYbnd+fl/+IOI1qdPB+WmH2HBWz7ldJ4+ffCgSEzMgQPLlolERRUVbdsWOgfX757vfHuifiEEcof8BIwjPwFcjQUAcB3uZ1SlbrV0qZTKeal2u03PU9e0rqg4dUrE7d69+/XXRdzuXbuWLRPR+uzZkydNT4dw53CcPfvllyINGhw6tGKFSL16hYU5OSJKed5vOuTUl6d16tdfn3v3R9Iwee1a0+PcLvITMIf8BHAtLACA6/hrVtaUrClFRZInj0uPhQtNz+Nr3y/DysgQcbsPHlyzRkSkqoq3+YGvWdbFi6dPi9SvX1CwZo1Igwafffb22+HTOq3LRKw3Z8zIV6vValVVZXqe20V+kp/wH/IztPIT8CU6AICbcK75mV99/dsXX4y9t4mzaVTPnvJ3yZSEwYNNz+VLnjKs4uLdu0Vqa0tLDxwQsay77/7Zz658FImIiIw0PSmClVKXLlVWetqm8/NFIiPLyg4cEPGWsYWNp+SkXvPqq7mjsxMyI9980/Q4dY38JD9R98jPy0I8PwFfUKYHAILJQD1QD9QREbHSRJrKzJm6VJ/X1bNmqUnqSfW4FUZ31ERHN2rkKcN6+GERpdq1u/9+ERGlQukq1Nbm5k6bZu7xKyruvXfyZBHbrlevaVPTV+P2hXr51E1rJz+VodXVytb3yLOpqRuWrx+SWbN4semxfI389CI//YH8DFFhmp9AXWIBANyGxOmJ08cU9utnb7Vel/wFC6SdDJa/eo5y4USphg1btRKxrK5dExNFlGrWrHNn01PdPg6wt8dbPhURUVZ26JBIdLTnfaVD9jWoN6Af05myaMMG6ejoLSNTU3N7Z+7P3F9QYHouU8hPD/LTN8jP0EJ+AnWHBQBQh4anJu4Z0zYhQZKtd+XdRYvUPDkmGe3bm57L35Rq2rRzZ8+BdsQIEaViY1u3Nj3VreMA+8NERJw9e/y4p2V661YRh6Oy8tQp01MZMFce0HP27bN72b9W3VNS8tR7KlPRTn0t5KcH+Vk3yM8gR34CPsM71wJ16OiOz984cu7o0Qf0gG79reXLK1IqKy/8pqRE7pC31av33y8HVba0aNDA9Jy+d+FCebmI1kVFO3eKiFRWlpeLKNWkyZ13iohERERFmZ7xxmz76NH33zf3+DU1LVr07i2itdNZv77pq3FtlnXxYnm5SHT08eMbN4pER584sW2biGVdulRRYXo6P3pZiuTOkhIZqBvpqc8/36tXz0Xduz/zzBvqdbVcHT9uerxAR356kZ91gfwMMuQn4DfcAQD4wbBhw4Y99ljjxlaR889VL6SmyiIplfipU+VV9aJ6Njra9Hz+4ym9sqw77ujfX8SyOnb8+c89nw/Eq8BvsP5/StXWXrwoEhVVUrJ9u+c1qfv2iYhobdump/Mf/SfZJ19VVKgWUiQfLVgQPTZirDV2/nyXy+VyuS5eND1fqCA/vcjPW0F+BjbyEzCHBQBgwPC9yUnJSe3aqTcvPWRPSU+Xe1QD+eqJJyRHsiVThdH/y8Auw+IA66GUbdfWeg6qe/aIREaWlOzYIaKU211dbW4uv+srg2VEba1OkQkStXKlOldbXvPg7Nk58TnxOfHh8EZbgYH89CI/r4f8DDDkJxAwwugHJRC4hn0+cnlyUt++llI/sfdlZMgMmSe9+vc3PZf/NWwYHy9iWV26JCaKWFbz5l27mpsmfA+wnreRcjrPnCkouPJaVMuqrv72W3PXwxT9hJ4hPbZs0dVqvX3+uefyfpmdkZ3xySem54IH+elFfn4f+RkYyE8g8LAAAAKQtwxLZVv1dNHChdJZZqvkDh1Mz+VvV8qwunXztGN72rL9JdwOsN8vn9q2zVM+VVpq7vkbQ/lUUCM/PchP8tMI8hMIeJQAAgHouzKs0QNq+3/12muUYRUVffSRiLcMS6RJk7vuElHKt2VYoV5iRfnUZZRPhRTy04v8JD/9gPwEgg53AABBhDIsr6vLsDp1GjxYRMThqMsDbaj9BovyKY+ry6fOSazEyO9/n69Wq9Wqqsr0fPAN8tOL/PwhyE8P8hMIfiwAgCBGGZaHUp4yLMuq2zKsYD/AKqW1233loBoZWVycnx9+5VN6jl6iV166JN1UvNq4ahXlUxAhP73Iz2tdF/JThPwEQlHY/IADwkHCkNFtRrfp00e/Y+9TKRkZ6kk1WT4cMMD0XP6mVKNGbduKWFbXriNGiCgVF9ex461/n+A7wF5dPnXihKd8qqoqnMun1H87lsiRadNyVmSuzVz76aem50JgIj89yE/yU4T8BEIZCwAghFGG5eEtw3I4unYdOVJEJDa2Zcsb/7tgOcA6HOfPnzwpEh1dVLR585U/hxu9So+X0r171RC1yGqdkpKzN3uLy5Wfb3ouBCfy04P8DA/kJxA+WAAAYWDihIkTJk5wOksnl53++t+fekq3Vm6V9fLLaoJEyOHmzU3P5z9KORyeW1x//GMRh6NTp6FDRUSioho2/L9/O1APsN7yqaio4uIPPhBxOsvLjxwxN6cxm6S/zCkulp16u5b09F69emZ3775ixTw1T81T4fSqXPgS+elFfoYU8hMIWywAgDBEGZaXp/TKstq3f/BBz8eHHvJ83ukMnAOs1k5ngwYikZEnT+7cKRIZWVq6e/eV16iGC8qnEAjITy/yM5iQnwC8WAAAkIQ/JvwxOfmuu6S9o6ed9rvfSYn6UgrGjg3HMqzGjUWU6tJl+HAR2z5w4K23zM1TU9O6db9+Ik6np4Qq3MunnLPkBXvvrFnZGdkZ2RllZabnA0TITy/yM7CQnwCuJWx+MAG4eZRhwSTKpxDMyE+YRH4CuBEWAABuKDF29KHRhwYNsvvZzdScV14Rp3pWrG7dTM+FEKFkj4z6+GPVUaXpb1NSNizImpI1Zft202MBdYH8hE+RnwBuEQsAADeNMizUicvlU/qn0lH9aebM3P/JTli3xHuzsNamxwN8gfxEnSA/AdwmFgAAfrDkpOSk5KSYmCpXrct2paTIFl2gy1JTw68MC9fVQX6t53zzjYiIips//9zC2AdiWi1eTPkUwhn5iZtCfgKoYywAANSZxOmJ0xOnt23r/q31nxF9Z86Ub/QFPXL8eDVJPaketyzT88E/KJ8Cbh35CRHyE4DvsQAA4DMj/jZm/Zj1vXvrxfafdU1GhlRJrfrLwIGm54KPlMu/6FW5ucp25zqefu65Dbs27HKtKyw0PRYQjMjPMEN+AvATFgAA/IYyrBBzQjbLI7t2qTI1QR9OSdlQmvVK1is7dpgeCwhF5GeIIT8BGMItZQD85r1zWT2yemzZ0rJt89lxTe+7T+ZqredMmiTfyliZ/49/mJ4PN5Aof5O4L76QeN1QnI8+mnMwuzJzXL9+HFwB3yM/gxz5CSBAcAcAAOMowwpQl8un9CndQg1KT3d/XJ1wIXbp0o2FGws3FlZXmx4PAPkZsMhPAAGKBQCAgDO0w+gho4e0aeM4rHPVr2bNogzLT/ZLqZyvqZFn5ZRes3RpzfKIPo7J6embSlwul+vMGdPjAbgx8tMQ8hNAkGABACDgUYblY5RPASGL/PQx8hNAkGEBACDofFeGtVynqpJFi2StRMt/3XOP6bmCxmBpr6fs3Kk/0uMcy2bMyF2zvovLtXOn6bEA+B75eZvITwBBjgUAgKA1UA/UA3VEROz+xqPiDj/9tExTj6r6L70kP5J3JTU+3vR8gULPkfaScuyYNU8KVUZa2oac7PXrMtetu/xVbXo+AP5Hft4c8hNAqGEBACBkeMqwGjWqKri0wj07LU0WSanET50admVYl8unRERU3Pz55xbGPhDTavHifLVarVZVVabHAxB4yM/LyE8AIY4FAICQFTZlWJfLp9QF+Q8ZsGSJu1/Na1Gfpafn5eXlvfOO5yALALeC/CQ/AYQmFgAAwkbIlGElyCgZo7W8I13lLy6X3UBF6pfT0vLysnpk9fjiC9PjAQg95CcAhAYWAADCVtCVYY2T+/Tze/bYR+1+qlNKSt5v3huU2eTDD02PBSD8kJ8AEJxYAAAIe9+VYQ2NaxvXduJEGW8XqOi5c2W1+jfp2ayZscE+l5e0q7BQ11fPyyNpabl/z3o/6/3MTM8XKZ8CYB75CQDBhQUAAFzFU4YVE1PlqnXZrpQUaSM/kYfT0qSXtJSGkZE+e+C1sk++qqiQfNVVN5o1K3qlI8YRs2yZa51rnWtdTY3p6wIAN0J+AkBgYwEAADcwfG9yUnJSu3Zy96Wl9r++9ZZ6Uk2WDwcMqLMHuFeflZzNm+39l+pFJf3iF5RPAQgV5CcABBYWAABwi4Y9MiIhaUxysrXKcV53XrxYxktj+bxly5v+Bs/IYWlVVGQru4eeO2lS3tD3srLiNm0y/bwAwNfITwAwiwUAANym4XtHnR51ulcvla4/dQwaN066qxJ9pEMHPUNmyynbVkvFVvuOHLHbSpJ708qVeb/MzsjO+OQT03MDgGnkJwAAAAAAAAAAAAAAAAAAAAAAAAAAAAAAAAAAAAAAAAAAAAAAAAAAAAAAAAAAAAAAAAAAAAAAAAAAAAAAAAAAAAAAAAAAAAAAAAAAAAAAAAAAAAAAAAAAAAAAAAAAAAAAAAAAAAAAAAAAAAAAAAAAAAAAAAAAAAAAAAAAAAAAAAAAAAAAAAAAAAAAAAAAAAAAAALJ/wKR3ZI2jMbUzgAAACV0RVh0ZGF0ZTpjcmVhdGUAMjAyMy0wNC0wNVQxNDoyODo0MyswMDowMAV6ffQAAAAldEVYdGRhdGU6bW9kaWZ5ADIwMjMtMDQtMDVUMTQ6Mjg6NDMrMDA6MDB0J8VIAAAAKHRFWHRkYXRlOnRpbWVzdGFtcAAyMDIzLTA0LTA1VDE0OjI4OjQzKzAwOjAwIzLklwAAAABJRU5ErkJggg==;" parent="K0Yor81gI7pNhZ5WIHlw-29" vertex="1">
          <mxGeometry x="23" width="100" height="100" as="geometry" />
        </mxCell>
        <mxCell id="K0Yor81gI7pNhZ5WIHlw-34" value="" style="group" parent="1" connectable="0" vertex="1">
          <mxGeometry x="677" y="216" width="113.75" height="103" as="geometry" />
        </mxCell>
        <mxCell id="IFqryok0byd0GUK2o1Lt-32" value="High permission user" style="text;html=1;strokeColor=none;fillColor=none;align=center;verticalAlign=middle;whiteSpace=wrap;rounded=0;fontFamily=Tahoma;fontStyle=1" parent="K0Yor81gI7pNhZ5WIHlw-34" vertex="1">
          <mxGeometry y="55" width="113.75" height="48" as="geometry" />
        </mxCell>
        <mxCell id="K0Yor81gI7pNhZ5WIHlw-12" value="" style="sketch=0;outlineConnect=0;fillColor=#0050ef;strokeColor=#001DBC;dashed=0;verticalLabelPosition=bottom;verticalAlign=top;align=center;html=1;fontSize=12;fontStyle=0;aspect=fixed;pointerEvents=1;shape=mxgraph.aws4.user;fontColor=#ffffff;" parent="K0Yor81gI7pNhZ5WIHlw-34" vertex="1">
          <mxGeometry x="31.870000000000005" width="50" height="50" as="geometry" />
        </mxCell>
        <mxCell id="K0Yor81gI7pNhZ5WIHlw-38" value="6) Connection to display data" style="html=1;shadow=0;dashed=0;align=center;verticalAlign=middle;shape=mxgraph.arrows2.twoWayArrow;dy=0.53;dx=21.67;fillColor=#dae8fc;strokeColor=none;" parent="1" vertex="1">
          <mxGeometry x="310" y="166" width="213" height="34" as="geometry" />
        </mxCell>
        <mxCell id="K0Yor81gI7pNhZ5WIHlw-44" value="" style="endArrow=classic;startArrow=classic;html=1;rounded=0;" parent="1" edge="1">
          <mxGeometry width="50" height="50" relative="1" as="geometry">
            <mxPoint x="684" y="240" as="sourcePoint" />
            <mxPoint x="564" y="240" as="targetPoint" />
          </mxGeometry>
        </mxCell>
        <mxCell id="K0Yor81gI7pNhZ5WIHlw-45" value="&lt;font style=&quot;font-size: 13px;&quot; face=&quot;Tahoma&quot;&gt;2b) Reply request&lt;/font&gt;" style="edgeLabel;html=1;align=center;verticalAlign=middle;resizable=0;points=[];labelBackgroundColor=none;fontSize=13;" parent="K0Yor81gI7pNhZ5WIHlw-44" connectable="0" vertex="1">
          <mxGeometry x="0.6538" y="3" relative="1" as="geometry">
            <mxPoint x="34" y="-22" as="offset" />
          </mxGeometry>
        </mxCell>
        <mxCell id="K0Yor81gI7pNhZ5WIHlw-47" value="" style="endArrow=classic;startArrow=classic;html=1;rounded=0;entryX=0.5;entryY=1;entryDx=0;entryDy=0;labelBackgroundColor=none;" parent="1" target="dAge2w72YjUi1ltIyUB8-1" edge="1">
          <mxGeometry width="50" height="50" relative="1" as="geometry">
            <mxPoint x="522" y="390" as="sourcePoint" />
            <mxPoint x="512" y="312.07000000000005" as="targetPoint" />
          </mxGeometry>
        </mxCell>
        <mxCell id="K0Yor81gI7pNhZ5WIHlw-48" value="&lt;font style=&quot;font-size: 13px;&quot; face=&quot;Tahoma&quot;&gt;3) Send request + &lt;br style=&quot;font-size: 13px;&quot;&gt;Get data&lt;/font&gt;" style="edgeLabel;html=1;align=center;verticalAlign=middle;resizable=0;points=[];labelBackgroundColor=none;fontSize=13;" parent="K0Yor81gI7pNhZ5WIHlw-47" connectable="0" vertex="1">
          <mxGeometry x="0.454" y="-1" relative="1" as="geometry">
            <mxPoint x="-67" y="19" as="offset" />
          </mxGeometry>
        </mxCell>
        <mxCell id="dAge2w72YjUi1ltIyUB8-1" value="HPU&#39;s DApp" style="text;html=1;strokeColor=none;fillColor=none;align=center;verticalAlign=middle;whiteSpace=wrap;rounded=0;fontFamily=Tahoma;fontStyle=1" parent="1" vertex="1">
          <mxGeometry x="482" y="277" width="80" height="30" as="geometry" />
        </mxCell>
      </root>
    </mxGraphModel>
  </diagram>
</mxfile>
